<svg width="110" height="27" viewBox="0 0 110 27" fill="none" xmlns="http://www.w3.org/2000/svg">
    <g clip-path="url(#clip0_1_1304)">
        <path d="M28.908 9.56937H40.0459V11.6463H35.6665V23.3217H33.2583V11.6463H28.8983V9.56937H28.908ZM39.5701 13.3641H41.6287V15.2858H41.6676C41.7355 15.014 41.8618 14.752 42.0463 14.4996C42.2308 14.2473 42.4541 14.0047 42.7163 13.8009C42.9785 13.5873 43.2698 13.4223 43.5902 13.2865C43.9107 13.1603 44.2408 13.0924 44.571 13.0924C44.8235 13.0924 45.008 13.1021 45.1051 13.1118C45.2022 13.1215 45.2993 13.1409 45.4061 13.1506V15.2663C45.2507 15.2372 45.0954 15.2178 44.9303 15.1984C44.7652 15.179 44.6098 15.1693 44.4545 15.1693C44.0855 15.1693 43.7359 15.2469 43.4057 15.3925C43.0756 15.5381 42.794 15.7613 42.5512 16.0428C42.3085 16.3339 42.1142 16.6833 41.9686 17.1103C41.8229 17.5374 41.755 18.0226 41.755 18.5758V23.312H39.5604V13.3641H39.5701ZM55.4952 23.3217H53.3395V21.9338H53.3007C53.0288 22.4385 52.6307 22.8364 52.0966 23.1373C51.5625 23.4382 51.0187 23.5934 50.4652 23.5934C49.1543 23.5934 48.2027 23.2732 47.6201 22.6229C47.0374 21.9727 46.7461 20.9924 46.7461 19.6822V13.3641H48.9407V19.4687C48.9407 20.3422 49.1058 20.9633 49.4456 21.3224C49.7758 21.6815 50.2516 21.8659 50.8537 21.8659C51.3198 21.8659 51.6985 21.798 52.0092 21.6524C52.3199 21.5068 52.5724 21.3224 52.7569 21.0798C52.9511 20.8469 53.0871 20.5557 53.1744 20.2257C53.2618 19.8957 53.3007 19.5367 53.3007 19.1484V13.3738H55.4952V23.3217ZM59.2338 20.1287C59.3017 20.7692 59.5445 21.2157 59.9621 21.4777C60.3893 21.73 60.8943 21.8659 61.4866 21.8659C61.6905 21.8659 61.9236 21.8465 62.1858 21.8174C62.4479 21.7883 62.7004 21.7203 62.9237 21.633C63.1568 21.5456 63.3413 21.4098 63.4967 21.2351C63.6423 21.0604 63.7103 20.8372 63.7006 20.5557C63.6909 20.2743 63.5841 20.0413 63.3898 19.8666C63.1956 19.6822 62.9529 19.5464 62.6519 19.4299C62.3508 19.3231 62.011 19.2261 61.6225 19.1484C61.2341 19.0708 60.8457 18.9835 60.4476 18.8961C60.0397 18.8088 59.6416 18.6923 59.2629 18.5661C58.8842 18.44 58.5443 18.2653 58.2433 18.042C57.9423 17.8285 57.6995 17.5471 57.5247 17.2074C57.3402 16.8677 57.2528 16.4504 57.2528 15.9457C57.2528 15.4022 57.3888 14.9558 57.651 14.587C57.9132 14.2182 58.253 13.927 58.6511 13.7038C59.059 13.4806 59.5057 13.3253 60.0009 13.2282C60.4961 13.1409 60.9719 13.0924 61.4186 13.0924C61.9333 13.0924 62.4285 13.1506 62.8946 13.2574C63.3607 13.3641 63.788 13.5388 64.1667 13.7911C64.5454 14.0338 64.8561 14.3541 65.1086 14.7423C65.3611 15.1305 65.5164 15.606 65.5844 16.1592H63.2927C63.1859 15.6351 62.9529 15.2761 62.5742 15.1014C62.1955 14.917 61.7585 14.8296 61.273 14.8296C61.1176 14.8296 60.9331 14.8393 60.7195 14.8684C60.5058 14.8975 60.3116 14.9461 60.1174 15.014C59.9329 15.0819 59.7776 15.1887 59.6416 15.3246C59.5154 15.4605 59.4474 15.6351 59.4474 15.8584C59.4474 16.1301 59.5445 16.3436 59.729 16.5086C59.9135 16.6736 60.1563 16.8095 60.4573 16.9259C60.7583 17.0327 61.0982 17.1298 61.4866 17.2074C61.875 17.285 62.2731 17.3724 62.681 17.4597C63.0791 17.5471 63.4675 17.6635 63.8559 17.7897C64.2444 17.9159 64.5842 18.0906 64.8853 18.3138C65.1863 18.537 65.429 18.8088 65.6135 19.1387C65.798 19.4687 65.8951 19.886 65.8951 20.3713C65.8951 20.9633 65.7592 21.4583 65.4873 21.8756C65.2154 22.2832 64.8658 22.6229 64.4386 22.8753C64.0113 23.1276 63.5258 23.3217 63.0014 23.4382C62.4771 23.5546 61.9527 23.6129 61.438 23.6129C60.8069 23.6129 60.2242 23.5449 59.6902 23.3993C59.1561 23.2538 58.69 23.0402 58.3016 22.7588C57.9132 22.4676 57.6024 22.1085 57.3791 21.6815C57.1557 21.2545 57.0392 20.7401 57.0198 20.1481H59.2338V20.1287ZM66.4778 13.3641H68.1383V10.3749H70.3328V13.3641H72.3138V15.0043H70.3328V20.3228C70.3328 20.5557 70.3425 20.7498 70.362 20.9245C70.3814 21.0895 70.4299 21.2351 70.4979 21.3515C70.5659 21.468 70.6727 21.5553 70.8183 21.6136C70.964 21.6718 71.1485 21.7009 71.401 21.7009C71.5563 21.7009 71.7117 21.7009 71.8671 21.6912C72.0224 21.6815 72.1778 21.6621 72.3332 21.6233V23.3217C72.0904 23.3508 71.8477 23.3702 71.6243 23.3993C71.3913 23.4285 71.1582 23.4382 70.9154 23.4382C70.3328 23.4382 69.8667 23.3799 69.5171 23.2732C69.1676 23.1664 68.886 23.0014 68.6918 22.7879C68.4878 22.5744 68.3616 22.3124 68.2839 21.9921C68.2159 21.6718 68.1674 21.303 68.1577 20.8954V15.0237H66.4972V13.3641H66.4778ZM73.8674 13.3641H75.9455V14.7131H75.9843C76.295 14.1308 76.7223 13.7232 77.2758 13.4709C77.8293 13.2185 78.4216 13.0924 79.0722 13.0924C79.8588 13.0924 80.5385 13.2282 81.1211 13.5097C81.7038 13.7814 82.1893 14.1599 82.5777 14.6452C82.9661 15.1305 83.2477 15.6934 83.4419 16.3339C83.6361 16.9745 83.7332 17.6635 83.7332 18.3914C83.7332 19.0611 83.6459 19.7113 83.4711 20.3325C83.2963 20.9633 83.0341 21.5165 82.6845 22.0018C82.3349 22.487 81.8883 22.8656 81.3445 23.1567C80.8007 23.4479 80.1695 23.5934 79.4315 23.5934C79.1111 23.5934 78.7906 23.5643 78.4702 23.5061C78.1497 23.4479 77.839 23.3508 77.5477 23.2246C77.2564 23.0985 76.9748 22.9335 76.732 22.7297C76.4795 22.5259 76.2756 22.2929 76.1008 22.0309H76.062V27H73.8674V13.3641ZM81.5387 18.3526C81.5387 17.9062 81.4804 17.4694 81.3639 17.0424C81.2474 16.6154 81.0726 16.2466 80.8395 15.9166C80.6065 15.5866 80.3152 15.3246 79.9753 15.1305C79.6257 14.9364 79.2276 14.8296 78.7809 14.8296C77.8584 14.8296 77.1593 15.1499 76.6932 15.7904C76.2271 16.431 75.994 17.285 75.994 18.3526C75.994 18.8573 76.0523 19.3231 76.1785 19.7502C76.3048 20.1772 76.4795 20.546 76.732 20.8566C76.9748 21.1671 77.2661 21.4098 77.606 21.5845C77.9458 21.7689 78.344 21.8562 78.7906 21.8562C79.2956 21.8562 79.7131 21.7494 80.0627 21.5456C80.4123 21.3418 80.6939 21.0701 80.9172 20.7498C81.1406 20.4198 81.3056 20.051 81.4027 19.6337C81.4901 19.2164 81.5387 18.7894 81.5387 18.3526ZM85.4132 9.56937H87.6077V11.6463H85.4132V9.56937ZM85.4132 13.3641H87.6077V23.3217H85.4132V13.3641ZM89.5692 9.56937H91.7638V23.3217H89.5692V9.56937ZM98.4931 23.5934C97.6969 23.5934 96.988 23.4576 96.3666 23.1955C95.7451 22.9335 95.2207 22.5647 94.7837 22.1085C94.3565 21.6427 94.0263 21.0895 93.803 20.4489C93.5797 19.8084 93.4631 19.0999 93.4631 18.3332C93.4631 17.5762 93.5797 16.8774 93.803 16.2369C94.0263 15.5963 94.3565 15.0431 94.7837 14.5773C95.211 14.1114 95.7451 13.7523 96.3666 13.4903C96.988 13.2282 97.6969 13.0924 98.4931 13.0924C99.2894 13.0924 99.9983 13.2282 100.62 13.4903C101.241 13.7523 101.766 14.1211 102.203 14.5773C102.63 15.0431 102.96 15.5963 103.183 16.2369C103.407 16.8774 103.523 17.5762 103.523 18.3332C103.523 19.0999 103.407 19.8084 103.183 20.4489C102.96 21.0895 102.63 21.6427 102.203 22.1085C101.775 22.5744 101.241 22.9335 100.62 23.1955C99.9983 23.4576 99.2894 23.5934 98.4931 23.5934ZM98.4931 21.8562C98.9787 21.8562 99.4059 21.7494 99.7652 21.5456C100.125 21.3418 100.416 21.0701 100.649 20.7401C100.882 20.4101 101.047 20.0316 101.164 19.6143C101.27 19.197 101.329 18.7699 101.329 18.3332C101.329 17.9062 101.27 17.4888 101.164 17.0618C101.057 16.6348 100.882 16.266 100.649 15.936C100.416 15.606 100.125 15.344 99.7652 15.1402C99.4059 14.9364 98.9787 14.8296 98.4931 14.8296C98.0076 14.8296 97.5804 14.9364 97.2211 15.1402C96.8618 15.344 96.5705 15.6157 96.3374 15.936C96.1044 16.266 95.9393 16.6348 95.8228 17.0618C95.7159 17.4888 95.6577 17.9062 95.6577 18.3332C95.6577 18.7699 95.7159 19.197 95.8228 19.6143C95.9296 20.0316 96.1044 20.4101 96.3374 20.7401C96.5705 21.0701 96.8618 21.3418 97.2211 21.5456C97.5804 21.7592 98.0076 21.8562 98.4931 21.8562ZM104.164 13.3641H105.825V10.3749H108.019V13.3641H110V15.0043H108.019V20.3228C108.019 20.5557 108.029 20.7498 108.048 20.9245C108.068 21.0895 108.116 21.2351 108.184 21.3515C108.252 21.468 108.359 21.5553 108.505 21.6136C108.65 21.6718 108.835 21.7009 109.087 21.7009C109.243 21.7009 109.398 21.7009 109.553 21.6912C109.709 21.6815 109.864 21.6621 110.019 21.6233V23.3217C109.777 23.3508 109.534 23.3702 109.311 23.3993C109.078 23.4285 108.844 23.4382 108.602 23.4382C108.019 23.4382 107.553 23.3799 107.203 23.2732C106.854 23.1664 106.572 23.0014 106.378 22.7879C106.174 22.5744 106.048 22.3124 105.97 21.9921C105.902 21.6718 105.854 21.303 105.844 20.8954V15.0237H104.183V13.3641H104.164Z" fill="#191919"/>
        <path d="M26.3445 9.56937H16.2844L13.1771 0L10.06 9.56937L0 9.55967L8.14707 15.4799L5.03001 25.0395L13.1771 19.129L21.3144 25.0395L18.2071 15.4799L26.3445 9.56937Z" fill="#00B67A"/>
        <path d="M18.9063 17.6441L18.2071 15.4799L13.1771 19.129L18.9063 17.6441Z" fill="#005128"/>
    </g>
    <defs>
        <clipPath id="clip0_1_1304">
            <rect width="110" height="27" fill="white"/>
        </clipPath>
    </defs>
</svg>
