<svg width="92" height="30" viewBox="0 0 92 30" fill="none" xmlns="http://www.w3.org/2000/svg">
<path d="M8.92959 0.230089C5.64177 1.08629 2.2512 3.92889 0.812773 7.04548C-0.351665 9.5456 -0.248921 13.8266 1.01826 16.3952C2.1827 18.7584 4.44308 20.916 7.0117 22.1147C9.7858 23.3819 13.6216 23.4161 16.3615 22.1489C20.163 20.368 22.0466 17.5254 22.3891 13.0732L22.5946 10.5388H17.2177H11.8749V12.08V13.6211H15.6422C19.3068 13.6211 19.4095 13.6554 19.4095 14.3746C19.4095 15.6418 17.9711 17.7994 16.3957 18.8954C15.1285 19.7858 14.5463 19.957 12.3887 20.0598C9.37482 20.231 7.97064 19.8201 6.08699 18.2104C3.89511 16.3267 3.14165 14.6486 3.14165 11.5662C3.14165 8.5524 3.86086 6.90849 5.98425 4.99059C8.58711 2.62746 12.4914 2.18224 15.6765 3.82615L17.4916 4.75085L18.3478 3.89465C19.1698 3.07269 19.1698 3.00419 18.5876 2.35348C17.0464 0.675316 11.7722 -0.523371 8.92959 0.230089Z" fill="#4285F4"/>
<path d="M29.8552 8.44964C26.2249 9.37434 24.2043 12.0114 24.2043 15.8472C24.2043 18.1419 25.0262 19.9228 26.7387 21.4297C30.3005 24.5463 36.0542 23.3818 38.2803 19.0666C39.5132 16.6007 38.9653 12.5937 37.1159 10.6073C35.5062 8.86061 32.1156 7.86742 29.8552 8.44964ZM33.5198 11.6347C36.6021 12.7992 36.5679 18.3474 33.4855 19.957C29.5128 22.0119 25.54 17.0459 28.0058 13.0731C28.3826 12.4224 28.725 11.9087 28.7593 11.9087C28.7935 11.9087 29.4443 11.7032 30.1977 11.4292C31.5334 10.9498 31.7389 10.984 33.5198 11.6347Z" fill="#EA4335"/>
<path d="M46.2944 8.44964C42.6641 9.37434 40.6434 12.0114 40.6434 15.8472C40.6434 18.1419 41.4654 19.9228 43.1778 21.4297C46.7396 24.5463 52.4933 23.3818 54.7194 19.0666C55.9524 16.6007 55.4044 12.5937 53.555 10.6073C51.9453 8.86061 48.5548 7.86742 46.2944 8.44964ZM49.9589 11.6347C53.0413 12.7992 53.007 18.3474 49.9247 19.957C45.9519 22.0119 41.9791 17.0459 44.445 13.0731C44.8217 12.4224 45.1642 11.9087 45.1984 11.9087C45.2327 11.9087 45.8834 11.7032 46.6369 11.4292C47.9725 10.9498 48.178 10.984 49.9589 11.6347Z" fill="#FBBC05"/>
<path d="M62.4253 8.65513C57.8018 9.85382 55.5757 15.9157 58.3155 19.8885C59.6854 21.8749 62.528 23.3134 64.5829 23.1079C65.3706 23.0051 66.5008 22.6284 67.0488 22.2174C67.5625 21.8064 68.1105 21.4982 68.2132 21.4982C68.59 21.4982 68.3845 23.9641 67.905 25.0943C66.7748 27.7656 62.4595 28.0739 60.7129 25.5737C60.2677 24.923 60.0964 24.8888 59.0005 25.2655C58.3155 25.471 57.7675 25.745 57.7675 25.8477C57.7675 25.9847 58.1785 26.5669 58.658 27.2177C61.1239 30.437 66.2268 30.848 69.0352 28.0396C70.9188 26.156 71.1243 24.9915 71.1243 16.3952V8.82637H69.7544C68.7612 8.82637 68.3845 8.96337 68.3845 9.3401C68.3845 9.99081 68.2132 9.99081 67.1858 9.30585C65.8501 8.4154 64.2062 8.20991 62.4253 8.65513ZM66.1241 11.395C68.1105 12.3539 69.1379 15.3335 68.2817 17.7309C67.4598 20.0598 64.3774 21.1557 62.2198 19.9228C60.8156 19.0666 60.1649 17.6967 60.1649 15.5733C60.1649 13.4499 60.9526 12.1142 62.6993 11.3607C64.1035 10.7785 64.7884 10.7785 66.1241 11.395Z" fill="#4285F4"/>
<path d="M83.0769 8.62087C79.9261 9.75106 78.2137 12.2169 78.2137 15.7102C78.2137 19.82 81.022 22.8339 85.0976 23.1421C86.7415 23.2448 87.358 23.1079 88.8991 22.2859C89.8923 21.7722 90.954 20.9845 91.228 20.6077C91.6732 19.9228 91.6047 19.82 90.5773 19.1693L89.4813 18.4843L88.4881 19.3063C86.6045 20.8817 84.2414 20.8132 82.5975 19.1008L81.6385 18.0734L83.4879 17.2857C84.5154 16.8404 86.7757 15.8815 88.5224 15.1623C90.2348 14.4431 91.6732 13.7238 91.6732 13.5526C91.6732 12.8334 90.2348 10.5388 89.2758 9.75106C88.2142 8.8606 86.2963 8.14139 84.9948 8.14139C84.6181 8.17564 83.7619 8.38113 83.0769 8.62087ZM87.1525 11.5662C87.7347 11.9429 88.2484 12.3539 88.2484 12.4909C88.2484 12.7991 81.6728 15.539 81.3988 15.3678C81.1248 15.128 81.433 13.8266 81.9467 13.0046C82.5975 12.0457 84.4126 10.8812 85.3373 10.8812C85.714 10.8812 86.536 11.1895 87.1525 11.5662Z" fill="#EA4335"/>
<rect x="73.5217" y="0.606812" width="2.73986" height="22.6038" fill="#34A853"/>
</svg>
