<svg width="105" height="26" viewBox="0 0 105 26" fill="none" xmlns="http://www.w3.org/2000/svg">
    <g clip-path="url(#clip0_1_1074)">
        <path d="M13.6629 4.23168C17.4383 3.6611 21.2206 3.12146 25.0029 2.599C25.0029 5.88498 25.0029 9.17097 25.0029 12.457C21.2241 12.4707 17.4452 12.5291 13.6629 12.5394C13.6594 9.76904 13.6594 7.00208 13.6629 4.23168ZM4.07703 5.55845C6.91985 5.12536 9.77306 4.74726 12.6298 4.39323C12.6298 7.11895 12.6298 9.84123 12.6332 12.5669C9.78 12.5669 6.93025 12.6082 4.07703 12.6013V5.55845ZM49.2328 6.0156C49.9816 5.5447 50.935 6.53118 50.5016 7.27018C50.2902 7.8167 49.5171 8.02293 49.0802 7.62422C48.5359 7.25643 48.6122 6.27683 49.2328 6.0156ZM68.8136 5.91936C69.2955 5.91592 69.7739 5.91592 70.2523 5.91592V19.2248H68.8205C68.824 18.7402 68.8136 18.259 68.7789 17.7778C67.7423 19.6236 64.9654 20.0326 63.381 18.6611C62.2473 17.6953 61.9007 16.121 61.9596 14.698C61.9735 13.2544 62.4519 11.7179 63.6133 10.7761C65.1179 9.54562 67.7908 9.61781 68.824 11.4258C68.8066 9.58687 68.8205 7.75483 68.8136 5.91936ZM65.7177 11.1817C64.5667 11.3605 63.7901 12.402 63.5751 13.4778C63.2909 14.7771 63.3429 16.2757 64.1645 17.3791C65.059 18.5546 67.0247 18.5786 67.9781 17.4684C68.6298 16.7982 68.8136 15.8392 68.817 14.9421C68.824 13.9934 68.9072 12.9244 68.2727 12.1339C67.7111 11.3433 66.6641 10.9858 65.7177 11.1817ZM31.3854 6.62742C31.9263 6.63086 32.4636 6.63086 33.0044 6.63773C33.8469 9.64874 34.6755 12.6666 35.5179 15.6845C35.7017 16.3135 35.8334 16.9666 35.9131 17.6162C36.7902 13.9178 37.9863 10.2984 38.9952 6.62742C39.4597 6.63086 39.9277 6.63086 40.3958 6.6343C41.1377 9.24315 41.8276 11.8692 42.5626 14.4815C42.833 15.523 43.1831 16.5472 43.2941 17.6231C44.088 13.9281 45.2182 10.3087 46.1161 6.63773C46.65 6.63086 47.1804 6.63086 47.7143 6.63086C46.5529 10.8346 45.3464 15.0246 44.1712 19.2248H42.4447C41.5918 16.207 40.7494 13.1891 39.8896 10.1815C39.744 9.69343 39.6851 9.18815 39.64 8.68632C39.5741 9.11941 39.5117 9.55937 39.3973 9.98559C38.5271 13.055 37.6466 16.121 36.8006 19.1939C36.2251 19.2248 35.6496 19.2283 35.0742 19.2248C33.84 15.028 32.6162 10.8277 31.3854 6.62742ZM54.18 11.6492C55.0016 10.1953 56.9188 9.52844 58.465 10.2021C59.6923 10.6765 60.1499 12.0892 60.1915 13.2888C60.2574 15.2686 60.2019 17.245 60.2192 19.2248C59.7408 19.2248 59.2589 19.2248 58.7805 19.2214C58.7597 17.3241 58.8325 15.4198 58.7458 13.5191C58.7077 12.5807 58.3055 11.4498 57.2724 11.2092C55.7643 10.759 54.2597 12.1064 54.2112 13.5844C54.1696 15.4611 54.2112 17.3447 54.1973 19.2248H52.7586C52.762 16.2138 52.762 13.2063 52.7586 10.1953H54.1973C54.1973 10.6799 54.1938 11.1646 54.18 11.6492ZM75.8478 9.97184C77.1271 9.85841 78.5485 10.0578 79.5123 10.9789C80.6009 11.9723 80.9233 13.5191 80.8643 14.9352C80.847 16.207 80.372 17.4959 79.4325 18.3827C77.4738 20.1495 73.8336 19.7645 72.589 17.3309C71.6113 15.2961 71.8089 12.4776 73.5944 10.9308C74.2323 10.3946 75.0435 10.1506 75.8478 9.97184ZM75.5878 11.2642C73.4765 11.907 73.1194 14.643 73.7781 16.4407C74.3016 18.039 76.3505 18.7471 77.817 18.0012C78.812 17.5475 79.2661 16.4338 79.3632 15.413C79.4707 14.2237 79.3736 12.8763 78.5242 11.9448C77.8066 11.1439 76.5897 10.9686 75.5878 11.2642ZM97.6543 9.96497C98.5522 9.9031 99.4675 9.98903 100.313 10.319C100.549 10.759 100.365 11.3399 100.421 11.8348C99.412 11.2127 98.0218 10.8105 96.9263 11.4498C96.1774 11.852 96.1393 13.0482 96.8708 13.4916C97.9178 14.1652 99.249 14.3405 100.178 15.2067C101.204 16.1829 100.955 18.0665 99.7552 18.8021C98.2957 19.7232 96.3716 19.6304 94.8427 18.9292C94.8427 18.3965 94.8427 17.8637 94.8323 17.3309C95.9209 18.1524 97.4498 18.6096 98.7498 18.0252C99.5091 17.6472 99.5472 16.4922 98.8781 16.0042C97.8311 15.2377 96.3958 15.1174 95.4667 14.1618C94.548 13.2441 94.7144 11.5564 95.7371 10.7796C96.2676 10.2984 96.9852 10.154 97.6543 9.96497ZM48.9242 10.1953C49.4027 10.1953 49.8811 10.1953 50.363 10.1953V19.2248H48.9242C48.9242 16.2138 48.9242 13.2063 48.9242 10.1953ZM81.4641 10.1953H82.9652C83.5581 12.3435 84.1336 14.4987 84.7403 16.6469C84.8616 17.0525 84.9067 17.4684 84.9518 17.8878C85.6278 15.2995 86.4876 12.756 87.2572 10.1918L88.5677 10.1987C89.2264 12.7663 90.0446 15.2927 90.5923 17.8843C91.154 15.3064 91.9548 12.7869 92.5823 10.2228C93.0642 10.1987 93.5461 10.1918 94.028 10.1884C93.1162 13.1994 92.2426 16.2173 91.3238 19.2248H89.8331C89.1848 16.7775 88.3458 14.3749 87.8223 11.9036C87.1983 14.3749 86.3281 16.7775 85.6139 19.2248H84.1752C83.2738 16.2138 82.3516 13.2097 81.4641 10.1953ZM4.07703 13.4606C6.92678 13.4503 9.77653 13.495 12.6263 13.4916C12.6263 16.2207 12.6332 18.9533 12.6298 21.6859C9.78 21.27 6.93025 20.9022 4.07703 20.5207V13.4606ZM13.6455 13.5672H25.0029C25.0064 16.8463 25.0029 20.122 25.0029 23.4011C21.2275 22.8408 17.4452 22.3183 13.6629 21.8096C13.6594 19.0633 13.6525 16.317 13.6455 13.5672Z" fill="#00ADEF"/>
    </g>
    <defs>
        <clipPath id="clip0_1_1074">
            <rect width="104.897" height="26" fill="white"/>
        </clipPath>
    </defs>
</svg>
