<svg width="1626" height="2211" viewBox="0 0 1626 2211" fill="none" xmlns="http://www.w3.org/2000/svg">
    <path d="M1613.02 14.0934C1611.87 14.7556 1610.76 15.5848 1609.69 16.5189C1609.23 1.62019 1598.42 -4.30469 1585.1 3.34273C1574.25 9.56864 1565.07 22.9002 1561.77 35.9695C1559.1 35.6103 1555.95 36.3035 1552.57 38.2416C1542.87 43.8169 1535 57.3738 1535 68.5206C1535 79.6674 1542.87 84.1863 1552.57 78.6129L1613.02 43.9004C1620.19 39.7854 1626 29.7766 1626 21.5447C1626 13.3127 1620.19 9.97839 1613.02 14.0934Z" fill="#F5F5F5"/>
    <path d="M1332.02 1648.09C1330.87 1648.76 1329.76 1649.58 1328.69 1650.52C1328.23 1635.62 1317.42 1629.7 1304.1 1637.34C1293.25 1643.57 1284.07 1656.9 1280.77 1669.97C1278.1 1669.61 1274.95 1670.3 1271.57 1672.24C1261.87 1677.82 1254 1691.37 1254 1702.52C1254 1713.67 1261.87 1718.19 1271.57 1712.61L1332.02 1677.9C1339.19 1673.79 1345 1663.78 1345 1655.54C1345 1647.31 1339.19 1643.98 1332.02 1648.09Z" fill="#F5F5F5"/>
    <path d="M53.0237 1458.09C51.8717 1458.76 50.7588 1459.58 49.6947 1460.52C49.2339 1445.62 38.4151 1439.7 25.0991 1447.34C14.2549 1453.57 5.06649 1466.9 1.77458 1479.97C-0.904243 1479.61 -4.04579 1480.3 -7.42556 1482.24C-17.1314 1487.82 -25 1501.37 -25 1512.52C-25 1523.67 -17.1314 1528.19 -7.42556 1522.61L53.0237 1487.9C60.1913 1483.79 66 1473.78 66 1465.54C66 1457.31 60.1913 1453.98 53.0237 1458.09Z" fill="#F5F5F5"/>
    <path d="M1609.87 1393.92C1609.06 1394.38 1608.28 1394.97 1607.53 1395.62C1607.21 1385.14 1599.6 1380.97 1590.23 1386.35C1582.61 1390.73 1576.15 1400.11 1573.83 1409.31C1571.95 1409.06 1569.74 1409.55 1567.36 1410.91C1560.53 1414.83 1555 1424.37 1555 1432.22C1555 1440.06 1560.53 1443.24 1567.36 1439.32L1609.87 1414.89C1614.91 1412 1619 1404.95 1619 1399.16C1619 1393.37 1614.91 1391.02 1609.87 1393.92Z" fill="#F5F5F5"/>
    <path d="M512.024 659.093C510.872 659.756 509.759 660.585 508.695 661.519C508.234 646.62 497.415 640.695 484.099 648.343C473.255 654.569 464.066 667.9 460.775 680.97C458.096 680.61 454.954 681.304 451.574 683.242C441.869 688.817 434 702.374 434 713.521C434 724.667 441.869 729.186 451.574 723.613L512.024 688.9C519.191 684.785 525 674.777 525 666.545C525 658.313 519.191 654.978 512.024 659.093Z" fill="#F5F5F5"/>
    <path d="M281.735 212.179C280.735 212.752 279.769 213.468 278.845 214.276C278.445 201.4 269.053 196.28 257.493 202.889C248.078 208.269 240.102 219.79 237.244 231.085C234.918 230.774 232.191 231.373 229.257 233.048C220.831 237.866 214 249.582 214 259.215C214 268.848 220.831 272.754 229.257 267.937L281.735 237.939C287.957 234.382 293 225.733 293 218.619C293 211.505 287.957 208.623 281.735 212.179Z" fill="#F5F5F5"/>
    <path d="M612.735 2153.18C611.735 2153.75 610.769 2154.47 609.845 2155.28C609.445 2142.4 600.053 2137.28 588.493 2143.89C579.078 2149.27 571.102 2160.79 568.244 2172.08C565.918 2171.77 563.191 2172.37 560.257 2174.05C551.831 2178.87 545 2190.58 545 2200.22C545 2209.85 551.831 2213.75 560.257 2208.94L612.735 2178.94C618.957 2175.38 624 2166.73 624 2159.62C624 2152.5 618.957 2149.62 612.735 2153.18Z" fill="#F5F5F5"/>
    <path d="M155.302 448.57C154.529 449.019 153.783 449.582 153.07 450.217C152.761 440.1 145.509 436.077 136.583 441.27C129.314 445.497 123.154 454.549 120.948 463.424C119.152 463.18 117.046 463.651 114.781 464.967C108.275 468.752 103 477.957 103 485.526C103 493.095 108.275 496.164 114.781 492.379L155.302 468.809C160.106 466.015 164 459.219 164 453.629C164 448.039 160.106 445.775 155.302 448.57Z" fill="#F5F5F5"/>
    <path d="M155.302 2055.57C154.529 2056.02 153.783 2056.58 153.07 2057.22C152.761 2047.1 145.509 2043.08 136.583 2048.27C129.314 2052.5 123.154 2061.55 120.948 2070.42C119.152 2070.18 117.046 2070.65 114.781 2071.97C108.275 2075.75 103 2084.96 103 2092.53C103 2100.1 108.275 2103.16 114.781 2099.38L155.302 2075.81C160.106 2073.01 164 2066.22 164 2060.63C164 2055.04 160.106 2052.78 155.302 2055.57Z" fill="#F5F5F5"/>
    <path d="M1059.87 1142.92C1059.06 1143.38 1058.28 1143.97 1057.53 1144.62C1057.21 1134.14 1049.6 1129.97 1040.23 1135.35C1032.61 1139.73 1026.15 1149.11 1023.83 1158.31C1021.95 1158.06 1019.74 1158.55 1017.36 1159.91C1010.53 1163.83 1005 1173.37 1005 1181.22C1005 1189.06 1010.53 1192.24 1017.36 1188.32L1059.87 1163.89C1064.91 1161 1069 1153.95 1069 1148.16C1069 1142.37 1064.91 1140.02 1059.87 1142.92Z" fill="#F5F5F5"/>
</svg>
