<svg width="516" height="363" viewBox="0 0 516 363" fill="none" xmlns="http://www.w3.org/2000/svg">
    <path d="M45.1502 266.753C44.4836 267.138 43.8396 267.62 43.2238 268.164C42.9571 259.501 36.6966 256.056 28.991 260.502C22.7158 264.122 17.3987 271.874 15.4937 279.473C13.9436 279.264 12.1256 279.668 10.1698 280.794C4.55333 284.036 0 291.919 0 298.4C0 304.882 4.55333 307.509 10.1698 304.269L45.1502 284.085C49.2979 281.692 52.6592 275.872 52.6592 271.086C52.6592 266.299 49.2979 264.361 45.1502 266.753Z" fill="white"/>
    <path d="M507.778 215.469C507.111 215.854 506.467 216.336 505.851 216.879C505.585 208.216 499.324 204.771 491.619 209.218C485.343 212.838 480.026 220.59 478.121 228.189C476.571 227.98 474.753 228.383 472.797 229.51C467.181 232.752 462.628 240.635 462.628 247.116C462.628 253.597 467.181 256.225 472.797 252.984L507.778 232.8C511.925 230.408 515.287 224.588 515.287 219.801C515.287 215.015 511.925 213.076 507.778 215.469Z" fill="white"/>
    <path d="M320.793 283.965C320.793 286.066 319.316 288.622 317.495 289.674C315.673 290.725 314.197 289.874 314.197 287.77C314.197 285.668 315.673 283.112 317.495 282.061C319.316 281.01 320.793 281.862 320.793 283.965Z" fill="white"/>
    <path d="M331.482 277.796C331.482 279.897 330.006 282.454 328.184 283.505C326.363 284.556 324.886 283.705 324.886 281.602C324.886 279.5 326.363 276.943 328.184 275.892C330.006 274.841 331.482 275.693 331.482 277.796Z" fill="white"/>
    <path d="M342.173 271.627C342.173 273.729 340.696 276.285 338.875 277.337C337.054 278.388 335.577 277.536 335.577 275.434C335.577 273.331 337.054 270.776 338.875 269.724C340.698 268.674 342.173 269.526 342.173 271.627Z" fill="white"/>
    <path d="M352.864 265.459C352.864 267.56 351.386 270.117 349.566 271.169C347.744 272.22 346.267 271.368 346.267 269.265C346.267 267.163 347.744 264.607 349.566 263.556C351.387 262.505 352.864 263.357 352.864 265.459Z" fill="white"/>
    <path d="M166.818 342.882C166.818 344.983 165.341 347.54 163.52 348.591C161.699 349.642 160.222 348.791 160.222 346.687C160.222 344.586 161.699 342.03 163.52 340.978C165.341 339.927 166.818 340.781 166.818 342.882Z" fill="white"/>
    <path d="M175.917 337.633C175.917 339.734 174.44 342.29 172.619 343.342C170.798 344.394 169.321 343.541 169.321 341.439C169.321 339.336 170.798 336.781 172.619 335.729C174.44 334.68 175.917 335.531 175.917 337.633Z" fill="white"/>
    <path d="M166.818 332.384C166.818 334.486 165.341 337.042 163.52 338.093C161.699 339.145 160.222 338.293 160.222 336.19C160.222 334.088 161.699 331.532 163.52 330.48C165.341 329.429 166.818 330.282 166.818 332.384Z" fill="white"/>
    <path d="M175.917 327.134C175.917 329.235 174.44 331.791 172.619 332.843C170.798 333.894 169.321 333.042 169.321 330.94C169.321 328.837 170.798 326.281 172.619 325.23C174.44 324.179 175.917 325.032 175.917 327.134Z" fill="white"/>
    <path opacity="0.2" d="M405.354 4.28776C404.192 4.95848 403.097 5.92053 402.131 7.05534C401.98 0.70605 397.422 -1.83005 391.808 1.40952C390.01 2.44722 388.32 3.95353 386.845 5.73647C384.347 1.37113 379.17 0.357142 373.17 3.81916C364.733 8.68698 357.893 20.5263 357.893 30.2619C357.893 31.0659 357.956 31.8145 358.047 32.5383C356.843 32.2267 355.368 32.4785 353.769 33.401C349.732 35.7304 346.459 41.3955 346.459 46.0533C346.459 50.7111 349.731 52.6002 353.769 50.2707L405.351 20.5071C409.234 18.2679 412.379 12.822 412.379 8.34372C412.379 3.86545 409.236 2.0475 405.354 4.28776Z" fill="white"/>
    <path opacity="0.5" d="M414.546 12.3817C413.383 13.0525 412.29 14.0145 411.324 15.1493C411.172 8.80004 406.614 6.26394 401 9.50351C399.201 10.5412 397.511 12.0486 396.038 13.8305C393.539 9.46512 388.362 8.45226 382.362 11.9131C373.924 16.7821 367.085 28.6202 367.085 38.3559C367.085 39.1599 367.149 39.9085 367.238 40.6323C366.036 40.3206 364.56 40.5724 362.961 41.495C358.924 43.8244 355.651 49.4883 355.651 54.1472C355.651 58.805 358.923 60.693 362.961 58.3635L414.544 28.5999C418.426 26.3608 421.571 20.9148 421.571 16.4366C421.574 11.9583 418.428 10.1426 414.546 12.3817Z" fill="white"/>
    <path d="M423.739 20.4767C422.576 21.1474 421.482 22.1095 420.515 23.2443C420.365 16.895 415.806 14.3589 410.193 17.5985C408.394 18.6362 406.704 20.1425 405.23 21.9254C402.731 17.5601 397.554 16.5461 391.555 20.0081C383.117 24.8759 376.278 36.7152 376.278 46.4509C376.278 47.2548 376.342 48.0035 376.433 48.7273C375.228 48.4167 373.754 48.6674 372.154 49.5899C368.118 51.9194 364.845 57.5844 364.845 62.2422C364.845 66.9 368.117 68.788 372.154 66.4596L423.737 36.696C427.618 34.4569 430.765 29.0109 430.765 24.5327C430.765 20.0544 427.619 18.2376 423.739 20.4767Z" fill="white"/>
    <path d="M112.018 347.529L86.4933 332.802L112.017 318.075L137.541 332.802L112.018 347.529Z" fill="#C22838"/>
    <path d="M112.018 338.408C111.682 338.408 111.348 338.323 111.049 338.149L85.524 323.421C84.924 323.074 84.5534 322.434 84.5534 321.743C84.5534 321.051 84.924 320.408 85.524 320.063L111.047 305.337C111.647 304.99 112.387 304.99 112.987 305.337L138.512 320.063C139.112 320.41 139.482 321.051 139.482 321.743C139.482 322.434 139.113 323.076 138.512 323.421L112.988 338.149C112.688 338.323 112.354 338.408 112.018 338.408ZM90.3744 321.743L112.018 334.231L133.66 321.743L112.017 309.256L90.3744 321.743Z" fill="white"/>
    <path d="M137.541 310.235L112.018 324.963V295.509L137.541 280.782V310.235Z" fill="url(#paint0_radial_1_48)"/>
    <path d="M112.018 295.509L86.4945 280.781L112.017 266.055L137.54 280.783L112.018 295.509Z" fill="url(#paint1_linear_1_48)"/>
    <path d="M112.018 324.963L86.4945 310.235V280.782L112.018 295.509V324.963Z" fill="url(#paint2_radial_1_48)"/>
    <path d="M102.825 309.05L95.687 304.931V296.694L102.825 300.813V309.05Z" fill="white"/>
    <path d="M112.018 189.384L86.4933 174.658L112.017 159.931L137.541 174.658L112.018 189.384Z" fill="#C22838"/>
    <path d="M112.018 180.264C111.682 180.264 111.348 180.179 111.049 180.005L85.524 165.277C84.924 164.93 84.5534 164.29 84.5534 163.599C84.5534 162.907 84.924 162.264 85.524 161.919L111.047 147.193C111.647 146.846 112.387 146.846 112.987 147.193L138.512 161.919C139.112 162.266 139.482 162.907 139.482 163.599C139.482 164.29 139.113 164.931 138.512 165.277L112.988 180.005C112.688 180.179 112.354 180.264 112.018 180.264ZM90.3744 163.599L112.018 176.086L133.66 163.599L112.017 151.112L90.3744 163.599Z" fill="white"/>
    <path d="M137.541 152.091L112.018 166.818V137.365L137.541 122.637V152.091Z" fill="url(#paint3_radial_1_48)"/>
    <path d="M112.018 137.365L86.4945 122.637L112.017 107.911L137.54 122.639L112.018 137.365Z" fill="url(#paint4_linear_1_48)"/>
    <path d="M112.018 166.818L86.4945 152.091V122.637L112.018 137.365V166.818Z" fill="url(#paint5_radial_1_48)"/>
    <path d="M102.825 150.906L95.687 146.787V138.55L102.825 142.669V150.906Z" fill="white"/>
    <path d="M398.208 347.529L372.683 332.802L398.207 318.075L423.731 332.802L398.208 347.529Z" fill="#C22838"/>
    <path d="M398.208 338.408C397.872 338.408 397.538 338.323 397.238 338.149L371.714 323.421C371.114 323.074 370.743 322.434 370.743 321.743C370.743 321.051 371.114 320.408 371.714 320.063L397.237 305.337C397.837 304.99 398.577 304.99 399.177 305.337L424.702 320.063C425.302 320.41 425.672 321.051 425.672 321.743C425.672 322.434 425.303 323.076 424.702 323.421L399.178 338.149C398.878 338.323 398.543 338.408 398.208 338.408ZM376.564 321.743L398.208 334.231L419.85 321.743L398.207 309.256L376.564 321.743Z" fill="white"/>
    <path d="M423.731 310.235L398.208 324.963V295.509L423.731 280.782V310.235Z" fill="url(#paint6_radial_1_48)"/>
    <path d="M398.208 295.509L372.684 280.781L398.207 266.055L423.73 280.783L398.208 295.509Z" fill="url(#paint7_linear_1_48)"/>
    <path d="M398.208 324.963L372.684 310.235V280.782L398.208 295.509V324.963Z" fill="url(#paint8_radial_1_48)"/>
    <path d="M389.015 309.05L381.877 304.931V296.694L389.015 300.813V309.05Z" fill="white"/>
    <path d="M398.208 189.384L372.683 174.658L398.207 159.931L423.731 174.658L398.208 189.384Z" fill="#C22838"/>
    <path d="M398.208 180.264C397.872 180.264 397.538 180.179 397.238 180.005L371.714 165.277C371.114 164.93 370.743 164.29 370.743 163.599C370.743 162.907 371.114 162.264 371.714 161.919L397.237 147.193C397.837 146.846 398.577 146.846 399.177 147.193L424.702 161.919C425.302 162.266 425.672 162.907 425.672 163.599C425.672 164.29 425.303 164.931 424.702 165.277L399.178 180.005C398.878 180.179 398.543 180.264 398.208 180.264ZM376.564 163.599L398.208 176.086L419.85 163.599L398.207 151.112L376.564 163.599Z" fill="white"/>
    <path d="M423.731 152.091L398.208 166.818V137.365L423.731 122.637V152.091Z" fill="url(#paint9_radial_1_48)"/>
    <path d="M398.208 137.365L372.684 122.637L398.207 107.911L423.73 122.639L398.208 137.365Z" fill="url(#paint10_linear_1_48)"/>
    <path d="M398.208 166.818L372.684 152.091V122.637L398.208 137.365V166.818Z" fill="url(#paint11_radial_1_48)"/>
    <path d="M389.015 150.906L381.877 146.787V138.55L389.015 142.669V150.906Z" fill="white"/>
    <path d="M385.667 146.322L383.727 142.964L309.495 185.783L311.434 189.142L385.667 146.322Z" fill="white"/>
    <path d="M248.888 292.909L183.428 255.138C181.03 253.754 181.331 251.338 184.101 249.739L253.481 209.603C256.251 208.005 260.44 207.832 262.84 209.215L328.3 246.985C330.698 248.369 330.397 250.787 327.627 252.384L258.247 292.52C255.477 294.118 251.288 294.292 248.888 292.909Z" fill="#C22938"/>
    <path d="M252.962 280.497C251.093 280.497 249.294 280.106 247.918 279.312L182.458 241.543C180.812 240.592 179.868 239.124 179.868 237.519C179.868 235.705 181.057 233.979 183.129 232.784L252.508 192.65C255.866 190.712 260.828 190.54 263.809 192.26L329.269 230.029C330.915 230.98 331.859 232.445 331.859 234.053C331.859 235.866 330.67 237.593 328.597 238.788L259.219 278.922C257.412 279.966 255.14 280.497 252.962 280.497ZM249.858 275.954C251.656 276.991 255.122 276.81 257.277 275.565L326.655 235.431C327.625 234.87 327.978 234.301 327.978 234.053C327.978 233.908 327.776 233.648 327.329 233.387L261.869 195.618C260.071 194.58 256.605 194.762 254.45 196.006L185.072 236.14C184.102 236.701 183.749 237.271 183.749 237.519C183.749 237.662 183.95 237.924 184.399 238.185L249.858 275.954Z" fill="white"/>
    <path d="M253.614 94.0992C253.614 94.0992 217.675 97.5206 196.03 99.1816L253.441 262.586L329.38 218.814C329.392 218.807 329.404 218.798 329.416 218.792L329.552 218.715L329.549 218.708C330.499 218.11 331.101 216.804 331.101 214.963V55.2481C331.101 53.5611 330.594 51.7454 329.781 50.1499L253.614 94.0992Z" fill="url(#paint12_radial_1_48)"/>
    <path d="M326.398 46.2689L259.616 7.73623C258.454 7.06664 257.393 7.01808 256.573 7.47314L180.33 51.4315L183.923 64.7183L203.039 119.129L206.639 121.206L329.786 50.1499C328.929 48.4708 327.728 47.0368 326.398 46.2689Z" fill="url(#paint13_linear_1_48)"/>
    <path d="M250.21 262.439L183.427 223.906C180.83 222.407 178.725 218.386 178.725 214.926V55.2108C178.725 51.75 180.83 50.159 183.427 51.6585L250.21 90.1923C252.807 91.6907 254.912 95.7105 254.912 99.1714V258.887C254.912 262.347 252.807 263.937 250.21 262.439Z" fill="#6B2C33"/>
    <path d="M251.64 89.3894L184.858 50.8556C183.354 49.9884 182.018 50.1612 181.158 51.1277C181.832 51.0216 182.604 51.1842 183.427 51.6584L250.21 90.1923C252.807 91.6907 254.912 95.7105 254.912 99.1714V258.887C254.912 260.344 254.535 261.465 253.908 262.167C255.358 261.938 256.342 260.449 256.342 258.084V98.3685C256.344 94.9077 254.238 90.8878 251.64 89.3894Z" fill="white"/>
    <path d="M246.008 252.825L187.627 219.139C185.356 217.83 183.515 214.316 183.515 211.289V62.9592C183.515 59.933 185.356 58.543 187.627 59.8529L246.008 93.5381C248.279 94.8479 250.119 98.363 250.119 101.388V249.718C250.119 252.743 248.279 254.134 246.008 252.825Z" fill="url(#paint14_linear_1_48)"/>
    <path d="M246.008 252.825L187.627 219.139C185.356 217.83 183.515 214.316 183.515 211.289V62.9592C183.515 59.933 185.356 58.543 187.627 59.8529L246.008 93.5381C248.279 94.8479 250.119 98.363 250.119 101.388V249.718C250.119 252.743 248.279 254.134 246.008 252.825Z" fill="url(#paint15_linear_1_48)"/>
    <path d="M246.008 252.825L187.627 219.139C185.356 217.83 183.515 214.316 183.515 211.289V62.9592C183.515 59.933 185.356 58.543 187.627 59.8529L246.008 93.5381C248.279 94.8479 250.119 98.363 250.119 101.388V249.718C250.119 252.743 248.279 254.134 246.008 252.825Z" fill="#303030"/>
    <path d="M247.916 251.702L189.535 218.017C187.264 216.707 185.424 213.193 185.424 210.167V61.8379C185.424 60.8058 185.642 59.9703 186.013 59.3616C184.545 59.3504 183.515 60.6974 183.515 62.9603V211.289C183.515 214.316 185.356 217.83 187.627 219.139L246.008 252.825C247.504 253.688 248.809 253.372 249.528 252.195C249.033 252.191 248.488 252.033 247.916 251.702Z" fill="#1C1C1C"/>
    <path d="M246.008 184.724L224.309 172.203L189.7 192.173L250.119 227.033V192.573C250.119 189.547 248.279 186.033 246.008 184.724Z" fill="#303030"/>
    <path d="M246.008 154.329L224.309 141.809L189.7 161.778L250.119 196.639V162.179C250.119 159.154 248.279 155.639 246.008 154.329Z" fill="#303030"/>
    <path d="M246.008 123.934L224.309 111.414L189.7 131.383L250.119 166.245V131.785C250.119 128.758 248.279 125.244 246.008 123.934Z" fill="#303030"/>
    <path d="M246.008 93.538L224.309 81.0178L189.7 100.987L250.119 135.849V101.389C250.119 98.3629 248.279 94.8478 246.008 93.538Z" fill="#303030"/>
    <path d="M246.008 93.5381L197.968 65.8206L189.7 70.5924L250.119 105.454V101.389C250.119 98.363 248.279 94.848 246.008 93.5381Z" fill="#303030"/>
    <path d="M250.119 105.453L189.7 70.5913V89.8029L250.119 124.665V105.453Z" fill="#565656"/>
    <path d="M250.119 135.848L189.7 100.986V120.198L250.119 155.059V135.848Z" fill="#565656"/>
    <path d="M250.119 166.243L189.7 131.382V150.593L250.119 185.454V166.243Z" fill="#565656"/>
    <path d="M250.119 196.639L189.7 161.777V180.987L250.119 215.849V196.639Z" fill="#565656"/>
    <path d="M250.119 227.033L189.7 192.172V211.382L250.119 246.244V227.033Z" fill="#565656"/>
    <path d="M244.79 117.818L199.282 91.5608C197.998 90.82 196.956 88.8304 196.956 87.1186V81.9742C196.956 80.2612 197.998 79.4753 199.282 80.2161L244.79 106.474C246.075 107.215 247.117 109.204 247.117 110.917V116.061C247.117 117.772 246.075 118.559 244.79 117.818Z" fill="#303030"/>
    <path opacity="0.3" d="M201.583 90.5749C200.297 89.833 199.255 87.8446 199.255 86.1316V80.9872C199.255 80.7128 199.29 80.4723 199.341 80.2476L199.281 80.2148C197.997 79.473 196.955 80.26 196.955 81.9729V87.1174C196.955 88.8292 197.997 90.8188 199.281 91.5595L244.789 117.817C245.868 118.439 246.767 117.974 247.03 116.799L201.583 90.5749Z" fill="black"/>
    <path d="M230.509 103.716L203.125 87.9146C202.673 87.6538 202.306 86.9537 202.306 86.3518C202.306 85.75 202.672 85.4733 203.125 85.733L230.509 101.535C230.961 101.795 231.329 102.495 231.329 103.097C231.329 103.7 230.963 103.977 230.509 103.716Z" fill="white"/>
    <path d="M244.79 148.026L199.282 121.768C197.998 121.028 196.956 119.038 196.956 117.326V112.182C196.956 110.469 197.998 109.683 199.282 110.424L244.79 136.681C246.075 137.423 247.117 139.411 247.117 141.124V146.269C247.117 147.98 246.075 148.767 244.79 148.026Z" fill="#303030"/>
    <path opacity="0.3" d="M201.583 120.782C200.297 120.041 199.255 118.052 199.255 116.339V111.195C199.255 110.92 199.29 110.68 199.341 110.456L199.281 110.422C197.997 109.68 196.955 110.468 196.955 112.18V117.325C196.955 119.038 197.997 121.026 199.281 121.767L244.789 148.025C245.868 148.647 246.767 148.182 247.03 147.006L201.583 120.782Z" fill="black"/>
    <path d="M230.509 133.924L203.125 118.122C202.673 117.862 202.306 117.161 202.306 116.559C202.306 115.958 202.672 115.681 203.125 115.942L230.509 131.743C230.961 132.003 231.329 132.704 231.329 133.306C231.329 133.908 230.963 134.184 230.509 133.924Z" fill="white"/>
    <path d="M244.79 178.514L199.282 152.257C197.998 151.515 196.956 149.526 196.956 147.815V142.669C196.956 140.957 197.998 140.17 199.282 140.911L244.79 167.169C246.075 167.91 247.117 169.899 247.117 171.611V176.756C247.117 178.468 246.075 179.255 244.79 178.514Z" fill="#303030"/>
    <path opacity="0.3" d="M201.583 151.272C200.297 150.53 199.255 148.542 199.255 146.829V141.684C199.255 141.41 199.29 141.17 199.341 140.946L199.281 140.912C197.997 140.17 196.955 140.957 196.955 142.67V147.815C196.955 149.526 197.997 151.515 199.281 152.257L244.789 178.514C245.868 179.137 246.767 178.671 247.03 177.496L201.583 151.272Z" fill="black"/>
    <path d="M230.509 164.414L203.125 148.612C202.673 148.351 202.306 147.651 202.306 147.049C202.306 146.446 202.672 146.17 203.125 146.43L230.509 162.232C230.961 162.493 231.329 163.193 231.329 163.795C231.329 164.398 230.963 164.674 230.509 164.414Z" fill="#D4ECFF"/>
    <path d="M244.79 209.284L199.283 183.026C197.998 182.286 196.956 180.296 196.956 178.584V173.44C196.956 171.727 197.998 170.941 199.283 171.682L244.79 197.939C246.076 198.681 247.117 200.669 247.117 202.382V207.528C247.117 209.239 246.076 210.026 244.79 209.284Z" fill="#303030"/>
    <path opacity="0.3" d="M201.583 182.042C200.297 181.3 199.255 179.311 199.255 177.598V172.454C199.255 172.18 199.29 171.939 199.341 171.715L199.281 171.682C197.997 170.94 196.955 171.727 196.955 173.44V178.584C196.955 180.296 197.997 182.286 199.281 183.026L244.789 209.284C245.868 209.907 246.767 209.442 247.03 208.265L201.583 182.042Z" fill="black"/>
    <path d="M230.509 195.184L203.125 179.383C202.673 179.123 202.306 178.422 202.306 177.82C202.306 177.218 202.672 176.94 203.125 177.201L230.509 193.003C230.961 193.262 231.329 193.963 231.329 194.565C231.329 195.167 230.963 195.444 230.509 195.184Z" fill="#DC2E3F"/>
    <path d="M244.79 239.445L199.282 213.188C197.998 212.446 196.956 210.457 196.956 208.744V203.599C196.956 201.887 197.998 201.1 199.282 201.841L244.79 228.099C246.075 228.84 247.117 230.83 247.117 232.541V237.687C247.117 239.4 246.075 240.186 244.79 239.445Z" fill="#303030"/>
    <path opacity="0.3" d="M201.583 212.202C200.297 211.461 199.255 209.471 199.255 207.76V202.614C199.255 202.341 199.29 202.099 199.341 201.875L199.281 201.842C197.997 201.101 196.955 201.888 196.955 203.6V208.745C196.955 210.458 197.997 212.446 199.281 213.189L244.789 239.446C245.868 240.069 246.767 239.604 247.03 238.428L201.583 212.202Z" fill="black"/>
    <path d="M230.509 225.344L203.125 209.544C202.673 209.283 202.306 208.583 202.306 207.981C202.306 207.378 202.672 207.101 203.125 207.362L230.509 223.162C230.961 223.423 231.329 224.123 231.329 224.725C231.329 225.328 230.963 225.605 230.509 225.344Z" fill="#D4ECFF"/>
    <path opacity="0.5" d="M189.7 70.5913L194.458 73.3374V92.5479L189.7 89.8029V70.5913Z" fill="#303030"/>
    <path opacity="0.5" d="M189.7 100.986L194.458 103.731V122.943L189.7 120.198V100.986Z" fill="#303030"/>
    <path opacity="0.5" d="M189.7 131.382L194.458 134.127V153.339L189.7 150.593V131.382Z" fill="#303030"/>
    <path opacity="0.5" d="M189.7 161.777L194.458 164.522V183.733L189.7 180.987V161.777Z" fill="#303030"/>
    <path opacity="0.5" d="M189.7 192.172L194.458 194.917V214.128L189.7 211.382V192.172Z" fill="#303030"/>
    <path d="M235.906 105.613C235.906 106.227 235.474 106.476 234.941 106.169C234.409 105.862 233.978 105.115 233.978 104.501C233.978 103.887 234.409 103.639 234.941 103.946C235.474 104.253 235.906 105 235.906 105.613Z" fill="#D4ECFF"/>
    <path d="M239.989 107.97C239.989 108.583 239.557 108.833 239.025 108.525C238.493 108.218 238.061 107.472 238.061 106.858C238.061 106.243 238.493 105.995 239.025 106.302C239.557 106.609 239.989 107.356 239.989 107.97Z" fill="#DC2E3F"/>
    <path d="M244.072 110.326C244.072 110.939 243.641 111.189 243.108 110.882C242.576 110.575 242.145 109.828 242.145 109.214C242.145 108.6 242.576 108.351 243.108 108.659C243.641 108.966 244.072 109.712 244.072 110.326Z" fill="#D4ECFF"/>
    <path d="M232.244 127.744C232.244 128.318 231.84 128.551 231.341 128.264C230.842 127.977 230.44 127.277 230.44 126.703C230.44 126.129 230.842 125.895 231.341 126.183C231.84 126.47 232.244 127.169 232.244 127.744Z" fill="#DC2E3F"/>
    <path d="M239.989 138.35C239.989 138.964 239.557 139.213 239.025 138.906C238.493 138.6 238.061 137.852 238.061 137.238C238.061 136.625 238.493 136.375 239.025 136.682C239.557 136.989 239.989 137.736 239.989 138.35Z" fill="#D4ECFF"/>
    <path d="M244.072 140.707C244.072 141.321 243.641 141.569 243.108 141.262C242.576 140.955 242.145 140.209 242.145 139.594C242.145 138.98 242.576 138.732 243.108 139.039C243.641 139.346 244.072 140.092 244.072 140.707Z" fill="white"/>
    <path d="M235.906 166.603C235.906 167.217 235.474 167.465 234.941 167.158C234.409 166.851 233.978 166.105 233.978 165.49C233.978 164.876 234.409 164.628 234.941 164.935C235.474 165.242 235.906 165.988 235.906 166.603Z" fill="white"/>
    <path d="M239.989 168.474C239.989 169.088 239.557 169.336 239.025 169.029C238.493 168.722 238.061 167.976 238.061 167.361C238.061 166.747 238.493 166.499 239.025 166.806C239.557 167.113 239.989 167.859 239.989 168.474Z" fill="#DC2E3F"/>
    <path d="M244.072 171.316C244.072 171.929 243.641 172.178 243.108 171.871C242.576 171.564 242.145 170.818 242.145 170.204C242.145 169.589 242.576 169.341 243.108 169.648C243.641 169.955 244.072 170.702 244.072 171.316Z" fill="white"/>
    <path d="M235.906 196.766C235.906 197.379 235.474 197.629 234.941 197.322C234.409 197.014 233.978 196.267 233.978 195.654C233.978 195.04 234.409 194.79 234.941 195.098C235.474 195.405 235.906 196.152 235.906 196.766Z" fill="white"/>
    <path d="M239.989 199.123C239.989 199.736 239.557 199.985 239.025 199.678C238.493 199.371 238.061 198.624 238.061 198.01C238.061 197.396 238.493 197.147 239.025 197.455C239.557 197.762 239.989 198.508 239.989 199.123Z" fill="#D4ECFF"/>
    <path d="M244.072 201.479C244.072 202.092 243.641 202.342 243.108 202.035C242.576 201.728 242.145 200.98 242.145 200.366C242.145 199.753 242.576 199.503 243.108 199.81C243.641 200.118 244.072 200.865 244.072 201.479Z" fill="#D4ECFF"/>
    <path d="M235.906 227.34C235.906 227.955 235.474 228.203 234.941 227.896C234.409 227.59 233.978 226.841 233.978 226.228C233.978 225.614 234.409 225.364 234.941 225.673C235.474 225.98 235.906 226.726 235.906 227.34Z" fill="white"/>
    <path d="M239.989 229.697C239.989 230.311 239.557 230.56 239.025 230.253C238.493 229.946 238.061 229.198 238.061 228.585C238.061 227.971 238.493 227.721 239.025 228.029C239.557 228.337 239.989 229.083 239.989 229.697Z" fill="#DC2E3F"/>
    <path d="M244.072 232.054C244.072 232.667 243.641 232.916 243.108 232.609C242.576 232.302 242.145 231.555 242.145 230.941C242.145 230.327 242.576 230.078 243.108 230.386C243.641 230.693 244.072 231.439 244.072 232.054Z" fill="#D4ECFF"/>
    <path d="M264.97 240.85V104.851L265.251 104.69L322.124 71.874V207.873L321.843 208.035L264.97 240.85ZM266.097 105.502V238.9L320.997 207.221V73.8241L266.097 105.502Z" fill="#303030"/>
    <path d="M307.351 133.064L281.85 147.778C280.136 148.766 278.748 147.717 278.748 145.435V131.305C278.748 129.023 280.136 126.371 281.85 125.383L307.351 110.668C309.064 109.68 310.452 110.729 310.452 113.011V127.142C310.452 129.424 309.064 132.076 307.351 133.064Z" fill="#303030"/>
    <path d="M307.969 110.394C308.115 110.789 308.199 111.262 308.199 111.811V125.942C308.199 128.224 306.811 130.876 305.098 131.864L279.597 146.578C279.385 146.7 279.178 146.79 278.979 146.853C279.438 148.1 280.55 148.529 281.85 147.778L307.351 133.065C309.064 132.076 310.451 129.425 310.451 127.142V113.012C310.451 111.011 309.386 109.958 307.969 110.394Z" fill="#474747"/>
    <path d="M302.693 124.554C303.165 124.282 303.547 124.503 303.547 125.046V128.265C303.547 128.81 303.165 129.47 302.693 129.743C302.22 130.017 301.838 129.795 301.838 129.251V126.032C301.838 125.488 302.22 124.826 302.693 124.554Z" fill="white"/>
    <path d="M299.034 127.067C299.506 126.795 299.888 127.017 299.888 127.56V130.376C299.888 130.92 299.506 131.582 299.034 131.854C298.564 132.126 298.181 131.906 298.181 131.362V128.545C298.181 128.001 298.564 127.339 299.034 127.067Z" fill="#D4ECFF"/>
    <path d="M295.376 126.035C295.847 125.763 296.23 125.983 296.23 126.527V132.486C296.23 133.03 295.847 133.691 295.376 133.963C294.905 134.235 294.523 134.015 294.523 133.471V127.513C294.524 126.969 294.905 126.307 295.376 126.035Z" fill="#DC2E3F"/>
    <path d="M291.718 124.713C292.189 124.441 292.571 124.662 292.571 125.206V134.599C292.571 135.143 292.189 135.805 291.718 136.077C291.246 136.349 290.864 136.129 290.864 135.584V126.192C290.864 125.647 291.246 124.985 291.718 124.713Z" fill="#D4ECFF"/>
    <path d="M288.06 127.808C288.532 127.536 288.914 127.757 288.914 128.3V136.708C288.914 137.251 288.532 137.913 288.06 138.185C287.589 138.457 287.206 138.237 287.206 137.693V129.285C287.206 128.742 287.589 128.08 288.06 127.808Z" fill="#D4ECFF"/>
    <path d="M284.402 133.761C284.874 133.489 285.255 133.709 285.255 134.253V138.82C285.255 139.364 284.874 140.024 284.402 140.298C283.93 140.57 283.548 140.35 283.548 139.804V135.239C283.548 134.694 283.93 134.032 284.402 133.761Z" fill="white"/>
    <path d="M301.853 122.928C301.853 123.463 302.229 123.68 302.693 123.412C303.156 123.145 303.532 122.494 303.532 121.959C303.532 121.424 303.156 121.207 302.693 121.475C302.229 121.742 301.853 122.393 301.853 122.928Z" fill="#DC2E3F"/>
    <path d="M301.853 119.903C301.853 120.438 302.229 120.655 302.693 120.387C303.156 120.12 303.532 119.469 303.532 118.934C303.532 118.399 303.156 118.182 302.693 118.45C302.229 118.717 301.853 119.368 301.853 119.903Z" fill="white"/>
    <path d="M399.747 46.8989H395.865V122.14H399.747V46.8989Z" fill="white"/>
    <path d="M250.576 361.906L211.582 339.408C209.189 338.025 209.488 335.615 212.252 334.02L249.903 312.295C252.667 310.701 256.848 310.528 259.241 311.909L298.235 334.408C300.627 335.79 300.328 338.2 297.564 339.795L259.913 361.519C257.149 363.113 252.969 363.287 250.576 361.906Z" fill="#C22838"/>
    <path d="M254.652 352.751C252.745 352.751 250.908 352.341 249.47 351.51H249.468L210.475 329.011C208.745 328.012 207.753 326.461 207.752 324.753C207.752 322.843 208.989 321.034 211.145 319.789L248.796 298.065C252.279 296.054 257.245 295.887 260.348 297.679L299.344 320.179C301.073 321.176 302.065 322.729 302.065 324.434C302.065 326.344 300.828 328.154 298.671 329.397L261.021 351.123C259.151 352.201 256.857 352.751 254.652 352.751ZM251.683 347.678C253.404 348.668 256.73 348.488 258.806 347.289L296.457 325.564C297.404 325.02 297.631 324.525 297.636 324.433C297.623 324.405 297.496 324.223 297.129 324.01L258.133 301.511C256.415 300.519 253.088 300.7 251.011 301.898L213.36 323.623C212.414 324.167 212.188 324.662 212.182 324.754C212.196 324.781 212.322 324.964 212.689 325.177L251.683 347.678Z" fill="white"/>
    <path d="M299.839 310.648V297.202L269.669 297.185L259.242 291.167C256.849 289.786 252.669 289.96 249.905 291.555L240.176 297.169L209.98 297.152V310.981C209.911 311.915 210.433 312.817 211.583 313.481L250.577 335.979C252.97 337.361 257.15 337.188 259.914 335.593L297.565 313.868C299.158 312.948 299.928 311.757 299.839 310.648Z" fill="#303030"/>
    <path d="M254.909 290.243C253.157 290.284 251.339 290.726 249.903 291.554L240.175 297.168L209.979 297.151V310.98C209.91 311.914 210.432 312.816 211.582 313.48L250.576 335.978C251.726 336.642 253.288 336.943 254.909 336.903V290.243Z" fill="url(#paint16_radial_1_48)"/>
    <path d="M213.397 297.152L209.98 297.151V310.98C209.911 311.914 210.433 312.816 211.583 313.48L213.397 314.526V297.152Z" fill="#B8B8B8"/>
    <path d="M251.176 336.273C253.24 337.156 256.226 337.107 258.639 336.188V320.487H251.176V336.273Z" fill="#5C5C5C"/>
    <path d="M250.576 322.2L211.582 299.701C209.189 298.32 209.488 295.909 212.252 294.313L249.903 272.588C252.667 270.994 256.848 270.821 259.241 272.202L298.235 294.701C300.627 296.082 300.328 298.493 297.564 300.088L259.913 321.812C257.149 323.407 252.969 323.581 250.576 322.2Z" fill="url(#paint17_linear_1_48)"/>
    <path d="M297.564 297.442L259.913 319.166C257.15 320.761 252.969 320.934 250.576 319.553L211.582 297.055C211.048 296.747 210.657 296.385 210.388 295.996C209.564 297.318 209.938 298.752 211.582 299.701L250.576 322.2C252.969 323.581 257.149 323.407 259.913 321.813L297.564 300.089C299.711 298.849 300.364 297.119 299.428 295.76C299.053 296.363 298.431 296.943 297.564 297.442Z" fill="white"/>
    <path d="M285.495 314.195C285.495 315.199 284.79 316.42 283.92 316.921C283.049 317.423 282.344 317.016 282.344 316.012C282.344 315.008 283.049 313.788 283.92 313.286C284.79 312.785 285.495 313.192 285.495 314.195Z" fill="#DEDEDE"/>
    <path d="M290.564 311.271C290.564 312.276 289.859 313.497 288.987 313.998C288.117 314.499 287.412 314.093 287.412 313.089C287.412 312.084 288.117 310.864 288.987 310.362C289.859 309.861 290.564 310.268 290.564 311.271Z" fill="#DEDEDE"/>
    <path d="M295.63 308.348C295.63 309.351 294.925 310.572 294.055 311.073C293.185 311.575 292.479 311.168 292.479 310.164C292.479 309.161 293.185 307.94 294.055 307.439C294.925 306.937 295.63 307.345 295.63 308.348Z" fill="#DEDEDE"/>
    <path d="M252.882 308.251L234.635 297.722C233.515 297.076 233.655 295.948 234.948 295.202L252.568 285.036C253.861 284.29 255.817 284.208 256.937 284.854L275.183 295.383C276.303 296.029 276.162 297.158 274.87 297.904L257.251 308.07C255.958 308.816 254.001 308.898 252.882 308.251Z" fill="#3F3F3F"/>
    <path d="M254.629 299.436L252.104 297.98C251.948 297.889 251.969 297.734 252.147 297.63L254.586 296.224C254.764 296.12 255.034 296.109 255.19 296.199L257.714 297.656C257.869 297.745 257.849 297.902 257.67 298.005L255.233 299.411C255.054 299.514 254.784 299.526 254.629 299.436Z" fill="#B8B8B8"/>
    <path d="M234.635 297.722L234.686 297.752C234.771 297.691 234.85 297.629 234.947 297.572L252.568 287.405C253.861 286.66 255.817 286.579 256.937 287.224L275.132 297.723C276.165 296.985 276.219 295.98 275.184 295.383L256.938 284.854C255.818 284.208 253.861 284.29 252.569 285.036L234.949 295.202C233.655 295.948 233.515 297.076 234.635 297.722Z" fill="#303030"/>
    <path d="M393.134 261.303L354.261 238.875C351.876 237.497 352.174 235.094 354.929 233.504L392.464 211.846C395.219 210.257 399.387 210.085 401.772 211.461L440.646 233.89C443.031 235.268 442.732 237.671 439.977 239.261L402.442 260.917C399.687 262.507 395.52 262.68 393.134 261.303Z" fill="#C22838"/>
    <path d="M397.198 252.177C395.297 252.177 393.465 251.768 392.031 250.94H392.03L353.158 228.511C351.433 227.515 350.444 225.968 350.443 224.266C350.443 222.361 351.676 220.558 353.826 219.317L391.36 197.661C394.833 195.656 399.783 195.489 402.876 197.276L441.751 219.706C443.475 220.7 444.464 222.248 444.464 223.947C444.464 225.852 443.231 227.656 441.081 228.896L403.547 250.553C401.683 251.628 399.396 252.177 397.198 252.177ZM394.238 247.119C395.953 248.106 399.269 247.927 401.339 246.732L438.873 225.074C439.817 224.531 440.043 224.038 440.049 223.946C440.036 223.919 439.909 223.737 439.543 223.525L400.668 201.095C398.955 200.107 395.639 200.287 393.568 201.481L356.034 223.139C355.09 223.682 354.865 224.175 354.86 224.267C354.873 224.294 354.999 224.476 355.365 224.688L394.238 247.119Z" fill="white"/>
    <path d="M442.244 210.204V196.8L412.168 196.783L401.773 190.784C399.388 189.407 395.221 189.581 392.465 191.17L382.767 196.767L352.664 196.75V210.536C352.596 211.467 353.116 212.366 354.263 213.028L393.135 235.457C395.521 236.835 399.688 236.662 402.443 235.072L439.978 213.414C441.566 212.497 442.333 211.309 442.244 210.204Z" fill="#303030"/>
    <path d="M397.454 189.862C395.708 189.904 393.896 190.344 392.464 191.169L382.766 196.766L352.663 196.749V210.535C352.594 211.466 353.115 212.365 354.261 213.027L393.134 235.456C394.281 236.118 395.839 236.417 397.454 236.378V189.862Z" fill="url(#paint18_radial_1_48)"/>
    <path d="M356.07 196.75L352.664 196.749V210.535C352.596 211.466 353.116 212.365 354.263 213.027L356.07 214.07V196.75Z" fill="#B8B8B8"/>
    <path d="M393.732 235.75C395.79 236.63 398.767 236.582 401.173 235.665V220.013H393.732V235.75Z" fill="#5C5C5C"/>
    <path d="M393.134 221.721L354.261 199.291C351.876 197.914 352.174 195.511 354.929 193.92L392.464 172.262C395.219 170.673 399.387 170.501 401.772 171.877L440.646 194.306C443.031 195.683 442.732 198.087 439.977 199.677L402.442 221.333C399.687 222.924 395.52 223.097 393.134 221.721Z" fill="url(#paint19_linear_1_48)"/>
    <path d="M439.977 197.039L402.442 218.696C399.688 220.285 395.52 220.459 393.134 219.082L354.261 196.653C353.729 196.346 353.339 195.986 353.071 195.597C352.25 196.915 352.623 198.345 354.261 199.291L393.134 221.721C395.52 223.097 399.687 222.924 402.442 221.334L439.977 199.678C442.117 198.442 442.768 196.717 441.836 195.362C441.462 195.963 440.841 196.542 439.977 197.039Z" fill="white"/>
    <path d="M427.945 213.741C427.945 214.742 427.242 215.959 426.375 216.458C425.507 216.958 424.804 216.553 424.804 215.552C424.804 214.552 425.507 213.335 426.375 212.835C427.242 212.335 427.945 212.74 427.945 213.741Z" fill="#DEDEDE"/>
    <path d="M432.998 210.826C432.998 211.827 432.295 213.044 431.427 213.544C430.56 214.044 429.857 213.639 429.857 212.638C429.857 211.636 430.56 210.42 431.427 209.919C432.295 209.42 432.998 209.826 432.998 210.826Z" fill="#DEDEDE"/>
    <path d="M438.049 207.911C438.049 208.912 437.346 210.129 436.478 210.628C435.611 211.128 434.907 210.723 434.907 209.722C434.907 208.721 435.611 207.505 436.478 207.005C437.346 206.505 438.049 206.911 438.049 207.911Z" fill="#DEDEDE"/>
    <path d="M395.433 207.814L377.242 197.318C376.126 196.675 376.266 195.55 377.554 194.806L395.12 184.672C396.41 183.928 398.359 183.847 399.476 184.49L417.665 194.986C418.781 195.63 418.642 196.756 417.353 197.5L399.789 207.634C398.5 208.378 396.549 208.459 395.433 207.814Z" fill="#3F3F3F"/>
    <path d="M397.174 199.027L394.658 197.575C394.503 197.485 394.523 197.33 394.701 197.226L397.132 195.825C397.31 195.721 397.579 195.71 397.734 195.8L400.251 197.252C400.405 197.341 400.385 197.497 400.207 197.6L397.777 199.002C397.599 199.105 397.33 199.116 397.174 199.027Z" fill="#B8B8B8"/>
    <path d="M377.242 197.318L377.294 197.348C377.379 197.287 377.458 197.225 377.554 197.169L395.12 187.033C396.41 186.29 398.359 186.209 399.476 186.853L417.614 197.32C418.644 196.583 418.698 195.582 417.666 194.986L399.477 184.49C398.361 183.847 396.41 183.928 395.121 184.672L377.556 194.806C376.266 195.55 376.126 196.675 377.242 197.318Z" fill="#303030"/>
    <path d="M106.797 261.303L67.9238 238.875C65.5382 237.497 65.8366 235.094 68.5917 233.504L106.126 211.846C108.881 210.257 113.049 210.085 115.435 211.461L154.308 233.89C156.693 235.268 156.394 237.671 153.639 239.261L116.105 260.917C113.35 262.507 109.182 262.68 106.797 261.303Z" fill="#C22838"/>
    <path d="M110.86 252.177C108.959 252.177 107.128 251.768 105.694 250.94H105.693L66.82 228.511C65.0955 227.515 64.1066 225.968 64.1055 224.266C64.1055 222.361 65.3388 220.558 67.4879 219.317L105.023 197.661C108.495 195.656 113.445 195.489 116.538 197.276L155.413 219.706C157.138 220.7 158.127 222.248 158.127 223.947C158.127 225.852 156.893 227.656 154.743 228.896L117.21 250.553C115.346 251.628 113.058 252.177 110.86 252.177ZM107.9 247.119C109.616 248.106 112.932 247.927 115.001 246.732L152.536 225.074C153.479 224.531 153.706 224.038 153.711 223.946C153.698 223.919 153.572 223.737 153.206 223.525L114.331 201.095C112.618 200.107 109.302 200.287 107.23 201.481L69.6967 223.139C68.7528 223.682 68.5276 224.175 68.5219 224.267C68.5354 224.294 68.6616 224.476 69.0276 224.688L107.9 247.119Z" fill="white"/>
    <path d="M155.907 210.204V196.8L125.831 196.783L115.436 190.784C113.05 189.407 108.884 189.581 106.128 191.17L96.4296 196.767L66.3267 196.75V210.536C66.258 211.467 66.7783 212.366 67.925 213.028L106.798 235.457C109.183 236.835 113.351 236.662 116.106 235.072L153.641 213.414C155.229 212.497 155.996 211.309 155.907 210.204Z" fill="#303030"/>
    <path d="M111.116 189.862C109.37 189.904 107.558 190.344 106.126 191.169L96.4284 196.766L66.3255 196.749V210.535C66.2568 211.466 66.7772 212.365 67.9238 213.027L106.797 235.456C107.943 236.118 109.501 236.417 111.116 236.378V189.862Z" fill="url(#paint20_radial_1_48)"/>
    <path d="M69.7328 196.75L66.3267 196.749V210.535C66.258 211.466 66.7783 212.365 67.925 213.027L69.7328 214.07V196.75Z" fill="#B8B8B8"/>
    <path d="M107.395 235.75C109.453 236.63 112.429 236.582 114.835 235.665V220.013H107.395V235.75Z" fill="#5C5C5C"/>
    <path d="M106.797 221.721L67.9238 199.291C65.5382 197.914 65.8366 195.511 68.5917 193.92L106.126 172.262C108.881 170.673 113.049 170.501 115.435 171.877L154.308 194.306C156.693 195.683 156.394 198.087 153.639 199.677L116.105 221.333C113.35 222.924 109.182 223.097 106.797 221.721Z" fill="url(#paint21_linear_1_48)"/>
    <path d="M153.639 197.039L116.105 218.696C113.351 220.285 109.182 220.459 106.797 219.082L67.9239 196.653C67.3911 196.346 67.0014 195.986 66.7333 195.597C65.9122 196.915 66.285 198.345 67.9239 199.291L106.797 221.721C109.182 223.097 113.35 222.924 116.105 221.334L153.639 199.678C155.78 198.442 156.431 196.717 155.498 195.362C155.124 195.963 154.503 196.542 153.639 197.039Z" fill="white"/>
    <path d="M141.608 213.741C141.608 214.742 140.905 215.959 140.038 216.458C139.169 216.958 138.466 216.553 138.466 215.552C138.466 214.552 139.169 213.335 140.038 212.835C140.905 212.335 141.608 212.74 141.608 213.741Z" fill="#DEDEDE"/>
    <path d="M146.661 210.826C146.661 211.827 145.958 213.044 145.089 213.544C144.222 214.044 143.519 213.639 143.519 212.638C143.519 211.636 144.222 210.42 145.089 209.919C145.958 209.42 146.661 209.826 146.661 210.826Z" fill="#DEDEDE"/>
    <path d="M151.711 207.911C151.711 208.912 151.008 210.129 150.141 210.628C149.274 211.128 148.57 210.723 148.57 209.722C148.57 208.721 149.274 207.505 150.141 207.005C151.008 206.505 151.711 206.911 151.711 207.911Z" fill="#DEDEDE"/>
    <path d="M109.095 207.814L90.9048 197.318C89.7886 196.675 89.9283 195.55 91.2169 194.806L108.782 184.672C110.072 183.928 112.022 183.847 113.138 184.49L131.328 194.986C132.444 195.63 132.304 196.756 131.015 197.5L113.451 207.634C112.163 208.378 110.212 208.459 109.095 207.814Z" fill="#3F3F3F"/>
    <path d="M110.837 199.027L108.321 197.575C108.165 197.485 108.185 197.33 108.363 197.226L110.794 195.825C110.972 195.721 111.241 195.71 111.397 195.8L113.913 197.252C114.067 197.341 114.047 197.497 113.869 197.6L111.439 199.002C111.261 199.105 110.992 199.116 110.837 199.027Z" fill="#B8B8B8"/>
    <path d="M90.9049 197.318L90.9567 197.348C91.0412 197.287 91.12 197.225 91.2169 197.169L108.782 187.033C110.072 186.29 112.022 186.209 113.138 186.853L131.277 197.32C132.306 196.583 132.36 195.582 131.329 194.986L113.139 184.49C112.023 183.847 110.072 183.928 108.784 184.672L91.218 194.806C89.9283 195.55 89.7886 196.675 90.9049 197.318Z" fill="#303030"/>
    <defs>
        <radialGradient id="paint0_radial_1_48" cx="0" cy="0" r="1" gradientUnits="userSpaceOnUse" gradientTransform="translate(109.603 294.578) scale(38.0409 38.0176)">
            <stop stop-color="#3D3D3D"/>
            <stop offset="1" stop-color="#303030"/>
        </radialGradient>
        <linearGradient id="paint1_linear_1_48" x1="93.1879" y1="269.563" x2="137.019" y2="295.709" gradientUnits="userSpaceOnUse">
            <stop stop-color="#BBBBBB"/>
            <stop offset="0.2009" stop-color="#A7A7A7"/>
            <stop offset="0.3874" stop-color="#878787"/>
            <stop offset="0.5682" stop-color="#747474"/>
            <stop offset="0.7444" stop-color="#585858"/>
            <stop offset="0.8423" stop-color="#606060"/>
        </linearGradient>
        <radialGradient id="paint2_radial_1_48" cx="0" cy="0" r="1" gradientUnits="userSpaceOnUse" gradientTransform="translate(54.912 255.236) scale(68.763 68.7208)">
            <stop stop-color="#4F4F4F"/>
            <stop offset="0.2662" stop-color="#616161"/>
            <stop offset="0.6412" stop-color="#939393"/>
            <stop offset="1" stop-color="#5A5A5A"/>
        </radialGradient>
        <radialGradient id="paint3_radial_1_48" cx="0" cy="0" r="1" gradientUnits="userSpaceOnUse" gradientTransform="translate(109.603 136.434) scale(38.0409 38.0176)">
            <stop stop-color="#3D3D3D"/>
            <stop offset="1" stop-color="#303030"/>
        </radialGradient>
        <linearGradient id="paint4_linear_1_48" x1="93.1879" y1="111.419" x2="137.019" y2="137.565" gradientUnits="userSpaceOnUse">
            <stop stop-color="#BBBBBB"/>
            <stop offset="0.2009" stop-color="#A7A7A7"/>
            <stop offset="0.3874" stop-color="#878787"/>
            <stop offset="0.5682" stop-color="#747474"/>
            <stop offset="0.7444" stop-color="#585858"/>
            <stop offset="0.8423" stop-color="#606060"/>
        </linearGradient>
        <radialGradient id="paint5_radial_1_48" cx="0" cy="0" r="1" gradientUnits="userSpaceOnUse" gradientTransform="translate(54.912 97.0916) scale(68.763 68.7208)">
            <stop stop-color="#4F4F4F"/>
            <stop offset="0.2662" stop-color="#616161"/>
            <stop offset="0.6412" stop-color="#939393"/>
            <stop offset="1" stop-color="#5A5A5A"/>
        </radialGradient>
        <radialGradient id="paint6_radial_1_48" cx="0" cy="0" r="1" gradientUnits="userSpaceOnUse" gradientTransform="translate(395.793 294.578) scale(38.0409 38.0176)">
            <stop stop-color="#3D3D3D"/>
            <stop offset="1" stop-color="#303030"/>
        </radialGradient>
        <linearGradient id="paint7_linear_1_48" x1="379.378" y1="269.563" x2="423.209" y2="295.709" gradientUnits="userSpaceOnUse">
            <stop stop-color="#BBBBBB"/>
            <stop offset="0.2009" stop-color="#A7A7A7"/>
            <stop offset="0.3874" stop-color="#878787"/>
            <stop offset="0.5682" stop-color="#747474"/>
            <stop offset="0.7444" stop-color="#585858"/>
            <stop offset="0.8423" stop-color="#606060"/>
        </linearGradient>
        <radialGradient id="paint8_radial_1_48" cx="0" cy="0" r="1" gradientUnits="userSpaceOnUse" gradientTransform="translate(341.102 255.236) scale(68.763 68.7208)">
            <stop stop-color="#4F4F4F"/>
            <stop offset="0.2662" stop-color="#616161"/>
            <stop offset="0.6412" stop-color="#939393"/>
            <stop offset="1" stop-color="#5A5A5A"/>
        </radialGradient>
        <radialGradient id="paint9_radial_1_48" cx="0" cy="0" r="1" gradientUnits="userSpaceOnUse" gradientTransform="translate(395.793 136.434) scale(38.0409 38.0176)">
            <stop stop-color="#3D3D3D"/>
            <stop offset="1" stop-color="#303030"/>
        </radialGradient>
        <linearGradient id="paint10_linear_1_48" x1="379.378" y1="111.419" x2="423.209" y2="137.565" gradientUnits="userSpaceOnUse">
            <stop stop-color="#BBBBBB"/>
            <stop offset="0.2009" stop-color="#A7A7A7"/>
            <stop offset="0.3874" stop-color="#878787"/>
            <stop offset="0.5682" stop-color="#747474"/>
            <stop offset="0.7444" stop-color="#585858"/>
            <stop offset="0.8423" stop-color="#606060"/>
        </linearGradient>
        <radialGradient id="paint11_radial_1_48" cx="0" cy="0" r="1" gradientUnits="userSpaceOnUse" gradientTransform="translate(341.102 97.0916) scale(68.763 68.7208)">
            <stop stop-color="#4F4F4F"/>
            <stop offset="0.2662" stop-color="#616161"/>
            <stop offset="0.6412" stop-color="#939393"/>
            <stop offset="1" stop-color="#5A5A5A"/>
        </radialGradient>
        <radialGradient id="paint12_radial_1_48" cx="0" cy="0" r="1" gradientUnits="userSpaceOnUse" gradientTransform="translate(227.694 130.981) scale(136.878 136.794)">
            <stop stop-color="#C22838"/>
            <stop offset="1" stop-color="#303030"/>
        </radialGradient>
        <linearGradient id="paint13_linear_1_48" x1="199.928" y1="20.7553" x2="344.502" y2="85.9789" gradientUnits="userSpaceOnUse">
            <stop stop-color="#BBBBBB"/>
            <stop offset="0.2009" stop-color="#A7A7A7"/>
            <stop offset="0.3874" stop-color="#878787"/>
            <stop offset="0.5682" stop-color="#747474"/>
            <stop offset="0.7444" stop-color="#585858"/>
            <stop offset="0.8423" stop-color="#606060"/>
        </linearGradient>
        <linearGradient id="paint14_linear_1_48" x1="180.942" y1="146.469" x2="241.675" y2="137.065" gradientUnits="userSpaceOnUse">
            <stop stop-color="#3919BB"/>
            <stop offset="1" stop-color="#6507FA"/>
        </linearGradient>
        <linearGradient id="paint15_linear_1_48" x1="180.942" y1="146.469" x2="241.675" y2="137.065" gradientUnits="userSpaceOnUse">
            <stop stop-color="#3919BB"/>
            <stop offset="1" stop-color="#6507FA"/>
        </linearGradient>
        <radialGradient id="paint16_radial_1_48" cx="0" cy="0" r="1" gradientUnits="userSpaceOnUse" gradientTransform="translate(212.45 293.239) scale(49.2862 49.256)">
            <stop stop-color="#515151"/>
            <stop offset="0.2662" stop-color="#4E4E4E"/>
            <stop offset="0.6412" stop-color="#404040"/>
            <stop offset="1" stop-color="#3B3B3B"/>
        </radialGradient>
        <linearGradient id="paint17_linear_1_48" x1="221.752" y1="277.446" x2="298.931" y2="323.487" gradientUnits="userSpaceOnUse">
            <stop stop-color="#777777"/>
            <stop offset="0.2009" stop-color="#929292"/>
            <stop offset="0.3874" stop-color="#757575"/>
            <stop offset="0.5682" stop-color="#545454"/>
            <stop offset="0.7444" stop-color="#404040"/>
            <stop offset="0.8423" stop-color="#3A3A3A"/>
        </linearGradient>
        <radialGradient id="paint18_radial_1_48" cx="0" cy="0" r="1" gradientUnits="userSpaceOnUse" gradientTransform="translate(355.126 192.849) scale(49.1335 49.1034)">
            <stop stop-color="#515151"/>
            <stop offset="0.2662" stop-color="#4E4E4E"/>
            <stop offset="0.6412" stop-color="#404040"/>
            <stop offset="1" stop-color="#3B3B3B"/>
        </radialGradient>
        <linearGradient id="paint19_linear_1_48" x1="364.4" y1="177.105" x2="441.339" y2="223.004" gradientUnits="userSpaceOnUse">
            <stop stop-color="#777777"/>
            <stop offset="0.2009" stop-color="#929292"/>
            <stop offset="0.3874" stop-color="#757575"/>
            <stop offset="0.5682" stop-color="#545454"/>
            <stop offset="0.7444" stop-color="#404040"/>
            <stop offset="0.8423" stop-color="#3A3A3A"/>
        </linearGradient>
        <radialGradient id="paint20_radial_1_48" cx="0" cy="0" r="1" gradientUnits="userSpaceOnUse" gradientTransform="translate(68.7889 192.849) scale(49.1335 49.1034)">
            <stop stop-color="#515151"/>
            <stop offset="0.2662" stop-color="#4E4E4E"/>
            <stop offset="0.6412" stop-color="#404040"/>
            <stop offset="1" stop-color="#3B3B3B"/>
        </radialGradient>
        <linearGradient id="paint21_linear_1_48" x1="78.0626" y1="177.105" x2="155.002" y2="223.004" gradientUnits="userSpaceOnUse">
            <stop stop-color="#777777"/>
            <stop offset="0.2009" stop-color="#929292"/>
            <stop offset="0.3874" stop-color="#757575"/>
            <stop offset="0.5682" stop-color="#545454"/>
            <stop offset="0.7444" stop-color="#404040"/>
            <stop offset="0.8423" stop-color="#3A3A3A"/>
        </linearGradient>
    </defs>
</svg>
