<svg width="118" height="147" viewBox="0 0 118 147" fill="none" xmlns="http://www.w3.org/2000/svg">
    <path opacity="0.7" d="M47.5 129C46.7561 129 46.0132 128.808 45.3505 128.428L0.440784 102.593C0.164647 102.434 0 102.151 0 101.832C0 101.515 0.164647 101.231 0.440784 101.072L47.4989 74L47.6072 74.0626L94.5593 101.073C94.8354 101.232 95 101.516 95 101.833C95 102.151 94.8354 102.435 94.5593 102.594L49.6507 128.428C48.9879 128.808 48.2439 129 47.5 129ZM47.4989 74.4974L0.656252 101.445C0.516559 101.526 0.432126 101.67 0.432126 101.831C0.432126 101.993 0.516559 102.138 0.656252 102.219L45.5659 128.054C46.7593 128.739 48.2429 128.74 49.4351 128.054L94.3438 102.22C94.4834 102.139 94.5679 101.995 94.5679 101.833C94.5679 101.673 94.4834 101.528 94.3438 101.447L47.4989 74.4974Z" fill="#AEAEAE"/>
    <path opacity="0.7" d="M95.3453 86C94.461 86 93.6152 85.8154 92.9845 85.4396L74.0054 74.1276C73.3576 73.7396 73 73.1947 73 72.5912C73 71.8782 73.5032 71.1719 74.379 70.6491L92.6099 59.7814C94.203 58.8342 96.6301 58.7336 98.0166 59.5593L116.995 70.8713C117.644 71.2581 118 71.8042 118 72.4077C118 73.1206 117.498 73.828 116.622 74.3498L98.3902 85.2174C97.5219 85.7347 96.4053 86 95.3453 86ZM95.6547 59.4344C94.673 59.4344 93.6334 59.682 92.8229 60.165L74.592 71.0327C73.8522 71.4726 73.4272 72.0418 73.4272 72.5912C73.4272 73.03 73.7088 73.4401 74.2184 73.7441L93.1976 85.056C94.4685 85.8132 96.7007 85.7126 98.1761 84.8339L116.408 73.9662C117.147 73.5263 117.572 72.9581 117.572 72.4077C117.572 71.9689 117.29 71.5588 116.781 71.2548L97.8024 59.9428C97.2307 59.6013 96.462 59.4344 95.6547 59.4344Z" fill="#AEAEAE"/>
    <path d="M47.4743 107.208L0 79.7988L47.4721 52.3911L94.9464 79.7998L47.4743 107.208Z" fill="#B0B0B0"/>
    <path d="M47.4743 99.7238L12.9625 79.7987L47.4732 59.8748L81.9839 79.7998L47.4743 99.7238Z" fill="#303030"/>
    <path d="M47.4732 61.2235L80.8163 80.4742L81.9839 79.7998L47.4732 59.8748L12.9625 79.7987L14.1311 80.4731L47.4732 61.2235Z" fill="white"/>
    <path d="M94.9464 79.7998V95.3354L47.4743 122.744V107.207L94.9464 79.7998Z" fill="url(#paint0_linear_831_224)"/>
    <path d="M0 79.7987V95.3354L47.4743 122.744V107.207L0 79.7987Z" fill="#24126A"/>
    <g opacity="0.51">
        <path opacity="0.51" d="M3.21545 86.7795V91.6718L44.2578 115.368V110.474L3.21545 86.7795Z" fill="#453C9E"/>
    </g>
    <path d="M47.4743 106.317L0.770878 79.3539L0 79.7988L47.4743 107.208L94.9464 79.7999L94.1755 79.3539L47.4743 106.317Z" fill="white"/>
    <path d="M87.8262 90.6865V93.4677L54.5956 112.654V109.873L87.8262 90.6865Z" fill="#303030"/>
    <path d="M0 79.7987V95.3354L47.4743 122.744V107.207L0 79.7987Z" fill="#2B2B2B"/>
    <path d="M33.6155 106.383L25.0189 101.419L25.0179 102.444L33.6145 107.408L33.6155 106.383Z" fill="#F1384C"/>
    <path d="M23.7785 100.714L21.4497 99.3689L21.4486 100.394L23.7773 101.739L23.7785 100.714Z" fill="#F1384C"/>
    <path d="M12.8681 94.4156L8.10127 91.6633L8.10022 92.6894L12.867 95.4406L12.8681 94.4156Z" fill="#F1384C"/>
    <path d="M17.2157 96.9266L13.7698 94.9366L13.7687 95.9616L17.2147 97.9516L17.2157 96.9266Z" fill="#F1384C"/>
    <path d="M20.4483 98.7932L18.1185 97.4476L18.1174 98.4737L20.4472 99.8182L20.4483 98.7932Z" fill="#F1384C"/>
    <path d="M47.5225 66.7152L46.0151 65.8457L47.5225 64.9751L49.03 65.8457L47.5225 66.7152Z" fill="#F1384C"/>
    <path opacity="0.1" d="M50.5364 68.4564L49.03 67.5858L50.5364 66.7163L52.045 67.5858L50.5364 68.4564Z" fill="#F1384C"/>
    <path opacity="0.4" d="M53.5523 70.1976L52.0449 69.3259L53.5523 68.4564L55.0598 69.327L53.5523 70.1976Z" fill="#F1384C"/>
    <path d="M56.5662 71.9378L55.0598 71.0672L56.5662 70.1976L58.0747 71.0672L56.5662 71.9378Z" fill="#F1384C"/>
    <path opacity="0.4" d="M59.5822 73.6789L58.0747 72.8083L59.5822 71.9377L61.0896 72.8083L59.5822 73.6789Z" fill="#F1384C"/>
    <path d="M62.5971 75.4191L61.0897 74.5496L62.596 73.679L64.1046 74.5496L62.5971 75.4191Z" fill="#F1384C"/>
    <path d="M65.6121 77.1603L64.1046 76.2897L65.6121 75.4191L67.1195 76.2897L65.6121 77.1603Z" fill="#F1384C"/>
    <path d="M68.6269 78.9004L67.1195 78.0309L68.6269 77.1603L70.1344 78.0309L68.6269 78.9004Z" fill="#F1384C"/>
    <path opacity="0.1" d="M71.6419 80.6416L70.1344 79.771L71.6419 78.9004L73.1493 79.771L71.6419 80.6416Z" fill="#F1384C"/>
    <path d="M44.4958 68.464L42.9872 67.5934L44.4958 66.7228L46.0022 67.5934L44.4958 68.464Z" fill="#F1384C"/>
    <path d="M47.5097 70.204L46.0022 69.3334L47.5097 68.4639L49.0171 69.3334L47.5097 70.204Z" fill="#F1384C"/>
    <path d="M50.5256 71.9453L49.0171 71.0747L50.5256 70.2041L52.032 71.0747L50.5256 71.9453Z" fill="#F1384C"/>
    <path d="M53.5395 73.6854L52.032 72.8148L53.5395 71.9453L55.047 72.8148L53.5395 73.6854Z" fill="#F1384C"/>
    <path d="M56.5554 75.4266L55.0469 74.556L56.5554 73.6854L58.0629 74.556L56.5554 75.4266Z" fill="#F1384C"/>
    <path d="M59.5693 77.1666L58.0629 76.296L59.5693 75.4265L61.0767 76.296L59.5693 77.1666Z" fill="#F1384C"/>
    <path d="M62.5854 78.908L61.0768 78.0374L62.5854 77.1667L64.0928 78.0374L62.5854 78.908Z" fill="#F1384C"/>
    <path d="M65.5991 80.6491L64.0928 79.7785L65.5991 78.908L67.1066 79.7785L65.5991 80.6491Z" fill="#F1384C"/>
    <path d="M68.6151 82.3892L67.1066 81.5196L68.6151 80.649L70.1226 81.5196L68.6151 82.3892Z" fill="#F1384C"/>
    <path d="M41.4669 70.2115L39.9595 69.3409L41.4669 68.4703L42.9755 69.3409L41.4669 70.2115Z" fill="#F1384C"/>
    <path d="M44.4829 71.9516L42.9755 71.081L44.4829 70.2114L45.9904 71.082L44.4829 71.9516Z" fill="#F1384C"/>
    <path d="M47.4968 73.6928L45.9904 72.8222L47.4968 71.9517L49.0053 72.8222L47.4968 73.6928Z" fill="#F1384C"/>
    <path opacity="0.1" d="M50.5128 75.4341L49.0053 74.5624L50.5128 73.6929L52.0202 74.5635L50.5128 75.4341Z" fill="#F1384C"/>
    <path opacity="0.4" d="M53.5266 77.1741L52.0203 76.3035L53.5266 75.434L55.0352 76.3035L53.5266 77.1741Z" fill="#F1384C"/>
    <path opacity="0.4" d="M56.5426 78.9153L55.0352 78.0446L56.5426 77.1741L58.05 78.0446L56.5426 78.9153Z" fill="#F1384C"/>
    <path d="M59.5575 80.6554L58.05 79.7848L59.5575 78.9153L61.065 79.7848L59.5575 80.6554Z" fill="#F1384C"/>
    <path d="M62.5725 82.3966L61.065 81.526L62.5725 80.6554L64.0799 81.526L62.5725 82.3966Z" fill="#F1384C"/>
    <path d="M65.5874 84.1367L64.0799 83.2661L65.5874 82.3966L67.0948 83.2661L65.5874 84.1367Z" fill="#F1384C"/>
    <path opacity="0.4" d="M38.4403 71.9592L36.9328 71.0886L38.4403 70.218L39.9477 71.0886L38.4403 71.9592Z" fill="#F1384C"/>
    <path opacity="0.4" d="M41.4563 73.7003L39.9478 72.8297L41.4563 71.9591L42.9627 72.8297L41.4563 73.7003Z" fill="#F1384C"/>
    <path opacity="0.1" d="M44.4701 75.4405L42.9626 74.5698L44.4701 73.7003L45.9775 74.5698L44.4701 75.4405Z" fill="#F1384C"/>
    <path d="M47.4861 77.1817L45.9775 76.3111L47.4861 75.4406L48.9925 76.3111L47.4861 77.1817Z" fill="#F1384C"/>
    <path d="M50.4999 78.9217L48.9924 78.0512L50.4999 77.1816L52.0074 78.0512L50.4999 78.9217Z" fill="#F1384C"/>
    <path d="M53.5159 80.663L52.0074 79.7924L53.5159 78.9218L55.0234 79.7924L53.5159 80.663Z" fill="#F1384C"/>
    <path opacity="0.4" d="M56.5298 82.4031L55.0234 81.5325L56.5298 80.663L58.0373 81.5325L56.5298 82.4031Z" fill="#F1384C"/>
    <path d="M59.5457 84.1443L58.0372 83.2737L59.5457 82.4031L61.0532 83.2737L59.5457 84.1443Z" fill="#F1384C"/>
    <path d="M62.5596 85.8844L61.0532 85.0138L62.5596 84.1443L64.067 85.0138L62.5596 85.8844Z" fill="#F1384C"/>
    <path d="M35.4135 73.7068L33.9061 72.8362L35.4135 71.9656L36.921 72.8362L35.4135 73.7068Z" fill="#F1384C"/>
    <path d="M38.4274 75.4468L36.921 74.5773L38.4274 73.7067L39.936 74.5773L38.4274 75.4468Z" fill="#F1384C"/>
    <path d="M41.4434 77.1881L39.9359 76.3175L41.4434 75.4469L42.9508 76.3175L41.4434 77.1881Z" fill="#F1384C"/>
    <path d="M44.4583 78.9293L42.9508 78.0587L44.4572 77.1881L45.9657 78.0587L44.4583 78.9293Z" fill="#F1384C"/>
    <path d="M47.4732 80.6704L45.9657 79.7987L47.4732 78.9292L48.9806 79.7987L47.4732 80.6704Z" fill="#F1384C"/>
    <path d="M50.4881 82.4105L48.9807 81.5399L50.4881 80.6704L51.9956 81.5399L50.4881 82.4105Z" fill="#F1384C"/>
    <path d="M53.5031 84.1517L51.9956 83.2811L53.5031 82.4105L55.0105 83.2811L53.5031 84.1517Z" fill="#F1384C"/>
    <path d="M56.518 85.8918L55.0105 85.0213L56.518 84.1517L58.0254 85.0213L56.518 85.8918Z" fill="#F1384C"/>
    <path d="M59.5328 87.633L58.0265 86.7625L59.5328 85.8918L61.0403 86.7625L59.5328 87.633Z" fill="#F1384C"/>
    <path d="M32.3868 75.4544L30.8783 74.5838L32.3868 73.7133L33.8932 74.5849L32.3868 75.4544Z" fill="#F1384C"/>
    <path d="M35.4006 77.1957L33.8931 76.325L35.4006 75.4545L36.9081 76.325L35.4006 77.1957Z" fill="#F1384C"/>
    <path opacity="0.4" d="M38.4167 78.9358L36.9081 78.0652L38.4167 77.1957L39.9241 78.0663L38.4167 78.9358Z" fill="#F1384C"/>
    <path d="M41.4305 80.677L39.9241 79.8064L41.4305 78.9358L42.938 79.8064L41.4305 80.677Z" fill="#F1384C"/>
    <path opacity="0.1" d="M44.4464 82.4171L42.9379 81.5465L44.4464 80.677L45.9539 81.5465L44.4464 82.4171Z" fill="#F1384C"/>
    <path d="M47.4603 84.1571L45.9539 83.2876L47.4603 82.417L48.9677 83.2876L47.4603 84.1571Z" fill="#F1384C"/>
    <path d="M50.4764 85.8985L48.9678 85.0279L50.4764 84.1583L51.9838 85.0279L50.4764 85.8985Z" fill="#F1384C"/>
    <path d="M53.4912 87.6395L51.9838 86.7689L53.4901 85.8983L54.9976 86.7689L53.4912 87.6395Z" fill="#F1384C"/>
    <path d="M56.5061 89.3807L54.9976 88.5101L56.5061 87.6395L58.0136 88.5101L56.5061 89.3807Z" fill="#F1384C"/>
    <path d="M29.358 77.202L27.8516 76.3325L29.358 75.4619L30.8665 76.3325L29.358 77.202Z" fill="#F1384C"/>
    <path d="M32.374 78.9432L30.8665 78.0726L32.374 77.202L33.8814 78.0726L32.374 78.9432Z" fill="#F1384C"/>
    <path opacity="0.4" d="M35.3889 80.6833L33.8814 79.8138L35.3889 78.9432L36.8963 79.8138L35.3889 80.6833Z" fill="#F1384C"/>
    <path d="M38.4038 82.4246L36.8964 81.554L38.4038 80.6833L39.9113 81.554L38.4038 82.4246Z" fill="#F1384C"/>
    <path d="M41.4187 84.1647L39.9113 83.2951L41.4187 82.4246L42.9262 83.2951L41.4187 84.1647Z" fill="#F1384C"/>
    <path opacity="0.1" d="M44.4337 85.9059L42.9262 85.0353L44.4337 84.1647L45.9411 85.0353L44.4337 85.9059Z" fill="#F1384C"/>
    <path opacity="0.4" d="M47.4486 87.646L45.9411 86.7765L47.4486 85.9059L48.9571 86.7765L47.4486 87.646Z" fill="#F1384C"/>
    <path d="M50.4634 89.3872L48.9571 88.5166L50.4634 87.646L51.9709 88.5166L50.4634 89.3872Z" fill="#F1384C"/>
    <path opacity="0.1" d="M53.4784 91.1273L51.9709 90.2578L53.4784 89.3872L54.9869 90.2578L53.4784 91.1273Z" fill="#F1384C"/>
    <path d="M26.3313 78.9497L24.8238 78.0802L26.3313 77.2096L27.8387 78.0802L26.3313 78.9497Z" fill="#F1384C"/>
    <path opacity="0.4" d="M29.3473 80.6909L27.8387 79.8203L29.3473 78.9497L30.8547 79.8203L29.3473 80.6909Z" fill="#F1384C"/>
    <path d="M32.3611 82.431L30.8547 81.5615L32.3611 80.6909L33.8686 81.5615L32.3611 82.431Z" fill="#F1384C"/>
    <path d="M35.3771 84.1722L33.8686 83.3017L35.3771 82.4321L36.8846 83.3017L35.3771 84.1722Z" fill="#F1384C"/>
    <path d="M38.3909 85.9123L36.8846 85.0427L38.3909 84.1721L39.8984 85.0427L38.3909 85.9123Z" fill="#F1384C"/>
    <path d="M41.4069 87.6534L39.8984 86.7828L41.4069 85.9133L42.9144 86.7828L41.4069 87.6534Z" fill="#F1384C"/>
    <path d="M44.4218 89.3937L42.9144 88.5242L44.4218 87.6536L45.9293 88.5242L44.4218 89.3937Z" fill="#F1384C"/>
    <path opacity="0.4" d="M47.4367 91.1349L45.9293 90.2653L47.4367 89.3937L48.9442 90.2653L47.4367 91.1349Z" fill="#F1384C"/>
    <path d="M50.4517 92.8759L48.9442 92.0053L50.4517 91.1348L51.9591 92.0053L50.4517 92.8759Z" fill="#F1384C"/>
    <path d="M23.3045 80.6973L21.7971 79.8267L23.3045 78.9572L24.812 79.8267L23.3045 80.6973Z" fill="#F1384C"/>
    <path opacity="0.1" d="M26.3195 82.4385L24.812 81.5679L26.3195 80.6973L27.8269 81.5679L26.3195 82.4385Z" fill="#F1384C"/>
    <path d="M29.3344 84.1786L27.8269 83.308L29.3344 82.4385L30.8418 83.308L29.3344 84.1786Z" fill="#F1384C"/>
    <path d="M32.3493 85.9198L30.8419 85.0502L32.3493 84.1786L33.8567 85.0502L32.3493 85.9198Z" fill="#F1384C"/>
    <path d="M35.3642 87.6609L33.8567 86.7903L35.3642 85.9197L36.8716 86.7903L35.3642 87.6609Z" fill="#F1384C"/>
    <path d="M38.3791 89.401L36.8716 88.5315L38.3791 87.6609L39.8876 88.5315L38.3791 89.401Z" fill="#F1384C"/>
    <path opacity="0.4" d="M41.3941 91.1423L39.8876 90.2717L41.3941 89.4011L42.9015 90.2717L41.3941 91.1423Z" fill="#F1384C"/>
    <path d="M44.41 92.8823L42.9015 92.0128L44.41 91.1422L45.9175 92.0128L44.41 92.8823Z" fill="#F1384C"/>
    <path d="M47.4238 94.6235L45.9175 93.7529L47.4238 92.8823L48.9313 93.7529L47.4238 94.6235Z" fill="#F1384C"/>
    <path d="M47.4743 81.0125L0 53.6038L47.4721 26.1951L94.9464 53.6038L47.4743 81.0125Z" fill="#B0B0B0"/>
    <path d="M47.4743 73.5288L12.9625 53.6038L47.4732 33.6787L81.9839 53.6038L47.4743 73.5288Z" fill="#303030"/>
    <path d="M47.4732 35.0286L80.8163 54.2792L81.9839 53.6038L47.4732 33.6787L12.9625 53.6038L14.1311 54.2781L47.4732 35.0286Z" fill="white"/>
    <path d="M94.9464 53.6038V69.1415L47.4743 96.5492V81.0125L94.9464 53.6038Z" fill="url(#paint1_linear_831_224)"/>
    <path d="M0 53.6038V69.1404L47.4743 96.5492V81.0125L0 53.6038Z" fill="#24126A"/>
    <g opacity="0.51">
        <path opacity="0.51" d="M3.21545 60.5835V65.4769L44.2578 89.1727V84.2804L3.21545 60.5835Z" fill="#453C9E"/>
    </g>
    <path d="M47.4743 79.9649L0.770878 53L0 53.446L47.4743 80.8548L94.9464 53.446L94.1755 53.0011L47.4743 79.9649Z" fill="white"/>
    <path d="M87.8262 64.4916V67.2717L54.5956 86.458V83.6779L87.8262 64.4916Z" fill="#303030"/>
    <path d="M0 53.6038V69.1404L47.4743 96.5492V81.0125L0 53.6038Z" fill="#373737"/>
    <path d="M33.6155 80.187L25.0189 75.2229L25.0179 76.249L33.6145 81.2131L33.6155 80.187Z" fill="#F1384C"/>
    <path d="M23.7785 74.5184L21.4497 73.174L21.4486 74.1989L23.7773 75.5435L23.7785 74.5184Z" fill="#F1384C"/>
    <path d="M12.8681 68.2206L8.10127 65.4684L8.10022 66.4934L12.867 69.2456L12.8681 68.2206Z" fill="#F1384C"/>
    <path d="M17.2157 70.7315L13.7698 68.7416L13.7687 69.7666L17.2147 71.7565L17.2157 70.7315Z" fill="#F1384C"/>
    <path d="M20.4483 72.5972L18.1185 71.2527L18.1174 72.2777L20.4472 73.6222L20.4483 72.5972Z" fill="#F1384C"/>
    <path d="M47.5225 40.5203L46.0151 39.6507L47.5225 38.7802L49.03 39.6507L47.5225 40.5203Z" fill="#F1384C"/>
    <path opacity="0.1" d="M50.5364 42.2615L49.03 41.3909L50.5364 40.5203L52.045 41.3909L50.5364 42.2615Z" fill="#F1384C"/>
    <path opacity="0.4" d="M53.5523 44.0015L52.0449 43.1319L53.5523 42.2614L55.0598 43.1319L53.5523 44.0015Z" fill="#F1384C"/>
    <path d="M56.5662 45.7428L55.0598 44.8722L56.5662 44.0016L58.0747 44.8722L56.5662 45.7428Z" fill="#F1384C"/>
    <path opacity="0.4" d="M59.5822 47.4829L58.0747 46.6134L59.5822 45.7428L61.0896 46.6134L59.5822 47.4829Z" fill="#F1384C"/>
    <path d="M62.5971 49.2241L61.0897 48.3535L62.596 47.4829L64.1046 48.3535L62.5971 49.2241Z" fill="#F1384C"/>
    <path d="M65.6121 50.9641L64.1046 50.0946L65.6121 49.224L67.1195 50.0946L65.6121 50.9641Z" fill="#F1384C"/>
    <path d="M68.6269 52.7065L67.1195 51.8348L68.6269 50.9642L70.1344 51.8348L68.6269 52.7065Z" fill="#F1384C"/>
    <path opacity="0.1" d="M71.6419 54.4465L70.1344 53.5759L71.6419 52.7064L73.1493 53.5759L71.6419 54.4465Z" fill="#F1384C"/>
    <path d="M44.4958 42.2678L42.9872 41.3983L44.4958 40.5277L46.0022 41.3983L44.4958 42.2678Z" fill="#F1384C"/>
    <path d="M47.5097 44.0091L46.0022 43.1385L47.5097 42.2679L49.0171 43.1396L47.5097 44.0091Z" fill="#F1384C"/>
    <path d="M50.5256 45.7502L49.0171 44.8796L50.5256 44.009L52.032 44.8796L50.5256 45.7502Z" fill="#F1384C"/>
    <path d="M53.5395 47.4904L52.032 46.6198L53.5395 45.7502L55.047 46.6198L53.5395 47.4904Z" fill="#F1384C"/>
    <path d="M56.5554 49.2305L55.0469 48.3609L56.5554 47.4904L58.0629 48.3609L56.5554 49.2305Z" fill="#F1384C"/>
    <path d="M59.5693 50.9717L58.0629 50.1011L59.5693 49.2316L61.0767 50.1011L59.5693 50.9717Z" fill="#F1384C"/>
    <path d="M62.5854 52.7118L61.0768 51.8423L62.5854 50.9717L64.0928 51.8423L62.5854 52.7118Z" fill="#F1384C"/>
    <path d="M65.5991 54.453L64.0928 53.5824L65.5991 52.7129L67.1066 53.5824L65.5991 54.453Z" fill="#F1384C"/>
    <path d="M68.6151 56.1931L67.1066 55.3236L68.6151 54.453L70.1226 55.3236L68.6151 56.1931Z" fill="#F1384C"/>
    <path d="M41.4669 44.0166L39.9595 43.146L41.4669 42.2754L42.9755 43.146L41.4669 44.0166Z" fill="#F1384C"/>
    <path d="M44.4829 45.7567L42.9755 44.8872L44.4829 44.0166L45.9904 44.8872L44.4829 45.7567Z" fill="#F1384C"/>
    <path d="M47.4968 47.4978L45.9904 46.6272L47.4968 45.7566L49.0053 46.6272L47.4968 47.4978Z" fill="#F1384C"/>
    <path opacity="0.1" d="M50.5128 49.2379L49.0053 48.3684L50.5128 47.4978L52.0202 48.3684L50.5128 49.2379Z" fill="#F1384C"/>
    <path opacity="0.4" d="M53.5266 50.9792L52.0203 50.1086L53.5266 49.238L55.0352 50.1086L53.5266 50.9792Z" fill="#F1384C"/>
    <path opacity="0.4" d="M56.5426 52.7192L55.0352 51.8497L56.5426 50.9791L58.05 51.8497L56.5426 52.7192Z" fill="#F1384C"/>
    <path d="M59.5575 54.4604L58.05 53.5898L59.5575 52.7192L61.065 53.5898L59.5575 54.4604Z" fill="#F1384C"/>
    <path d="M62.5725 56.2006L61.065 55.331L62.5725 54.4604L64.0799 55.331L62.5725 56.2006Z" fill="#F1384C"/>
    <path d="M65.5874 57.9418L64.0799 57.0712L65.5874 56.2006L67.0948 57.0712L65.5874 57.9418Z" fill="#F1384C"/>
    <path opacity="0.4" d="M38.4403 45.7643L36.9328 44.8937L38.4403 44.0231L39.9477 44.8937L38.4403 45.7643Z" fill="#F1384C"/>
    <path opacity="0.4" d="M41.4563 47.5044L39.9478 46.6338L41.4563 45.7643L42.9627 46.6338L41.4563 47.5044Z" fill="#F1384C"/>
    <path opacity="0.1" d="M44.4701 49.2456L42.9626 48.375L44.4701 47.5044L45.9775 48.375L44.4701 49.2456Z" fill="#F1384C"/>
    <path d="M47.4861 50.9856L45.9775 50.115L47.4861 49.2455L48.9925 50.115L47.4861 50.9856Z" fill="#F1384C"/>
    <path d="M50.4999 52.7268L48.9924 51.8562L50.4999 50.9867L52.0074 51.8562L50.4999 52.7268Z" fill="#F1384C"/>
    <path d="M53.5159 54.4669L52.0074 53.5974L53.5159 52.7268L55.0234 53.5974L53.5159 54.4669Z" fill="#F1384C"/>
    <path opacity="0.4" d="M56.5298 56.2081L55.0234 55.3375L56.5298 54.4669L58.0373 55.3375L56.5298 56.2081Z" fill="#F1384C"/>
    <path d="M59.5457 57.9482L58.0372 57.0787L59.5457 56.2081L61.0532 57.0787L59.5457 57.9482Z" fill="#F1384C"/>
    <path d="M62.5596 59.6894L61.0532 58.8199L62.5596 57.9482L64.067 58.8199L62.5596 59.6894Z" fill="#F1384C"/>
    <path d="M35.4135 47.5118L33.9061 46.6412L35.4135 45.7706L36.921 46.6412L35.4135 47.5118Z" fill="#F1384C"/>
    <path d="M38.4274 49.252L36.921 48.3814L38.4274 47.5118L39.936 48.3814L38.4274 49.252Z" fill="#F1384C"/>
    <path d="M41.4434 50.9932L39.9359 50.1225L41.4434 49.252L42.9508 50.1225L41.4434 50.9932Z" fill="#F1384C"/>
    <path d="M44.4583 52.7333L42.9508 51.8627L44.4572 50.9932L45.9657 51.8627L44.4583 52.7333Z" fill="#F1384C"/>
    <path d="M47.4732 54.4745L45.9657 53.6039L47.4732 52.7333L48.9806 53.6039L47.4732 54.4745Z" fill="#F1384C"/>
    <path d="M50.4881 56.2146L48.9807 55.344L50.4881 54.4745L51.9956 55.344L50.4881 56.2146Z" fill="#F1384C"/>
    <path d="M53.5031 57.9558L51.9956 57.0852L53.5031 56.2157L55.0105 57.0852L53.5031 57.9558Z" fill="#F1384C"/>
    <path d="M56.518 59.6969L55.0105 58.8263L56.518 57.9557L58.0254 58.8263L56.518 59.6969Z" fill="#F1384C"/>
    <path d="M59.5328 61.4371L58.0265 60.5676L59.5328 59.697L61.0403 60.5676L59.5328 61.4371Z" fill="#F1384C"/>
    <path d="M32.3868 49.2594L30.8783 48.3888L32.3868 47.5193L33.8932 48.3888L32.3868 49.2594Z" fill="#F1384C"/>
    <path d="M35.4006 51.0006L33.8931 50.13L35.4006 49.2594L36.9081 50.13L35.4006 51.0006Z" fill="#F1384C"/>
    <path opacity="0.4" d="M38.4167 52.7407L36.9081 51.8701L38.4167 51.0006L39.9241 51.8701L38.4167 52.7407Z" fill="#F1384C"/>
    <path d="M41.4305 54.4819L39.9241 53.6113L41.4305 52.7407L42.938 53.6113L41.4305 54.4819Z" fill="#F1384C"/>
    <path opacity="0.1" d="M44.4464 56.2221L42.9379 55.3515L44.4464 54.4819L45.9539 55.3515L44.4464 56.2221Z" fill="#F1384C"/>
    <path d="M47.4603 57.9632L45.9539 57.0926L47.4603 56.222L48.9677 57.0926L47.4603 57.9632Z" fill="#F1384C"/>
    <path d="M50.4764 59.7033L48.9678 58.8327L50.4764 57.9631L51.9838 58.8327L50.4764 59.7033Z" fill="#F1384C"/>
    <path d="M53.4912 61.4446L51.9838 60.574L53.4901 59.7034L54.9976 60.574L53.4912 61.4446Z" fill="#F1384C"/>
    <path d="M56.5061 63.1847L54.9976 62.3141L56.5061 61.4446L58.0136 62.3141L56.5061 63.1847Z" fill="#F1384C"/>
    <path d="M29.358 51.0071L27.8516 50.1365L29.358 49.267L30.8665 50.1365L29.358 51.0071Z" fill="#F1384C"/>
    <path d="M32.374 52.7483L30.8665 51.8777L32.374 51.0071L33.8814 51.8777L32.374 52.7483Z" fill="#F1384C"/>
    <path opacity="0.4" d="M35.3889 54.4884L33.8814 53.6178L35.3889 52.7483L36.8963 53.6178L35.3889 54.4884Z" fill="#F1384C"/>
    <path d="M38.4038 56.2296L36.8964 55.359L38.4038 54.4884L39.9113 55.359L38.4038 56.2296Z" fill="#F1384C"/>
    <path d="M41.4187 57.9697L39.9113 57.0991L41.4187 56.2296L42.9262 57.0991L41.4187 57.9697Z" fill="#F1384C"/>
    <path opacity="0.1" d="M44.4337 59.7108L42.9262 58.8402L44.4337 57.9707L45.9411 58.8402L44.4337 59.7108Z" fill="#F1384C"/>
    <path opacity="0.4" d="M47.4486 61.4509L45.9411 60.5803L47.4486 59.7108L48.9571 60.5803L47.4486 61.4509Z" fill="#F1384C"/>
    <path d="M50.4634 63.1922L48.9571 62.3217L50.4634 61.451L51.9709 62.3217L50.4634 63.1922Z" fill="#F1384C"/>
    <path opacity="0.1" d="M53.4784 64.9323L51.9709 64.0617L53.4784 63.1921L54.9869 64.0627L53.4784 64.9323Z" fill="#F1384C"/>
    <path d="M26.3313 52.7547L24.8238 51.8841L26.3313 51.0135L27.8387 51.8841L26.3313 52.7547Z" fill="#F1384C"/>
    <path opacity="0.4" d="M29.3473 54.4949L27.8387 53.6254L29.3473 52.7548L30.8547 53.6254L29.3473 54.4949Z" fill="#F1384C"/>
    <path d="M32.3611 56.2361L30.8547 55.3655L32.3611 54.4949L33.8686 55.3655L32.3611 56.2361Z" fill="#F1384C"/>
    <path d="M35.3771 57.9771L33.8686 57.1066L35.3771 56.236L36.8846 57.1066L35.3771 57.9771Z" fill="#F1384C"/>
    <path d="M38.3909 59.7184L36.8846 58.8478L38.3909 57.9772L39.8984 58.8478L38.3909 59.7184Z" fill="#F1384C"/>
    <path d="M41.4069 61.4585L39.8984 60.5879L41.4069 59.7184L42.9144 60.5879L41.4069 61.4585Z" fill="#F1384C"/>
    <path d="M44.4218 63.1997L42.9144 62.3291L44.4218 61.4585L45.9293 62.3291L44.4218 63.1997Z" fill="#F1384C"/>
    <path opacity="0.4" d="M47.4367 64.9398L45.9293 64.0692L47.4367 63.1997L48.9442 64.0692L47.4367 64.9398Z" fill="#F1384C"/>
    <path d="M50.4517 66.681L48.9442 65.8104L50.4517 64.9398L51.9591 65.8104L50.4517 66.681Z" fill="#F1384C"/>
    <path d="M23.3045 54.5023L21.7971 53.6328L23.3045 52.7622L24.812 53.6328L23.3045 54.5023Z" fill="#F1384C"/>
    <path opacity="0.1" d="M26.3195 56.2435L24.812 55.3729L26.3195 54.5023L27.8269 55.3729L26.3195 56.2435Z" fill="#F1384C"/>
    <path d="M29.3344 57.9836L27.8269 57.1141L29.3344 56.2435L30.8418 57.1141L29.3344 57.9836Z" fill="#F1384C"/>
    <path d="M32.3493 59.7248L30.8419 58.8543L32.3493 57.9836L33.8567 58.8543L32.3493 59.7248Z" fill="#F1384C"/>
    <path d="M35.3642 61.465L33.8567 60.5954L35.3642 59.7249L36.8716 60.5954L35.3642 61.465Z" fill="#F1384C"/>
    <path d="M38.3791 63.2061L36.8716 62.3356L38.3791 61.465L39.8876 62.3356L38.3791 63.2061Z" fill="#F1384C"/>
    <path opacity="0.4" d="M41.3941 64.9472L39.8876 64.0767L41.3941 63.2061L42.9015 64.0767L41.3941 64.9472Z" fill="#F1384C"/>
    <path d="M44.41 66.6874L42.9015 65.8168L44.41 64.9473L45.9175 65.8168L44.41 66.6874Z" fill="#F1384C"/>
    <path d="M47.4238 68.4287L45.9175 67.5581L47.4238 66.6875L48.9313 67.5581L47.4238 68.4287Z" fill="#F1384C"/>
    <path d="M47.4743 54.8175L0 27.4087L47.4721 0L94.9464 27.4098L47.4743 54.8175Z" fill="#FFC7CD"/>
    <path d="M47.4743 47.3337L12.9625 27.4087L47.4732 7.48364L81.9839 27.4087L47.4743 47.3337Z" fill="#414141"/>
    <path d="M47.4732 8.8335L80.8163 28.0842L81.9839 27.4087L47.4732 7.48364L12.9625 27.4087L14.1311 28.0831L47.4732 8.8335Z" fill="white"/>
    <path d="M94.9464 27.4098V42.9454L47.4743 70.3541V54.8175L94.9464 27.4098Z" fill="url(#paint2_linear_831_224)"/>
    <path d="M0 27.4087V42.9454L47.4743 70.3541V54.8174L0 27.4087Z" fill="#24126A"/>
    <g opacity="0.51">
        <path opacity="0.51" d="M3.21545 34.3895V39.2818L44.2578 62.9777V58.0843L3.21545 34.3895Z" fill="#453C9E"/>
    </g>
    <path d="M47.4743 53.9264L0.770878 26.9626L0 27.4087L47.4743 54.8174L94.9464 27.4097L94.1755 26.9637L47.4743 53.9264Z" fill="white"/>
    <path d="M87.8262 38.2965V41.0777L54.5956 60.263V57.4828L87.8262 38.2965Z" fill="#303030"/>
    <path d="M0 27.4087V42.9454L47.4743 70.3541V54.8174L0 27.4087Z" fill="#DC2E3F"/>
    <path d="M33.6155 53.993L25.0189 49.0289L25.0179 50.0539L33.6145 55.018L33.6155 53.993Z" fill="white"/>
    <path d="M23.7785 48.3234L21.4497 46.9789L21.4486 48.0039L23.7773 49.3494L23.7785 48.3234Z" fill="white"/>
    <path d="M12.8681 42.0256L8.10127 39.2733L8.10022 40.2983L12.867 43.0505L12.8681 42.0256Z" fill="white"/>
    <path d="M17.2157 44.5354L13.7698 42.5465L13.7687 43.5715L17.2147 45.5614L17.2157 44.5354Z" fill="white"/>
    <path d="M20.4483 46.4021L18.1185 45.0576L18.1174 46.0826L20.4472 47.4282L20.4483 46.4021Z" fill="white"/>
    <path d="M47.5225 14.3252L46.0151 13.4546L47.5225 12.5851L49.03 13.4546L47.5225 14.3252Z" fill="#F1384C"/>
    <path opacity="0.1" d="M50.5364 16.0664L49.03 15.1958L50.5364 14.3252L52.045 15.1958L50.5364 16.0664Z" fill="#F1384C"/>
    <path opacity="0.4" d="M53.5523 17.8064L52.0449 16.9358L53.5523 16.0663L55.0598 16.9358L53.5523 17.8064Z" fill="#F1384C"/>
    <path d="M56.5662 19.5477L55.0598 18.6771L56.5662 17.8065L58.0747 18.6771L56.5662 19.5477Z" fill="#F1384C"/>
    <path opacity="0.4" d="M59.5822 21.2878L58.0747 20.4173L59.5822 19.5477L61.0896 20.4173L59.5822 21.2878Z" fill="#F1384C"/>
    <path d="M62.5971 23.0289L61.0897 22.1583L62.596 21.2877L64.1046 22.1583L62.5971 23.0289Z" fill="#F1384C"/>
    <path d="M65.6121 24.7691L64.1046 23.8984L65.6121 23.0289L67.1195 23.8984L65.6121 24.7691Z" fill="#F1384C"/>
    <path d="M68.6269 26.5103L67.1195 25.6398L68.6269 24.7692L70.1344 25.6398L68.6269 26.5103Z" fill="#F1384C"/>
    <path opacity="0.1" d="M71.6419 28.2505L70.1344 27.3799L71.6419 26.5104L73.1493 27.381L71.6419 28.2505Z" fill="#F1384C"/>
    <path d="M44.4958 16.0739L42.9872 15.2033L44.4958 14.3317L46.0022 15.2033L44.4958 16.0739Z" fill="#F1384C"/>
    <path d="M47.5097 17.8141L46.0022 16.9435L47.5097 16.074L49.0171 16.9435L47.5097 17.8141Z" fill="#F1384C"/>
    <path d="M50.5256 19.5553L49.0171 18.6847L50.5256 17.8141L52.032 18.6847L50.5256 19.5553Z" fill="#F1384C"/>
    <path d="M53.5395 21.2953L52.032 20.4247L53.5395 19.5552L55.047 20.4247L53.5395 21.2953Z" fill="#F1384C"/>
    <path d="M56.5554 23.0365L55.0469 22.1659L56.5554 21.2953L58.0629 22.1659L56.5554 23.0365Z" fill="#F1384C"/>
    <path d="M59.5693 24.7766L58.0629 23.906L59.5693 23.0365L61.0767 23.906L59.5693 24.7766Z" fill="#F1384C"/>
    <path d="M62.5854 26.5178L61.0768 25.6472L62.5854 24.7766L64.0928 25.6472L62.5854 26.5178Z" fill="#F1384C"/>
    <path d="M65.5991 28.2579L64.0928 27.3874L65.5991 26.5178L67.1066 27.3874L65.5991 28.2579Z" fill="#F1384C"/>
    <path d="M68.6151 29.9991L67.1066 29.1285L68.6151 28.2579L70.1226 29.1285L68.6151 29.9991Z" fill="#F1384C"/>
    <path d="M41.4669 17.8204L39.9595 16.9509L41.4669 16.0803L42.9755 16.9509L41.4669 17.8204Z" fill="#F1384C"/>
    <path d="M44.4829 19.5617L42.9755 18.6911L44.4829 17.8206L45.9904 18.6911L44.4829 19.5617Z" fill="#F1384C"/>
    <path d="M47.4968 21.3016L45.9904 20.4321L47.4968 19.5615L49.0053 20.4321L47.4968 21.3016Z" fill="#F1384C"/>
    <path opacity="0.1" d="M50.5128 23.043L49.0053 22.1724L50.5128 21.3018L52.0202 22.1724L50.5128 23.043Z" fill="#F1384C"/>
    <path opacity="0.4" d="M53.5266 24.7842L52.0203 23.9136L53.5266 23.043L55.0352 23.9136L53.5266 24.7842Z" fill="#F1384C"/>
    <path opacity="0.4" d="M56.5426 26.5243L55.0352 25.6537L56.5426 24.7842L58.05 25.6537L56.5426 26.5243Z" fill="#F1384C"/>
    <path d="M59.5575 28.2654L58.05 27.3948L59.5575 26.5242L61.065 27.3948L59.5575 28.2654Z" fill="#F1384C"/>
    <path d="M62.5725 30.0055L61.065 29.1349L62.5725 28.2654L64.0799 29.136L62.5725 30.0055Z" fill="#F1384C"/>
    <path d="M65.5874 31.7468L64.0799 30.8762L65.5874 30.0056L67.0948 30.8762L65.5874 31.7468Z" fill="#F1384C"/>
    <path opacity="0.4" d="M38.4403 19.5681L36.9328 18.6986L38.4403 17.828L39.9477 18.6986L38.4403 19.5681Z" fill="#F1384C"/>
    <path opacity="0.4" d="M41.4563 21.3093L39.9478 20.4387L41.4563 19.5681L42.9627 20.4387L41.4563 21.3093Z" fill="#F1384C"/>
    <path opacity="0.1" d="M44.4701 23.0493L42.9626 22.1798L44.4701 21.3092L45.9775 22.1798L44.4701 23.0493Z" fill="#F1384C"/>
    <path d="M47.4861 24.7906L45.9775 23.92L47.4861 23.0494L48.9925 23.92L47.4861 24.7906Z" fill="#F1384C"/>
    <path d="M50.4999 26.5308L48.9924 25.6613L50.4999 24.7906L52.0074 25.6613L50.4999 26.5308Z" fill="#F1384C"/>
    <path d="M53.5159 28.2718L52.0074 27.4012L53.5159 26.5306L55.0234 27.4012L53.5159 28.2718Z" fill="#F1384C"/>
    <path opacity="0.4" d="M56.5298 30.012L55.0234 29.1424L56.5298 28.2719L58.0373 29.1424L56.5298 30.012Z" fill="#F1384C"/>
    <path d="M59.5457 31.7542L58.0372 30.8836L59.5457 30.012L61.0532 30.8836L59.5457 31.7542Z" fill="#F1384C"/>
    <path d="M62.5596 33.4944L61.0532 32.6238L62.5596 31.7543L64.067 32.6238L62.5596 33.4944Z" fill="#F1384C"/>
    <path d="M35.4135 21.3168L33.9061 20.4462L35.4135 19.5756L36.921 20.4462L35.4135 21.3168Z" fill="#F1384C"/>
    <path d="M38.4274 23.0569L36.921 22.1874L38.4274 21.3168L39.936 22.1874L38.4274 23.0569Z" fill="#F1384C"/>
    <path d="M41.4434 24.7982L39.9359 23.9276L41.4434 23.057L42.9508 23.9276L41.4434 24.7982Z" fill="#F1384C"/>
    <path d="M44.4583 26.5382L42.9508 25.6687L44.4572 24.7981L45.9657 25.6687L44.4583 26.5382Z" fill="#F1384C"/>
    <path d="M47.4732 28.2794L45.9657 27.4088L47.4732 26.5382L48.9806 27.4088L47.4732 28.2794Z" fill="#F1384C"/>
    <path d="M50.4881 30.0195L48.9807 29.15L50.4881 28.2794L51.9956 29.15L50.4881 30.0195Z" fill="#F1384C"/>
    <path d="M53.5031 31.7607L51.9956 30.8901L53.5031 30.0195L55.0105 30.8901L53.5031 31.7607Z" fill="#F1384C"/>
    <path d="M56.518 33.5009L55.0105 32.6313L56.518 31.7607L58.0254 32.6313L56.518 33.5009Z" fill="#F1384C"/>
    <path d="M59.5328 35.242L58.0265 34.3714L59.5328 33.5009L61.0403 34.3714L59.5328 35.242Z" fill="#F1384C"/>
    <path d="M32.3868 23.0644L30.8783 22.1949L32.3868 21.3232L33.8932 22.1949L32.3868 23.0644Z" fill="#F1384C"/>
    <path d="M35.4006 24.8046L33.8931 23.9351L35.4006 23.0645L36.9081 23.9351L35.4006 24.8046Z" fill="#F1384C"/>
    <path opacity="0.4" d="M38.4167 26.5456L36.9081 25.6751L38.4167 24.8044L39.9241 25.6751L38.4167 26.5456Z" fill="#F1384C"/>
    <path d="M41.4305 28.2858L39.9241 27.4162L41.4305 26.5457L42.938 27.4162L41.4305 28.2858Z" fill="#F1384C"/>
    <path opacity="0.1" d="M44.4464 30.0271L42.9379 29.1565L44.4464 28.2859L45.9539 29.1565L44.4464 30.0271Z" fill="#F1384C"/>
    <path d="M47.4603 31.7672L45.9539 30.8977L47.4603 30.0271L48.9677 30.8977L47.4603 31.7672Z" fill="#F1384C"/>
    <path d="M50.4764 33.5083L48.9678 32.6377L50.4764 31.7671L51.9838 32.6377L50.4764 33.5083Z" fill="#F1384C"/>
    <path d="M53.4912 35.2484L51.9838 34.3789L53.4901 33.5083L54.9976 34.3789L53.4912 35.2484Z" fill="#F1384C"/>
    <path d="M56.5061 36.9897L54.9976 36.1191L56.5061 35.2485L58.0136 36.1191L56.5061 36.9897Z" fill="#F1384C"/>
    <path d="M29.358 24.812L27.8516 23.9414L29.358 23.0708L30.8665 23.9414L29.358 24.812Z" fill="#F1384C"/>
    <path d="M32.374 26.5521L30.8665 25.6815L32.374 24.812L33.8814 25.6815L32.374 26.5521Z" fill="#F1384C"/>
    <path opacity="0.4" d="M35.3889 28.2933L33.8814 27.4227L35.3889 26.5521L36.8963 27.4227L35.3889 28.2933Z" fill="#F1384C"/>
    <path d="M38.4038 30.0345L36.8964 29.1639L38.4038 28.2933L39.9113 29.1639L38.4038 30.0345Z" fill="#F1384C"/>
    <path d="M41.4187 31.7747L39.9113 30.9051L41.4187 30.0345L42.9262 30.9051L41.4187 31.7747Z" fill="#F1384C"/>
    <path opacity="0.1" d="M44.4337 33.5158L42.9262 32.6452L44.4337 31.7747L45.9411 32.6452L44.4337 33.5158Z" fill="#F1384C"/>
    <path opacity="0.4" d="M47.4486 35.2559L45.9411 34.3864L47.4486 33.5157L48.9571 34.3864L47.4486 35.2559Z" fill="#F1384C"/>
    <path d="M50.4634 36.9972L48.9571 36.1266L50.4634 35.256L51.9709 36.1266L50.4634 36.9972Z" fill="#F1384C"/>
    <path opacity="0.1" d="M53.4784 38.7373L51.9709 37.8678L53.4784 36.9972L54.9869 37.8678L53.4784 38.7373Z" fill="#F1384C"/>
    <path d="M26.3313 26.5596L24.8238 25.689L26.3313 24.8195L27.8387 25.689L26.3313 26.5596Z" fill="#F1384C"/>
    <path opacity="0.4" d="M29.3473 28.3009L27.8387 27.4303L29.3473 26.5597L30.8547 27.4303L29.3473 28.3009Z" fill="#F1384C"/>
    <path d="M32.3611 30.0409L30.8547 29.1703L32.3611 28.3008L33.8686 29.1703L32.3611 30.0409Z" fill="#F1384C"/>
    <path d="M35.3771 31.7821L33.8686 30.9115L35.3771 30.0409L36.8846 30.9115L35.3771 31.7821Z" fill="#F1384C"/>
    <path d="M38.3909 33.5222L36.8846 32.6516L38.3909 31.7821L39.8984 32.6516L38.3909 33.5222Z" fill="#F1384C"/>
    <path d="M41.4069 35.2635L39.8984 34.3929L41.4069 33.5223L42.9144 34.3929L41.4069 35.2635Z" fill="#F1384C"/>
    <path d="M44.4218 37.0035L42.9144 36.133L44.4218 35.2634L45.9293 36.133L44.4218 37.0035Z" fill="#F1384C"/>
    <path opacity="0.4" d="M47.4367 38.7447L45.9293 37.8752L47.4367 37.0035L48.9442 37.8752L47.4367 38.7447Z" fill="#F1384C"/>
    <path d="M50.4517 40.4849L48.9442 39.6154L50.4517 38.7448L51.9591 39.6154L50.4517 40.4849Z" fill="#F1384C"/>
    <path d="M23.3045 28.3073L21.7971 27.4367L23.3045 26.5671L24.812 27.4367L23.3045 28.3073Z" fill="#F1384C"/>
    <path opacity="0.1" d="M26.3195 30.0486L24.812 29.178L26.3195 28.3074L27.8269 29.178L26.3195 30.0486Z" fill="#F1384C"/>
    <path d="M29.3344 31.7885L27.8269 30.9179L29.3344 30.0483L30.8418 30.9179L29.3344 31.7885Z" fill="#F1384C"/>
    <path d="M32.3493 33.5298L30.8419 32.6592L32.3493 31.7886L33.8567 32.6592L32.3493 33.5298Z" fill="#F1384C"/>
    <path d="M35.3642 35.2699L33.8567 34.3993L35.3642 33.5298L36.8716 34.3993L35.3642 35.2699Z" fill="#F1384C"/>
    <path d="M38.3791 37.011L36.8716 36.1404L38.3791 35.2698L39.8876 36.1404L38.3791 37.011Z" fill="#F1384C"/>
    <path opacity="0.4" d="M41.3941 38.7511L39.8876 37.8805L41.3941 37.011L42.9015 37.8805L41.3941 38.7511Z" fill="#F1384C"/>
    <path d="M44.41 40.4924L42.9015 39.6218L44.41 38.7512L45.9175 39.6218L44.41 40.4924Z" fill="#F1384C"/>
    <path d="M47.4238 42.2326L45.9175 41.362L47.4238 40.4924L48.9313 41.362L47.4238 42.2326Z" fill="#F1384C"/>
    <path opacity="0.7" d="M25.9268 147C25.4807 147 25.0539 146.907 24.7277 146.716L15.5423 141.366C15.1925 141.163 15 140.871 15 140.544C15 140.166 15.2631 139.796 15.7231 139.529L24.5459 134.39C25.3609 133.914 26.561 133.868 27.2723 134.284L36.4578 139.634C36.8075 139.837 37 140.13 37 140.456C37 140.834 36.7369 141.205 36.277 141.471L27.4541 146.61C27.0102 146.869 26.4562 147 25.9268 147ZM26.0765 134.436C25.6177 134.436 25.1299 134.547 24.7588 134.763L15.9359 139.903C15.6171 140.088 15.4267 140.33 15.4267 140.545C15.4267 140.757 15.6054 140.906 15.7551 140.994L24.9406 146.344C25.5128 146.677 26.5674 146.63 27.2402 146.238L36.0631 141.098C36.3818 140.913 36.5722 140.672 36.5722 140.456C36.5722 140.244 36.3936 140.095 36.2438 140.007L27.0583 134.657C26.8016 134.508 26.4487 134.436 26.0765 134.436Z" fill="#AEAEAE"/>
    <path opacity="0.7" d="M106.93 122C106.483 122 106.055 121.906 105.728 121.715L96.5423 116.365C96.1925 116.162 96 115.87 96 115.543C96 115.164 96.2631 114.795 96.7231 114.528L105.547 109.388C106.361 108.916 107.561 108.867 108.273 109.283L117.458 114.633C117.807 114.836 118 115.128 118 115.456C118 115.834 117.738 116.203 117.278 116.47L108.454 121.61C108.012 121.868 107.458 122 106.93 122ZM105.941 121.343C106.516 121.676 107.568 121.631 108.24 121.238L117.064 116.097C117.382 115.912 117.572 115.672 117.572 115.456C117.572 115.243 117.394 115.094 117.244 115.006L108.059 109.657C107.484 109.32 106.432 109.372 105.76 109.763L96.9359 114.902C96.6182 115.088 96.4279 115.329 96.4279 115.544C96.4279 115.756 96.6054 115.905 96.7551 115.993L105.941 121.343Z" fill="#AEAEAE"/>
    <defs>
        <linearGradient id="paint0_linear_831_224" x1="71.2104" y1="113.152" x2="71.2104" y2="80.7114" gradientUnits="userSpaceOnUse">
            <stop stop-color="#545454"/>
            <stop offset="0.2938" stop-color="#898989"/>
            <stop offset="0.6399" stop-color="#898989"/>
            <stop offset="1" stop-color="#5F5F60"/>
        </linearGradient>
        <linearGradient id="paint1_linear_831_224" x1="71.2104" y1="86.9567" x2="71.2104" y2="54.5153" gradientUnits="userSpaceOnUse">
            <stop stop-color="#545454"/>
            <stop offset="0.2938" stop-color="#898989"/>
            <stop offset="0.6399" stop-color="#898989"/>
            <stop offset="1" stop-color="#5F5F60"/>
        </linearGradient>
        <linearGradient id="paint2_linear_831_224" x1="71.2104" y1="60.7617" x2="71.2104" y2="28.3203" gradientUnits="userSpaceOnUse">
            <stop stop-color="#E7818B"/>
            <stop offset="0.2938" stop-color="#FFABB4"/>
            <stop offset="0.6399" stop-color="#F28490"/>
            <stop offset="1" stop-color="#FB8490"/>
        </linearGradient>
    </defs>
</svg>
