<svg width="142" height="134" viewBox="0 0 142 134" fill="none" xmlns="http://www.w3.org/2000/svg">
    <path opacity="0.7" d="M16.8917 93C16.2008 93 15.5396 92.8556 15.0338 92.5617L0.838087 84.3306C0.297566 84.0185 0 83.5686 0 83.0655C0 82.4828 0.406673 81.915 1.11745 81.505L14.7545 73.5976C16.0124 72.8704 17.867 72.7957 18.9679 73.4349L33.1619 81.666C33.7024 81.9781 34 82.428 34 82.9327C34 83.5138 33.5949 84.0816 32.8842 84.4916L19.2472 92.4007C18.5645 92.7975 17.7083 93 16.8917 93ZM15.3627 91.9889C16.252 92.5019 17.8786 92.4322 18.9166 91.8279L32.5536 83.9189C33.0446 83.6333 33.3388 83.2648 33.3388 82.9327C33.3388 82.604 33.0627 82.3749 32.8313 82.2404L18.6373 74.0109C17.748 73.493 16.1214 73.5727 15.0834 74.1737L1.44635 82.0794C0.955417 82.3666 0.661229 82.7368 0.661229 83.0672C0.661229 83.3943 0.935571 83.6233 1.16699 83.7578L15.3627 91.9889Z" fill="#999999"/>
    <path opacity="0.7" d="M131.433 123C131.006 123 130.598 122.913 130.286 122.737L121.518 117.798C121.184 117.611 121 117.341 121 117.039C121 116.69 121.251 116.349 121.69 116.103L130.113 111.359C130.89 110.922 132.036 110.877 132.715 111.261L141.482 116.2C141.816 116.387 142 116.657 142 116.96C142 117.308 141.75 117.649 141.311 117.895L132.888 122.64C132.466 122.878 131.937 123 131.433 123ZM130.489 122.393C131.038 122.701 132.043 122.659 132.684 122.297L141.107 117.551C141.41 117.38 141.592 117.159 141.592 116.96C141.592 116.762 141.421 116.625 141.278 116.544L132.511 111.607C131.962 111.296 130.957 111.344 130.316 111.704L121.893 116.448C121.59 116.62 121.408 116.842 121.408 117.04C121.408 117.237 121.578 117.374 121.721 117.455L130.489 122.393Z" fill="#999999"/>
    <path opacity="0.7" d="M114.433 93C114.006 93 113.598 92.9133 113.286 92.737L104.518 87.7983C104.184 87.6111 104 87.3411 104 87.0393C104 86.6897 104.251 86.349 104.69 86.103L113.113 81.3585C113.89 80.9223 115.036 80.8774 115.715 81.2609L124.482 86.1996C124.816 86.3869 125 86.6568 125 86.9596C125 87.3083 124.75 87.6489 124.311 87.895L115.888 92.6404C115.466 92.8785 114.937 93 114.433 93ZM113.489 92.3934C114.038 92.7012 115.043 92.6593 115.684 92.2968L124.107 87.5513C124.41 87.38 124.592 87.1589 124.592 86.9596C124.592 86.7624 124.421 86.6249 124.278 86.5442L115.511 81.6066C114.962 81.2958 113.957 81.3436 113.316 81.7042L104.893 86.4476C104.59 86.62 104.408 86.8421 104.408 87.0403C104.408 87.2366 104.578 87.374 104.721 87.4547L113.489 92.3934Z" fill="#999999"/>
    <g opacity="0.2">
        <path opacity="0.0909" d="M43.0958 101.644L51.8236 96.1791C51.8934 96.1382 55.0423 94.191 55.1265 94.1711C57.0714 93.1 59.4782 92.5307 61.8939 92.5651C62.7523 92.5795 63.5741 92.6802 64.3505 92.8353C65.416 93.0491 66.5856 93.501 67.4263 93.9872L84.213 103.684L88.2723 106.029L100.993 113.379C102.886 114.471 104.328 116.406 104.328 118.329C104.328 119.268 102.921 121.253 100.888 123.194C98.4045 125.565 95.2412 128.243 93.726 129.118L89.4884 131.651C88.6212 132.151 87.4139 132.683 86.3861 132.966C85.1998 133.291 83.9383 133.489 82.6601 133.508C80.5158 133.537 78.5476 133.095 76.9937 132.226C76.966 132.215 76.0954 131.716 76.0721 131.702L59.9212 122.371L56.7945 120.564L42.8544 112.512C41.08 111.486 39.6534 109.649 39.4607 107.876C39.4474 107.751 39.4286 107.626 39.4186 107.5C39.2458 105.267 40.5772 103.098 43.0958 101.644Z" fill="black"/>
        <path opacity="0.1818" d="M43.2465 101.907L51.7273 96.579C51.868 96.4981 54.7909 94.7116 54.9593 94.6717C56.8809 93.6682 59.2301 93.1521 61.5583 93.223C62.3901 93.2507 63.1842 93.3714 63.933 93.5309C64.8888 93.7358 66.1548 94.2508 66.9124 94.6895L83.2416 104.123L87.188 106.402L99.5597 113.551C101.264 114.534 102.952 116.501 102.952 118.232C102.952 119.076 102.019 121.021 100.265 122.847C98.1653 125.035 95.393 127.769 93.7527 128.717L89.5682 131.238C88.7884 131.689 87.4449 132.322 86.5234 132.587C85.3549 132.921 84.1133 133.152 82.8473 133.189C80.7373 133.248 78.7725 132.84 77.2252 132.001C77.1687 131.979 76.3579 131.517 76.3081 131.488L60.3266 122.256L57.2354 120.47L43.4359 112.498C41.8387 111.577 40.1485 109.642 39.9093 108.056C39.8905 107.935 39.8595 107.817 39.8395 107.697C39.4884 105.542 40.7178 103.366 43.2465 101.907Z" fill="black"/>
        <path opacity="0.2727" d="M43.3981 102.169L51.6309 96.9799C51.8424 96.8581 54.5383 95.2332 54.792 95.1723C56.6893 94.2353 58.9831 93.7701 61.2237 93.882C62.0311 93.9218 62.7943 94.0647 63.5164 94.2286C64.3649 94.4202 65.7272 95.0039 66.4006 95.3938L82.2724 104.562L86.1036 106.775L98.1254 113.721C99.6394 114.595 101.575 116.596 101.575 118.134C101.575 118.885 101.107 120.79 99.6439 122.499C97.9116 124.523 95.5447 127.295 93.7803 128.314L89.6489 130.825C88.9556 131.224 87.477 131.964 86.6596 132.209C85.5121 132.552 84.2882 132.813 83.0355 132.869C80.9566 132.959 78.9983 132.583 77.4566 131.776C77.3724 131.745 76.6181 131.317 76.545 131.275L60.7309 122.14L57.675 120.373L44.0162 112.484C42.5963 111.664 40.6336 109.632 40.3589 108.232C40.3357 108.116 40.2902 108.006 40.2614 107.89C39.7342 105.815 40.8573 103.635 43.3981 102.169Z" fill="black"/>
        <path opacity="0.3636" d="M43.55 102.43L51.5346 97.3797C51.817 97.2169 54.287 95.7527 54.6248 95.6729C56.4977 94.8024 58.7351 94.3937 60.8882 94.541C61.6691 94.5941 62.4045 94.757 63.1001 94.9242C63.8388 95.1014 65.2986 95.756 65.8879 96.0971L81.3022 105.002L85.0193 107.149L96.6911 113.892C98.0169 114.656 100.2 116.689 100.2 118.035C100.2 118.692 100.493 120.843 99.0226 122.152C98.059 124.284 95.6976 126.822 93.8092 127.912L89.7299 130.411C89.1229 130.761 87.5092 131.609 86.797 131.83C85.6673 132.181 84.4644 132.475 83.2228 132.549C81.176 132.668 79.2233 132.326 77.6871 131.55C77.5741 131.508 76.8785 131.117 76.7811 131.062L61.1341 122.023L58.1137 120.277L44.5955 112.468C43.3528 111.752 41.1033 109.621 40.8065 108.408C40.7788 108.294 40.7201 108.193 40.6813 108.085C39.9713 106.088 40.9981 103.903 43.55 102.43Z" fill="black"/>
        <path opacity="0.4545" d="M43.7017 102.692L51.4382 97.7795C51.7904 97.5757 54.0344 96.2743 54.4564 96.1735C56.305 95.3694 58.4869 95.015 60.5515 95.1977C61.3069 95.2653 62.0124 95.4491 62.6814 95.6186C63.3127 95.7792 64.8678 96.5069 65.3728 96.7982L80.3298 105.438L83.9328 107.52L95.2568 114.061C96.3921 114.717 98.8232 116.782 98.8232 117.935C98.8232 118.499 99.6605 120.681 98.4001 121.802C97.915 123.827 95.8471 126.347 93.8357 127.507L89.8097 129.996C89.2891 130.296 87.5402 131.252 86.931 131.45C85.8201 131.81 84.6372 132.135 83.4089 132.229C81.3941 132.377 79.447 132.068 77.9163 131.324C77.7757 131.271 77.1377 130.918 77.0159 130.847L61.5361 121.904L58.5523 120.179L45.1748 112.452C44.1104 111.836 41.3293 109.65 41.2528 108.582C41.1975 108.481 41.1476 108.378 41.1 108.276C40.2095 106.361 41.1388 104.171 43.7017 102.692Z" fill="black"/>
        <path opacity="0.5455" d="M43.8524 102.955L51.3419 98.1805C51.765 97.9357 53.783 96.7949 54.2892 96.6753C56.1145 95.9377 58.2389 95.6375 60.2159 95.8579C60.9458 95.9388 61.6204 96.1426 62.2639 96.3165C62.7889 96.4582 64.4381 97.2601 64.8601 97.5027L79.3596 105.879L82.8473 107.894L93.8203 114.234C94.7673 114.78 97.4454 116.879 97.4454 117.84C97.4454 118.309 98.8266 120.523 97.7755 121.458C97.7699 123.374 95.9978 125.875 93.8601 127.11L89.8872 129.587C89.453 129.838 87.5701 130.904 87.0662 131.075C85.9719 131.444 84.81 131.8 83.5939 131.913C81.6124 132.091 79.6697 131.817 78.1467 131.101C77.9773 131.038 77.3958 130.722 77.2485 130.636L61.9371 121.792L58.9876 120.088L45.7508 112.442C44.8636 111.93 41.7601 109.652 41.6981 108.765C41.6327 108.669 41.5752 108.572 41.5187 108.476C40.4476 106.631 41.2794 104.44 43.8524 102.955Z" fill="black"/>
        <path opacity="0.6364" d="M44.004 103.217L51.2455 98.5803C51.7384 98.2957 53.5304 97.3154 54.1219 97.1748C55.9228 96.5047 57.9907 96.2588 59.8803 96.5136C60.5858 96.6088 61.2282 96.8325 61.8462 97.0098C62.2638 97.1294 64.0093 98.0088 64.3461 98.2037L78.3881 106.315L81.7618 108.264L92.387 114.402C93.1446 114.84 96.0697 116.97 96.0697 117.739C96.0697 118.115 97.9947 120.359 97.154 121.106C97.627 122.916 96.1484 125.398 93.8878 126.704L89.968 129.172C89.6213 129.372 87.6044 130.552 87.2023 130.694C86.1246 131.073 84.9849 131.459 83.7821 131.592C81.8316 131.799 79.8955 131.559 78.3781 130.874C78.1799 130.801 77.6582 130.521 77.4854 130.421L62.3413 121.674L59.4284 119.99L46.3322 112.425C45.6222 112.015 42.1976 109.648 42.1477 108.939C42.0735 108.85 42.006 108.758 41.9406 108.667C40.6791 106.907 41.4189 104.709 44.004 103.217Z" fill="black"/>
        <path opacity="0.7273" d="M44.1548 103.478L51.1481 98.9802C51.7119 98.6545 53.278 97.836 53.9536 97.6754C55.7302 97.0707 57.7416 96.8835 59.5436 97.1726C60.2226 97.2823 60.8362 97.5237 61.4288 97.7053C61.74 97.8006 63.5797 98.7609 63.8322 98.9071L77.4169 106.754L80.6765 108.637L90.9505 114.573C91.5198 114.901 94.692 117.064 94.692 117.641C94.692 117.922 97.1608 120.199 96.5306 120.759C97.482 122.46 96.2991 124.924 93.9144 126.301L90.0478 128.758C89.7876 128.908 87.6377 130.205 87.3386 130.314C86.2776 130.702 85.1589 131.121 83.9694 131.271C82.0521 131.507 80.1194 131.3 78.6086 130.647C78.3827 130.563 77.9175 130.319 77.7215 130.206L62.7457 121.554L59.8682 119.892L46.9138 112.407C46.3821 112.101 42.6352 109.645 42.5975 109.111C42.5133 109.029 42.4358 108.943 42.3627 108.858C40.9029 107.189 41.5597 104.977 44.1548 103.478Z" fill="black"/>
        <path opacity="0.8182" d="M44.3065 103.741L51.0517 99.3811C51.6864 99.0145 53.0255 98.3566 53.7853 98.1761C55.5386 97.6389 57.4935 97.5082 59.208 97.8305C59.8615 97.9535 60.443 98.216 61.0112 98.402C61.2183 98.4696 63.15 99.5129 63.3183 99.6104L76.4455 107.194L79.591 109.012L89.5173 114.746C89.8961 114.964 93.3163 117.161 93.3163 117.545C93.3163 117.733 96.3301 120.04 95.9103 120.414C97.3402 122.008 96.4519 124.453 93.9432 125.901L90.1298 128.347C89.9559 128.447 87.6754 129.862 87.476 129.94C86.4338 130.338 85.335 130.786 84.1587 130.954C82.2725 131.221 80.3475 131.047 78.8412 130.425C78.5876 130.331 78.1789 130.122 77.9596 129.995L63.15 121.439L60.3079 119.797L47.4941 112.395C47.1397 112.189 43.0704 109.646 43.0461 109.29C42.953 109.213 42.8655 109.133 42.7836 109.054C41.1366 107.464 41.6992 105.246 44.3065 103.741Z" fill="black"/>
        <path opacity="0.9091" d="M44.457 104.003L50.9553 99.781C51.6608 99.3746 52.774 98.8784 53.6179 98.6768C55.3469 98.2061 57.2453 98.1341 58.8724 98.4896C59.4992 98.6281 60.0486 98.9083 60.5935 99.0988C60.6954 99.1342 62.7201 100.265 62.8043 100.314L75.4741 107.633L78.5055 109.384L88.0818 114.915C88.2723 115.025 91.9384 117.253 91.9384 117.446C91.9384 117.539 95.4971 119.878 95.2855 120.064C97.195 121.552 96.6014 123.977 93.9675 125.498L90.2061 127.932C90.1197 127.981 87.7074 129.52 87.6088 129.559C86.581 129.965 85.5066 130.446 84.3414 130.633C82.4884 130.93 80.5679 130.79 79.0682 130.198C78.7858 130.093 78.4368 129.921 78.1909 129.779L63.5508 121.321L60.7442 119.7L48.0711 112.379C47.8939 112.277 43.5034 109.643 43.4912 109.466C43.3882 109.395 43.2919 109.322 43.2011 109.248C41.358 107.753 41.8398 105.514 44.457 104.003Z" fill="black"/>
        <path opacity="0.2" d="M78.4281 129.567L61.184 119.606L43.9399 109.644C41.5519 108.266 41.851 105.857 44.6089 104.266L50.859 100.182C53.6158 98.5892 57.7881 98.4164 60.1761 99.7943L77.4202 109.756L94.6643 119.718C97.0511 121.097 96.7532 123.505 93.9953 125.096L87.7451 129.181C84.9872 130.774 80.816 130.945 78.4281 129.567Z" fill="black"/>
    </g>
    <path d="M83.0345 128.91L50.8335 110.32C47.2017 108.222 44.2566 102.595 44.2566 97.753V6.84969C44.2566 4.38641 42.232 3.84257 43.4581 2.95761C43.5046 2.92327 48.481 0.45114 48.5341 0.431203C49.8533 -0.0738588 51.2666 -0.299815 52.9811 0.690372L85.181 19.2813C88.8128 21.3791 91.7579 27.0045 91.7579 31.848V122.75C91.7579 125.323 90.9261 127.157 89.6025 127.998C89.5239 128.048 83.9682 130.855 83.8807 130.883C82.7089 131.277 84.6217 129.827 83.0345 128.91Z" fill="url(#paint0_linear_1_290)"/>
    <path d="M80.5324 124.905L48.3325 106.314C44.7007 104.217 41.7556 98.5905 41.7556 93.7481V7.99279C41.7556 3.1504 44.7007 0.924131 48.3325 3.02191L80.5324 21.6129C84.1642 23.7095 87.1093 29.3361 87.1093 34.1785V119.934C87.1104 124.776 84.1642 127.002 80.5324 124.905Z" fill="url(#paint1_linear_1_290)"/>
    <path d="M79.9587 130.364L47.7588 111.773C44.1259 109.675 41.1819 104.05 41.1819 99.2062V8.30393C41.1819 3.46043 44.1259 1.23417 47.7588 3.33195L79.9587 21.9229C83.5916 24.0207 86.5356 29.6461 86.5356 34.4885V125.392C86.5367 130.234 83.5927 132.461 79.9587 130.364Z" fill="white"/>
    <path d="M42.0791 99.7766V8.76798C42.0791 4.52147 44.6609 2.56991 47.8452 4.40851L79.8745 22.9009C83.0589 24.7384 85.6395 29.6705 85.6395 33.9159V124.926C85.6395 129.171 83.0589 131.123 79.8745 129.284L47.8452 110.792C44.6609 108.955 42.0791 104.022 42.0791 99.7766Z" fill="url(#paint2_linear_1_290)"/>
    <path d="M43.3606 95.15V9.72483C43.3606 6.17168 45.5215 4.53799 48.1864 6.07644L79.5334 24.1756C82.1983 25.714 84.3592 29.842 84.3592 33.3952V118.82C84.3592 122.375 82.1983 124.008 79.5334 122.469L48.1864 104.371C45.5215 102.831 43.3606 98.7043 43.3606 95.15Z" fill="url(#paint3_linear_1_290)"/>
    <path d="M48.5496 7.02136C46.0376 5.57041 44.0018 6.73117 44.0018 9.61423V95.9997C44.0018 98.8828 46.0376 102.394 48.5496 103.845L79.1701 121.524C81.6821 122.974 83.7178 121.813 83.7178 118.93V32.5447C83.7178 29.6616 81.681 26.1506 79.1701 24.6996L48.5496 7.02136Z" fill="#BCBEC0"/>
    <path opacity="0.5" d="M87.7894 57.9982V48.8373C87.7894 47.6655 88.5027 46.3054 89.3811 45.7981C90.2594 45.2908 90.9715 45.8291 90.9715 47.001V56.1607C90.9715 57.3326 90.2594 58.6927 89.3811 59.1999C88.5016 59.7072 87.7894 59.1678 87.7894 57.9982Z" fill="url(#paint4_linear_1_290)"/>
    <path d="M88.7486 59.0472C88.2956 59.0472 88.1339 58.4812 88.1339 57.9972V48.8363C88.1339 47.7952 88.783 46.5392 89.5516 46.095C89.7156 46.0009 89.8751 45.95 90.0113 45.95C90.4654 45.95 90.626 46.5159 90.626 46.9999V56.1608C90.626 57.2009 89.9769 58.4569 89.2083 58.9021C89.0444 58.9963 88.8849 59.0472 88.7486 59.0472Z" fill="url(#paint5_linear_1_290)"/>
    <path d="M88.6035 58.232V49.0723C88.6035 48.03 89.2526 46.774 90.0212 46.3298C90.1663 46.2468 90.3037 46.2047 90.4288 46.1947C90.3314 46.0485 90.1974 45.95 90.0113 45.95C89.8751 45.95 89.7156 46.0009 89.5516 46.095C88.783 46.5381 88.1339 47.7941 88.1339 48.8374V57.9972C88.1339 58.4823 88.2956 59.0472 88.7486 59.0472C88.7486 59.0472 88.7841 59.0395 88.8007 59.0383C88.6622 58.829 88.6035 58.5178 88.6035 58.232Z" fill="url(#paint6_radial_1_290)"/>
    <path d="M83.3236 118.93C83.3236 119.825 83.1132 120.561 82.7134 121.057C82.349 121.512 81.8295 121.753 81.2126 121.753C80.6533 121.753 80.0164 121.555 79.3684 121.181L48.748 103.501C46.3489 102.117 44.3973 98.7521 44.3973 95.9997V9.61426C44.3973 7.87424 45.2059 6.79211 46.5084 6.79211C47.0666 6.79211 47.7046 6.99037 48.3526 7.36474L78.973 25.043C81.371 26.4286 83.3236 29.7935 83.3236 32.5447V118.93Z" fill="url(#paint7_linear_1_290)"/>
    <path d="M63.6262 67.3502C63.585 67.3502 63.5432 67.3457 63.5014 67.3367C63.1969 67.2678 63.0059 66.9655 63.0749 66.661C63.5805 64.4245 63.8364 61.9705 63.8364 59.3668V59.1933C63.8364 58.8809 64.0895 58.6284 64.4013 58.6284C64.7131 58.6284 64.9662 58.8809 64.9662 59.1933V59.3668C64.9662 62.0541 64.7007 64.5923 64.177 66.9107C64.1177 67.1717 63.8849 67.3502 63.6262 67.3502Z" fill="#F1384C"/>
    <path d="M60.531 70.2849C60.4869 70.2849 60.4423 70.2798 60.3977 70.2691C60.0943 70.1962 59.9079 69.8906 59.9813 69.5872C60.866 65.9271 61.2688 60.8649 61.2688 57.7103C61.2688 56.8827 61.5433 56.2048 62.0427 55.8015C62.2851 55.6043 62.641 55.6427 62.837 55.8851C63.033 56.1274 62.9952 56.4839 62.7528 56.6793C62.5246 56.8641 62.3986 57.2301 62.3986 57.7098C62.3986 60.9293 61.9862 66.1017 61.0801 69.8522C61.0168 70.1109 60.7858 70.2849 60.531 70.2849Z" fill="#F1384C"/>
    <path d="M66.7457 61.1118C66.4339 61.1118 66.1808 60.8592 66.1808 60.5468C66.1808 59.195 65.1854 57.4788 64.007 56.7992C63.7369 56.6432 63.6443 56.2975 63.8002 56.0275C63.9556 55.7574 64.3007 55.6642 64.5719 55.8207C66.1079 56.7071 67.3106 58.7832 67.3106 60.5468C67.3106 60.8587 67.0581 61.1118 66.7457 61.1118Z" fill="#F1384C"/>
    <path d="M64.9747 73.5066C64.9323 73.5066 64.8894 73.5021 64.8464 73.4925C64.5425 73.4219 64.3527 73.1185 64.4233 72.8146C65.043 70.1402 65.6418 66.6824 65.9486 64.0041C65.9842 63.6939 66.2667 63.4708 66.574 63.5075C66.8841 63.5431 67.1061 63.8233 67.0711 64.1329C66.7598 66.849 66.1525 70.3572 65.5238 73.0688C65.4639 73.3304 65.2317 73.5066 64.9747 73.5066Z" fill="#F1384C"/>
    <path d="M70.1816 74.3269C70.1341 74.3269 70.085 74.3207 70.0364 74.3083C69.7347 74.2275 69.5551 73.9191 69.6353 73.6168C70.455 70.5329 70.8702 67.1044 70.8702 63.4268V63.2534C70.8702 58.9119 67.792 53.6022 64.0076 51.4177C62.2721 50.4167 60.6722 50.2359 59.5034 50.9115C58.3459 51.5798 57.7087 53.0328 57.7087 55.0027C57.7087 58.2504 57.3912 61.3241 56.7653 64.138C56.6975 64.4431 56.3958 64.6323 56.0913 64.5674C55.7868 64.4996 55.5947 64.1979 55.6625 63.8934C56.271 61.1598 56.5794 58.1685 56.5794 55.0033C56.5794 52.6125 57.4172 50.8115 58.9391 49.9331C60.4723 49.0484 62.4732 49.2275 64.5725 50.4393C68.6682 52.8046 72 58.5526 72 63.2539V63.4274C72 67.2033 71.5718 70.729 70.7279 73.9078C70.6606 74.1597 70.4318 74.3269 70.1816 74.3269Z" fill="#F1384C"/>
    <path d="M58.2267 67.6349C58.1798 67.6349 58.1329 67.6293 58.0855 67.6174C57.7833 67.5395 57.6013 67.231 57.6793 66.9293C58.0154 65.6227 58.2872 64.2431 58.4871 62.828C58.5312 62.519 58.8187 62.3049 59.1255 62.3473C59.4345 62.3908 59.6497 62.6766 59.6062 62.9856C59.4006 64.442 59.1204 65.8639 58.7736 67.2107C58.708 67.4655 58.4787 67.6349 58.2267 67.6349Z" fill="#F1384C"/>
    <path d="M59.2063 62.214C59.1854 62.214 59.1645 62.2128 59.1431 62.2106C58.8329 62.1755 58.6098 61.8965 58.6437 61.5869C58.8295 59.9102 58.9239 58.151 58.9239 56.3569C58.9239 55.2722 59.182 54.3361 59.6707 53.6492C59.8515 53.3961 60.2034 53.334 60.4588 53.517C60.713 53.6972 60.7723 54.0503 60.5915 54.3051C60.2396 54.7994 60.0537 55.5089 60.0537 56.3574C60.0537 58.1929 59.9571 59.9944 59.7667 61.7123C59.7345 62.0004 59.4899 62.214 59.2063 62.214Z" fill="#F1384C"/>
    <path d="M68.4269 59.2875C68.2026 59.2875 67.9896 59.1525 67.9015 58.931C67.084 56.8713 65.5921 55.0229 64.0075 54.1083C63.1177 53.5942 62.289 53.4157 61.6105 53.5908C61.3077 53.6705 60.9998 53.4874 60.9219 53.1858C60.8439 52.8835 61.0253 52.5751 61.3275 52.4971C62.2992 52.2452 63.4211 52.4638 64.5724 53.1293C66.3943 54.1806 68.0314 56.194 68.9517 58.5135C69.0669 58.8039 68.9251 59.1321 68.6347 59.2474C68.5664 59.2751 68.4958 59.2875 68.4269 59.2875Z" fill="#F1384C"/>
    <path d="M67.3173 74.31C67.2586 74.31 67.1987 74.3004 67.1394 74.2812C66.8434 74.1829 66.6829 73.8632 66.7812 73.5671L66.8767 73.2785C67.971 69.9805 68.5251 66.2102 68.5251 62.0727V61.8993C68.5251 61.5869 68.7782 61.3344 69.0901 61.3344C69.4025 61.3344 69.655 61.5869 69.655 61.8993V62.0727C69.655 66.3311 69.081 70.2211 67.9489 73.6338L67.8535 73.9225C67.7749 74.1597 67.5546 74.31 67.3173 74.31Z" fill="#F1384C"/>
    <defs>
        <linearGradient id="paint0_linear_1_290" x1="31.905" y1="2.26847" x2="75.4606" y2="77.709" gradientUnits="userSpaceOnUse">
            <stop offset="0.0556" stop-color="#F37E8B"/>
            <stop offset="0.463542" stop-color="#F38490"/>
            <stop offset="0.5329" stop-color="#E7C8C8"/>
            <stop offset="0.5466" stop-color="#F4E7E7"/>
            <stop offset="0.5556" stop-color="white"/>
            <stop offset="0.5678" stop-color="#F3E0E0"/>
            <stop offset="0.5801" stop-color="#EAC8C8"/>
            <stop offset="0.5915" stop-color="#FFBDC4"/>
            <stop offset="0.601" stop-color="#F6919B"/>
            <stop offset="1" stop-color="#EE596A"/>
        </linearGradient>
        <linearGradient id="paint1_linear_1_290" x1="89.8602" y1="161.97" x2="52.9981" y2="4.35352" gradientUnits="userSpaceOnUse">
            <stop offset="0.096" stop-color="#DC2E3F"/>
            <stop offset="1" stop-color="#F36373"/>
        </linearGradient>
        <linearGradient id="paint2_linear_1_290" x1="92.2216" y1="126.777" x2="24.5213" y2="-16.2751" gradientUnits="userSpaceOnUse">
            <stop stop-color="#DC2E3F"/>
            <stop offset="0.6493" stop-color="#F58E99"/>
            <stop offset="0.8997" stop-color="#F4EDF8"/>
            <stop offset="1" stop-color="white"/>
        </linearGradient>
        <linearGradient id="paint3_linear_1_290" x1="86.846" y1="157.587" x2="50.088" y2="8.3635" gradientUnits="userSpaceOnUse">
            <stop offset="0.096" stop-color="#DC2E3F"/>
            <stop offset="1" stop-color="#F36373"/>
        </linearGradient>
        <linearGradient id="paint4_linear_1_290" x1="90.6944" y1="56.0532" x2="83.0676" y2="35.4446" gradientUnits="userSpaceOnUse">
            <stop offset="0.096" stop-color="#45108A"/>
            <stop offset="1" stop-color="#7C1DC9"/>
        </linearGradient>
        <linearGradient id="paint5_linear_1_290" x1="91.8729" y1="52.6061" x2="83.8727" y2="52.262" gradientUnits="userSpaceOnUse">
            <stop stop-color="#DC2E3F"/>
            <stop offset="0.6493" stop-color="#F68490"/>
            <stop offset="0.8997" stop-color="#F4EDF8"/>
            <stop offset="1" stop-color="white"/>
        </linearGradient>
        <radialGradient id="paint6_radial_1_290" cx="0" cy="0" r="1" gradientUnits="userSpaceOnUse" gradientTransform="translate(88.3429 49.2125) scale(4.70082 4.70083)">
            <stop stop-color="#711F56"/>
            <stop offset="0.1614" stop-color="#6C1E52"/>
            <stop offset="0.3626" stop-color="#5C1946"/>
            <stop offset="0.5849" stop-color="#431233"/>
            <stop offset="0.8208" stop-color="#200918"/>
            <stop offset="1"/>
        </radialGradient>
        <linearGradient id="paint7_linear_1_290" x1="83.4205" y1="127.767" x2="42.5236" y2="-4.98634" gradientUnits="userSpaceOnUse">
            <stop offset="0.0303" stop-color="#111111"/>
            <stop offset="1" stop-color="#868686"/>
        </linearGradient>
    </defs>
</svg>
