<svg width="164" height="136" viewBox="0 0 164 136" fill="none" xmlns="http://www.w3.org/2000/svg">
    <path opacity="0.7" d="M44.2778 62.6858C43.4376 62.6858 42.6329 62.5159 42.0338 62.1691L24.0019 51.76C23.3865 51.403 23.0478 50.9015 23.0478 50.3461C23.0478 49.69 23.5248 49.039 24.3569 48.5579L41.6788 38.5578C43.1924 37.683 45.4953 37.5914 46.8157 38.3533L64.8466 48.7623C65.462 49.1194 65.8017 49.6209 65.8017 50.1763C65.8017 50.8324 65.3247 51.4834 64.4926 51.9635L47.1707 61.9646C46.3457 62.4407 45.2858 62.6858 44.2778 62.6858ZM44.5727 38.2363C43.639 38.2363 42.6523 38.4652 41.8833 38.9097L24.5613 48.9098C23.8585 49.3157 23.4557 49.8396 23.4546 50.3451C23.4546 50.7489 23.7222 51.1263 24.2063 51.4061L42.2383 61.8151C43.4447 62.5129 45.5665 62.4203 46.9683 61.6116L64.2902 51.6105C64.9931 51.2047 65.3959 50.6818 65.3969 50.1752C65.3969 49.7704 65.1294 49.394 64.6442 49.1143L46.6132 38.7043C46.068 38.391 45.3377 38.2363 44.5727 38.2363Z" fill="#ABABAB"/>
    <path opacity="0.7" d="M140.593 132.536C140.169 132.536 139.762 132.448 139.451 132.268L130.716 127.225C130.385 127.034 130.202 126.758 130.202 126.45C130.202 126.094 130.452 125.745 130.888 125.493L139.28 120.648C140.055 120.2 141.196 120.156 141.874 120.548L150.609 125.591C150.94 125.783 151.124 126.058 151.124 126.367C151.125 126.724 150.874 127.071 150.437 127.323L142.045 132.169C141.624 132.413 141.097 132.536 140.593 132.536ZM139.656 131.917C140.202 132.234 141.204 132.189 141.842 131.818L150.233 126.973C150.537 126.797 150.718 126.57 150.718 126.367C150.718 126.166 150.548 126.027 150.405 125.943L141.671 120.9C141.125 120.585 140.124 120.632 139.485 121.001L131.093 125.845C130.791 126.021 130.61 126.248 130.61 126.451C130.61 126.651 130.78 126.792 130.922 126.874L139.656 131.917Z" fill="#999999"/>
    <path d="M46.0304 55.1198L55.1058 1.27734L54.3765 0.970157L55.4731 0.341515L55.472 0.347614C55.6846 0.206223 55.9857 0.215385 56.3173 0.405602L128.847 42.2807C129.442 42.6245 129.894 43.5065 129.789 44.1239L120.641 98.3936C120.593 98.6764 120.453 98.8635 120.26 98.9459H120.261L119.187 99.5654L119.002 98.5635L119.064 98.5828L46.9744 56.962C46.3762 56.6182 45.9256 55.7363 46.0304 55.1198Z" fill="url(#paint0_linear_1_704)"/>
    <path d="M128.44 43.7536L129.632 43.2257C129.765 43.5309 129.831 43.8523 129.786 44.1239L120.638 98.3936C120.59 98.6764 120.45 98.8636 120.257 98.946H120.258L119.184 99.5654L118.999 98.5635L119.061 98.5828L115.414 96.4772L128.44 43.7536Z" fill="url(#paint1_linear_1_704)"/>
    <path d="M45.8341 57.615L118.364 99.4901C118.924 99.8136 119.403 99.6275 119.502 99.0466L128.65 44.7769C128.754 44.1605 128.304 43.2786 127.708 42.9348L55.1781 1.05967C54.6176 0.737216 54.1385 0.923353 54.0398 1.50316L44.8921 55.7729C44.7874 56.3893 45.238 57.2712 45.8341 57.615Z" fill="#252526"/>
    <g opacity="0.51">
        <path opacity="0.51" d="M56.1251 4.52307L126.037 44.8866L117.368 95.9989L47.5023 55.6608L56.1251 4.52307Z" fill="#5A5A5A"/>
    </g>
    <path opacity="0.7" d="M74.1448 135.794C73.5904 135.794 73.0076 135.657 72.5437 135.389L0.75171 93.9413C0.273625 93.6656 0 93.2842 0 92.8987C0 92.564 0.199373 92.265 0.561497 92.0564L43.4019 67.3222C44.1506 66.8909 45.4058 66.9387 46.2613 67.432L118.052 108.882C118.529 109.158 118.804 109.538 118.804 109.926C118.804 110.259 118.605 110.558 118.243 110.767L75.4021 135.5C75.0603 135.696 74.6117 135.794 74.1448 135.794ZM44.6541 67.4371C44.2574 67.4371 43.88 67.5144 43.6064 67.6721L0.765958 92.4063C0.603206 92.4999 0.407899 92.6617 0.407899 92.8956C0.407899 93.1326 0.607272 93.3849 0.956172 93.5863L72.7472 135.035C73.4633 135.446 74.5863 135.497 75.1986 135.145L118.039 110.411C118.203 110.317 118.397 110.155 118.397 109.923C118.397 109.685 118.198 109.432 117.848 109.231L46.0568 67.782C45.6622 67.5551 45.1434 67.4371 44.6541 67.4371Z" fill="#AAAAAA"/>
    <path d="M0.242188 83.3085L4.20011 85.3754L43.8903 62.4609C44.5545 62.0775 45.7141 62.1253 46.4811 62.5678L114.935 102.09C115.59 101.724 118.576 100.288 118.576 100.288L117.128 104.062L117.123 104.058C117.063 104.226 116.933 104.382 116.718 104.507L74.9169 128.641C74.2527 129.025 73.0931 128.977 72.3261 128.534L2.27659 88.0913C1.96126 87.9093 1.769 87.6886 1.68864 87.4668L1.68355 87.4698L0.242188 83.3085Z" fill="url(#paint2_linear_1_704)"/>
    <path d="M0.854545 83.9595L72.6466 125.408C73.4318 125.862 74.621 125.911 75.3015 125.518L118.142 100.784C118.822 100.391 118.737 99.7048 117.951 99.2511L46.1587 57.8022C45.3734 57.3485 44.1843 57.2997 43.5038 57.6923L0.662299 82.4266C-0.0171915 82.8192 0.0682487 83.5049 0.854545 83.9595Z" fill="url(#paint3_linear_1_704)"/>
    <path d="M0.854528 83.637L72.6465 125.086C73.4318 125.54 74.6209 125.589 75.3014 125.196L118.142 100.462C118.381 100.323 118.521 100.147 118.573 99.959C118.649 100.264 118.514 100.567 118.142 100.783L75.3014 125.517C74.6209 125.91 73.4318 125.861 72.6465 125.407L0.854528 83.9585C0.345928 83.6645 0.135368 83.2739 0.232002 82.927C0.295068 83.1793 0.498508 83.4325 0.854528 83.637Z" fill="white"/>
    <path d="M94.2996 116.442V115.654C94.2996 115.58 94.2549 115.546 94.1979 115.578L91.421 117.181C91.365 117.214 91.3192 117.3 91.3192 117.375V118.161C91.3192 118.236 91.364 118.27 91.421 118.238L94.1979 116.635C94.2549 116.602 94.2996 116.516 94.2996 116.442Z" fill="#201D2D"/>
    <path d="M90.1474 118.839V118.053C90.1474 117.978 90.1027 117.944 90.0467 117.976L87.2698 119.579C87.2138 119.611 87.168 119.698 87.168 119.773V120.559C87.168 120.634 87.2138 120.668 87.2698 120.636L90.0467 119.033C90.1016 119.001 90.1474 118.915 90.1474 118.839Z" fill="#201D2D"/>
    <path d="M106.972 98.4668L47.3131 64.0234C46.9153 63.7935 46.4251 63.7935 46.0273 64.0234L24.7831 76.3142C24.4779 76.4902 24.4789 76.9306 24.7831 77.1066L84.4145 111.535C84.8122 111.764 85.3015 111.764 85.6992 111.535L106.972 99.2592C107.278 99.0842 107.278 98.6438 106.972 98.4668Z" fill="#9B2330"/>
    <path d="M106.972 99.2613L106.758 99.3844L47.3131 65.064C46.9154 64.8342 46.4251 64.8342 46.0274 65.064L24.9977 77.2308L24.7841 77.1077C24.479 76.9317 24.479 76.4913 24.7841 76.3153L46.0284 64.0245C46.4261 63.7946 46.9164 63.7946 47.3141 64.0245L106.973 98.4679C107.278 98.6439 107.278 99.0843 106.972 99.2613Z" fill="white" fill-opacity="0.4"/>
    <path d="M44.4252 67.137L96.2465 97.056L98.5515 95.7254L46.7292 65.8065L44.4252 67.137Z" fill="#313131"/>
    <path d="M38.7757 70.3981L87.3826 98.4607L89.6876 97.1312L41.0797 69.0676L38.7757 70.3981Z" fill="#313131"/>
    <path d="M35.0965 72.5221L92.3262 105.564L94.6302 104.233L37.4004 71.1926L35.0965 72.5221Z" fill="#313131"/>
    <path d="M31.4173 74.646L88.647 107.689L90.951 106.358L33.7223 73.3165L31.4173 74.646Z" fill="#313131"/>
    <path d="M27.738 76.7709L84.9678 109.813L87.2718 108.482L30.042 75.4404L27.738 76.7709Z" fill="#313131"/>
    <path d="M99.3785 98.8635L101.682 100.195L103.986 98.8635L101.682 97.533L99.3785 98.8635Z" fill="#313131"/>
    <path d="M91.2511 100.695L96.0329 103.456L98.3379 102.126L93.5551 99.364L91.2511 100.695Z" fill="#313131"/>
    <path d="M45.0163 106.803L28.9302 97.5158C28.3016 97.1526 28.3016 96.5637 28.9302 96.2015L39.9303 89.8501C40.5589 89.487 41.5781 89.487 42.2067 89.8501L58.2928 99.1372C58.9214 99.5003 58.9214 100.088 58.2928 100.451L47.2927 106.802C46.6641 107.166 45.6449 107.166 45.0163 106.803Z" fill="url(#paint4_linear_1_704)"/>
    <path d="M58.2937 99.6753L42.2077 90.3882C41.5791 90.0251 40.5598 90.0251 39.9312 90.3882L28.9312 96.7396C28.7369 96.8515 28.6108 96.9858 28.5355 97.1282C28.3687 96.8098 28.4958 96.4528 28.9312 96.2015L39.9312 89.8501C40.5598 89.487 41.5791 89.487 42.2077 89.8501L58.2937 99.1372C58.7281 99.3884 58.8552 99.7455 58.6884 100.064C58.6141 99.9214 58.487 99.7871 58.2937 99.6753Z" fill="#DDDDDD"/>
    <g opacity="0.11">
        <g opacity="0.11">
            <path opacity="0.11" d="M46.0884 57.7168L117.88 99.1657C118.666 99.6193 119.855 99.6692 120.535 99.2755L163.376 74.5413C164.056 74.1486 163.971 73.462 163.185 73.0084L91.3935 31.5594C90.6072 31.1068 89.4191 31.0569 88.7386 31.4496L45.8982 56.1838C45.2177 56.5775 45.3021 57.2631 46.0884 57.7168Z" fill="url(#paint5_linear_1_704)"/>
            <path opacity="0.11" d="M118.094 65.1474L102.008 55.8603C101.379 55.4972 101.379 54.9082 102.008 54.5451L113.008 48.1947C113.637 47.8316 114.656 47.8316 115.285 48.1947L131.371 57.4818C131.999 57.8449 131.999 58.4328 131.371 58.796L120.371 65.1474C119.742 65.5105 118.723 65.5105 118.094 65.1474Z" fill="url(#paint6_linear_1_704)"/>
            <path opacity="0.11" d="M131.371 58.021L115.284 48.7329C114.656 48.3708 113.636 48.3708 113.008 48.7329L102.008 55.0843C101.814 55.1962 101.688 55.3305 101.613 55.4729C101.446 55.1545 101.574 54.7975 102.008 54.5462L113.008 48.1958C113.637 47.8327 114.656 47.8327 115.284 48.1958L131.371 57.4829C131.805 57.7341 131.932 58.0911 131.766 58.4095C131.692 58.2671 131.565 58.1329 131.371 58.021Z" fill="#DDDDDD"/>
            <g opacity="0.11">
                <path opacity="0.11" d="M138.442 79.662L78.7833 45.2186C78.3856 44.9887 77.8953 44.9887 77.4976 45.2186L56.2533 57.5094C55.9492 57.6864 55.9492 58.1258 56.2533 58.3018L115.885 92.73C116.281 92.9588 116.772 92.9588 117.168 92.73L138.441 80.4544C138.747 80.2784 138.748 79.838 138.442 79.662Z" fill="#C1C1C1"/>
                <path opacity="0.11" d="M138.442 80.4553L138.228 80.5784L78.7832 46.258C78.3855 46.0281 77.8952 46.0281 77.4975 46.258L56.4669 58.4248L56.2533 58.3017C55.9481 58.1257 55.9481 57.6863 56.2533 57.5093L77.4975 45.2185C77.8952 44.9886 78.3855 44.9875 78.7832 45.2185L138.442 79.6619C138.747 79.8379 138.747 80.2783 138.442 80.4553Z" fill="#DDDDDD"/>
            </g>
        </g>
    </g>
    <path d="M85.4439 37.8182L85.7023 36.3158L87.0023 37.0675L86.7449 38.5709L85.4439 37.8182Z" fill="#F1384C"/>
    <path opacity="0.1" d="M84.9272 40.823L85.1855 39.3206L86.4865 40.0733L86.2282 41.5767L84.9272 40.823Z" fill="#F1384C"/>
    <path opacity="0.4" d="M84.4104 43.8289L84.6688 42.3265L85.9698 43.0793L85.7114 44.5827L84.4104 43.8289Z" fill="#F1384C"/>
    <path d="M83.8937 46.8347L84.152 45.3323L85.453 46.085L85.1947 47.5874L83.8937 46.8347Z" fill="#F1384C"/>
    <path opacity="0.4" d="M83.377 49.8404L83.6353 48.338L84.9363 49.0897L84.6779 50.5932L83.377 49.8404Z" fill="#F1384C"/>
    <path d="M82.8602 52.8464L83.1185 51.343L84.4195 52.0957L84.1612 53.5992L82.8602 52.8464Z" fill="#F1384C"/>
    <path d="M82.3434 55.8512L82.6018 54.3488L83.9028 55.1015L83.6444 56.6049L82.3434 55.8512Z" fill="#F1384C"/>
    <path d="M81.8267 58.8569L82.0851 57.3545L83.386 58.1072L83.1277 59.6096L81.8267 58.8569Z" fill="#F1384C"/>
    <path opacity="0.1" d="M81.31 61.8628L81.5683 60.3594L82.8693 61.1131L82.611 62.6155L81.31 61.8628Z" fill="#F1384C"/>
    <path d="M82.8307 36.3067L83.0891 34.8032L84.39 35.557L84.1317 37.0594L82.8307 36.3067Z" fill="#F1384C"/>
    <path d="M82.314 39.3124L82.5723 37.809L83.8733 38.5617L83.615 40.0641L82.314 39.3124Z" fill="#F1384C"/>
    <path d="M81.7972 42.3174L82.0555 40.8149L83.3566 41.5677L83.0992 43.0701L81.7972 42.3174Z" fill="#F1384C"/>
    <path d="M81.2805 45.3231L81.5389 43.8207L82.8409 44.5734L82.5825 46.0758L81.2805 45.3231Z" fill="#F1384C"/>
    <path d="M80.7647 48.3289L81.0231 46.8254L82.3231 47.5782L82.0647 49.0816L80.7647 48.3289Z" fill="#F1384C"/>
    <path d="M80.248 51.3337L80.5064 49.8313L81.8073 50.584L81.549 52.0875L80.248 51.3337Z" fill="#F1384C"/>
    <path d="M79.7313 54.3396L79.9896 52.8372L81.2906 53.5899L81.0323 55.0923L79.7313 54.3396Z" fill="#F1384C"/>
    <path d="M79.2145 57.3454L79.4729 55.8419L80.7739 56.5957L80.5155 58.0981L79.2145 57.3454Z" fill="#F1384C"/>
    <path d="M78.6978 60.3512L78.9562 58.8478L80.2572 59.6005L79.9988 61.1039L78.6978 60.3512Z" fill="#F1384C"/>
    <path d="M80.2185 34.795L80.4769 33.2916L81.7779 34.0444L81.5195 35.5478L80.2185 34.795Z" fill="#F1384C"/>
    <path d="M79.7018 37.7999L79.9602 36.2975L81.2612 37.0502L81.0028 38.5526L79.7018 37.7999Z" fill="#F1384C"/>
    <path d="M79.185 40.8055L79.4434 39.3021L80.7444 40.0549L80.486 41.5583L79.185 40.8055Z" fill="#F1384C"/>
    <path opacity="0.1" d="M78.6683 43.8115L78.9267 42.3081L80.2277 43.0618L79.9693 44.5643L78.6683 43.8115Z" fill="#F1384C"/>
    <path opacity="0.4" d="M78.1516 46.8163L78.4099 45.3138L79.7109 46.0666L79.4526 47.57L78.1516 46.8163Z" fill="#F1384C"/>
    <path opacity="0.4" d="M77.6348 49.8221L77.8932 48.3197L79.1942 49.0724L78.9358 50.5748L77.6348 49.8221Z" fill="#F1384C"/>
    <path d="M77.1181 52.828L77.3765 51.3256L78.6775 52.0783L78.4191 53.5807L77.1181 52.828Z" fill="#F1384C"/>
    <path d="M76.6014 55.8338L76.8597 54.3314L78.1608 55.0831L77.9024 56.5866L76.6014 55.8338Z" fill="#F1384C"/>
    <path d="M76.0856 58.8386L76.343 57.3362L77.644 58.0889L77.3856 59.5923L76.0856 58.8386Z" fill="#F1384C"/>
    <path opacity="0.4" d="M77.6053 33.2824L77.8637 31.78L79.1647 32.5328L78.9063 34.0362L77.6053 33.2824Z" fill="#F1384C"/>
    <path opacity="0.4" d="M77.0885 36.2883L77.3469 34.7859L78.6489 35.5386L78.3905 37.041L77.0885 36.2883Z" fill="#F1384C"/>
    <path opacity="0.1" d="M76.5729 39.2933L76.8302 37.7909L78.1312 38.5436L77.8729 40.047L76.5729 39.2933Z" fill="#F1384C"/>
    <path d="M76.0561 42.3001L76.3145 40.7966L77.6145 41.5493L77.3571 43.0528L76.0561 42.3001Z" fill="#F1384C"/>
    <path d="M75.5384 45.3058L75.7978 43.8024L77.0987 44.5551L76.8404 46.0575L75.5384 45.3058Z" fill="#F1384C"/>
    <path d="M75.0226 48.3106L75.281 46.8082L76.582 47.561L76.3236 49.0634L75.0226 48.3106Z" fill="#F1384C"/>
    <path opacity="0.4" d="M74.5059 51.3164L74.7642 49.813L76.0652 50.5657L75.8069 52.0691L74.5059 51.3164Z" fill="#F1384C"/>
    <path d="M73.9892 54.3224L74.2475 52.819L75.5485 53.5727L75.2902 55.0751L73.9892 54.3224Z" fill="#F1384C"/>
    <path d="M73.4724 57.3272L73.7308 55.8248L75.0318 56.5776L74.7734 58.08L73.4724 57.3272Z" fill="#F1384C"/>
    <path d="M74.9932 31.7709L75.2515 30.2675L76.5525 31.0212L76.2942 32.5236L74.9932 31.7709Z" fill="#F1384C"/>
    <path d="M74.4765 34.7766L74.7348 33.2732L76.0358 34.0269L75.7775 35.5293L74.4765 34.7766Z" fill="#F1384C"/>
    <path d="M73.9597 37.7825L74.2181 36.2802L75.5191 37.0319L75.2607 38.5343L73.9597 37.7825Z" fill="#F1384C"/>
    <path d="M73.443 40.7873L73.7013 39.2849L75.0023 40.0376L74.744 41.54L73.443 40.7873Z" fill="#F1384C"/>
    <path d="M72.9262 43.7931L73.1846 42.2906L74.4856 43.0434L74.2272 44.5468L72.9262 43.7931Z" fill="#F1384C"/>
    <path d="M72.4095 46.7991L72.6678 45.2968L73.9688 46.0495L73.7105 47.5519L72.4095 46.7991Z" fill="#F1384C"/>
    <path d="M71.8927 49.8039L72.1511 48.3015L73.4521 49.0542L73.1937 50.5577L71.8927 49.8039Z" fill="#F1384C"/>
    <path d="M71.377 52.8107L71.6354 51.3073L72.9354 52.06L72.677 53.5634L71.377 52.8107Z" fill="#F1384C"/>
    <path d="M70.8593 55.8155L71.1186 54.3131L72.4197 55.0658L72.1613 56.5682L70.8593 55.8155Z" fill="#F1384C"/>
    <path d="M72.38 30.2594L72.6383 28.757L73.9393 29.5087L73.681 31.0121L72.38 30.2594Z" fill="#F1384C"/>
    <path d="M71.8642 33.2651L72.1226 31.7617L73.4226 32.5144L73.1642 34.0179L71.8642 33.2651Z" fill="#F1384C"/>
    <path opacity="0.4" d="M71.3465 36.27L71.6059 34.7676L72.9069 35.5203L72.6485 37.0237L71.3465 36.27Z" fill="#F1384C"/>
    <path d="M70.8308 39.2757L71.0881 37.7733L72.3902 38.526L72.1318 40.0284L70.8308 39.2757Z" fill="#F1384C"/>
    <path opacity="0.1" d="M70.314 42.2817L70.5724 40.7783L71.8734 41.5321L71.615 43.0345L70.314 42.2817Z" fill="#F1384C"/>
    <path d="M69.7973 45.2875L70.0557 43.7841L71.3567 44.5378L71.0983 46.0402L69.7973 45.2875Z" fill="#F1384C"/>
    <path d="M69.2805 48.2933L69.5389 46.7899L70.8399 47.5426L70.5815 49.045L69.2805 48.2933Z" fill="#F1384C"/>
    <path d="M68.7638 51.298L69.0222 49.7957L70.3232 50.5484L70.0648 52.0508L68.7638 51.298Z" fill="#F1384C"/>
    <path d="M68.2471 54.3038L68.5055 52.8014L69.8065 53.5541L69.5481 55.0565L68.2471 54.3038Z" fill="#F1384C"/>
    <path d="M69.7678 28.7468L70.0262 27.2444L71.3272 27.9971L71.0688 29.5005L69.7678 28.7468Z" fill="#F1384C"/>
    <path d="M69.2511 31.7527L69.5094 30.2502L70.8104 31.003L70.5521 32.5064L69.2511 31.7527Z" fill="#F1384C"/>
    <path opacity="0.4" d="M68.7343 34.7586L68.9927 33.2562L70.2937 34.009L70.0353 35.5114L68.7343 34.7586Z" fill="#F1384C"/>
    <path d="M68.2176 37.7644L68.476 36.261L69.777 37.0147L69.5186 38.5171L68.2176 37.7644Z" fill="#F1384C"/>
    <path d="M67.7009 40.7702L67.9592 39.2667L69.2602 40.0195L69.0019 41.5229L67.7009 40.7702Z" fill="#F1384C"/>
    <path opacity="0.1" d="M67.1852 43.7761L67.4425 42.2727L68.7435 43.0254L68.4851 44.5289L67.1852 43.7761Z" fill="#F1384C"/>
    <path opacity="0.4" d="M66.6674 46.7809L66.9268 45.2784L68.2268 46.0312L67.9694 47.5336L66.6674 46.7809Z" fill="#F1384C"/>
    <path d="M66.1506 49.7866L66.409 48.2832L67.711 49.037L67.4527 50.5394L66.1506 49.7866Z" fill="#F1384C"/>
    <path opacity="0.1" d="M65.6349 52.7925L65.8933 51.2891L67.1943 52.0428L66.9349 53.5452L65.6349 52.7925Z" fill="#F1384C"/>
    <path d="M67.1556 27.2351L67.414 25.7327L68.714 26.4854L68.4566 27.9878L67.1556 27.2351Z" fill="#F1384C"/>
    <path opacity="0.4" d="M66.6378 30.241L66.8962 28.7386L68.1982 29.4914L67.9399 30.9938L66.6378 30.241Z" fill="#F1384C"/>
    <path d="M66.1221 33.2469L66.3805 31.7445L67.6815 32.4972L67.4221 33.9996L66.1221 33.2469Z" fill="#F1384C"/>
    <path d="M65.6054 36.2526L65.8637 34.7502L67.1648 35.502L66.9064 37.0043L65.6054 36.2526Z" fill="#F1384C"/>
    <path d="M65.0887 39.2574L65.347 37.755L66.648 38.5077L66.3896 40.0112L65.0887 39.2574Z" fill="#F1384C"/>
    <path d="M64.5719 42.2634L64.8303 40.761L66.1313 41.5137L65.8729 43.0171L64.5719 42.2634Z" fill="#F1384C"/>
    <path d="M64.0552 45.2691L64.3135 43.7667L65.6145 44.5194L65.3562 46.0219L64.0552 45.2691Z" fill="#F1384C"/>
    <path opacity="0.4" d="M63.5384 48.2749L63.7968 46.7725L65.0978 47.5242L64.8394 49.0276L63.5384 48.2749Z" fill="#F1384C"/>
    <path d="M63.0217 51.2808L63.2801 49.7773L64.5811 50.5301L64.3227 52.0335L63.0217 51.2808Z" fill="#F1384C"/>
    <path d="M64.5424 25.7247L64.8008 24.2213L66.1018 24.974L65.8434 26.4765L64.5424 25.7247Z" fill="#F1384C"/>
    <path opacity="0.1" d="M64.0257 28.7295L64.2841 27.2271L65.5851 27.9788L65.3267 29.4822L64.0257 28.7295Z" fill="#F1384C"/>
    <path d="M63.509 31.7355L63.7674 30.2321L65.0683 30.9848L64.81 32.4882L63.509 31.7355Z" fill="#F1384C"/>
    <path d="M62.9922 34.7412L63.2506 33.2378L64.5516 33.9916L64.2932 35.4939L62.9922 34.7412Z" fill="#F1384C"/>
    <path d="M62.4755 37.7459L62.7348 36.2435L64.0348 36.9963L63.7765 38.4987L62.4755 37.7459Z" fill="#F1384C"/>
    <path d="M61.9587 40.7518L62.2171 39.2494L63.5191 40.0021L63.2608 41.5045L61.9587 40.7518Z" fill="#F1384C"/>
    <path opacity="0.4" d="M61.443 43.7575L61.7004 42.2551L63.0024 43.0079L62.743 44.5103L61.443 43.7575Z" fill="#F1384C"/>
    <path d="M60.9263 46.7633L61.1847 45.2609L62.4846 46.0126L62.2273 47.515L60.9263 46.7633Z" fill="#F1384C"/>
    <path d="M60.4095 49.7682L60.6679 48.2657L61.9689 49.0185L61.7105 50.5219L60.4095 49.7682Z" fill="#F1384C"/>
    <path d="M108.928 51.3522L109.186 49.8488L110.487 50.6025L110.229 52.1049L108.928 51.3522Z" fill="#F1384C"/>
    <path opacity="0.1" d="M108.411 54.3579L108.67 52.8545L109.971 53.6082L109.712 55.1106L108.411 54.3579Z" fill="#F1384C"/>
    <path opacity="0.4" d="M107.895 57.3638L108.153 55.8615L109.454 56.6132L109.196 58.1156L107.895 57.3638Z" fill="#F1384C"/>
    <path d="M107.378 60.3686L107.636 58.8662L108.937 59.6189L108.679 61.1213L107.378 60.3686Z" fill="#F1384C"/>
    <path opacity="0.4" d="M106.861 63.3744L107.119 61.8719L108.42 62.6247L108.162 64.1281L106.861 63.3744Z" fill="#F1384C"/>
    <path d="M106.344 66.3803L106.603 64.8779L107.904 65.6306L107.645 67.1331L106.344 66.3803Z" fill="#F1384C"/>
    <path d="M105.828 69.3851L106.086 67.8827L107.387 68.6354L107.13 70.1388L105.828 69.3851Z" fill="#F1384C"/>
    <path d="M105.311 72.392L105.569 70.8885L106.87 71.6413L106.613 73.1447L105.311 72.392Z" fill="#F1384C"/>
    <path opacity="0.1" d="M104.795 75.3977L105.054 73.8943L106.353 74.647L106.095 76.1494L104.795 75.3977Z" fill="#F1384C"/>
    <path d="M106.315 49.8404L106.573 48.338L107.874 49.0897L107.617 50.5932L106.315 49.8404Z" fill="#F1384C"/>
    <path d="M105.798 52.8463L106.056 51.3429L107.358 52.0956L107.099 53.599L105.798 52.8463Z" fill="#F1384C"/>
    <path d="M105.282 55.8512L105.541 54.3488L106.841 55.1015L106.582 56.6049L105.282 55.8512Z" fill="#F1384C"/>
    <path d="M104.766 58.8569L105.024 57.3545L106.325 58.1072L106.067 59.6096L104.766 58.8569Z" fill="#F1384C"/>
    <path d="M104.249 61.8628L104.506 60.3594L105.808 61.1131L105.55 62.6155L104.249 61.8628Z" fill="#F1384C"/>
    <path d="M103.732 64.8687L103.991 63.3652L105.292 64.119L105.033 65.6214L103.732 64.8687Z" fill="#F1384C"/>
    <path d="M103.215 67.8745L103.474 66.3711L104.775 67.1238L104.516 68.6262L103.215 67.8745Z" fill="#F1384C"/>
    <path d="M102.699 70.8792L102.957 69.3768L104.258 70.1295L104 71.6319L102.699 70.8792Z" fill="#F1384C"/>
    <path d="M102.182 73.885L102.44 72.3826L103.741 73.1353L103.483 74.6377L102.182 73.885Z" fill="#F1384C"/>
    <path d="M103.703 48.329L103.961 46.8256L105.262 47.5783L105.004 49.0817L103.703 48.329Z" fill="#F1384C"/>
    <path d="M103.186 51.3337L103.444 49.8313L104.745 50.584L104.487 52.0875L103.186 51.3337Z" fill="#F1384C"/>
    <path d="M102.669 54.3397L102.928 52.8373L104.229 53.59L103.97 55.0924L102.669 54.3397Z" fill="#F1384C"/>
    <path opacity="0.1" d="M102.152 57.3455L102.411 55.842L103.712 56.5958L103.453 58.0982L102.152 57.3455Z" fill="#F1384C"/>
    <path opacity="0.4" d="M101.636 60.3513L101.894 58.8479L103.195 59.6006L102.937 61.1041L101.636 60.3513Z" fill="#F1384C"/>
    <path opacity="0.4" d="M101.119 63.3571L101.377 61.8536L102.679 62.6064L102.42 64.1098L101.119 63.3571Z" fill="#F1384C"/>
    <path d="M100.603 66.3619L100.861 64.8595L102.162 65.6122L101.903 67.1146L100.603 66.3619Z" fill="#F1384C"/>
    <path d="M100.086 69.3677L100.345 67.8643L101.645 68.618L101.387 70.1204L100.086 69.3677Z" fill="#F1384C"/>
    <path d="M99.5687 72.3737L99.8281 70.8702L101.129 71.624L100.871 73.1264L99.5687 72.3737Z" fill="#F1384C"/>
    <path opacity="0.4" d="M101.09 46.8164L101.348 45.314L102.649 46.0667L102.39 47.5701L101.09 46.8164Z" fill="#F1384C"/>
    <path opacity="0.4" d="M100.574 49.8221L100.832 48.3197L102.132 49.0724L101.875 50.5748L100.574 49.8221Z" fill="#F1384C"/>
    <path opacity="0.1" d="M100.056 52.8281L100.314 51.3257L101.616 52.0784L101.358 53.5808L100.056 52.8281Z" fill="#F1384C"/>
    <path d="M99.5403 55.8339L99.7987 54.3315L101.1 55.0833L100.841 56.5867L99.5403 55.8339Z" fill="#F1384C"/>
    <path d="M99.0235 58.8387L99.2819 57.3363L100.583 58.089L100.325 59.5925L99.0235 58.8387Z" fill="#F1384C"/>
    <path d="M98.5067 61.8446L98.7651 60.3422L100.066 61.0949L99.8078 62.5983L98.5067 61.8446Z" fill="#F1384C"/>
    <path opacity="0.4" d="M97.99 64.8504L98.2484 63.348L99.5494 64.1007L99.291 65.6032L97.99 64.8504Z" fill="#F1384C"/>
    <path d="M97.4733 67.8563L97.7317 66.3539L99.0327 67.1056L98.7743 68.609L97.4733 67.8563Z" fill="#F1384C"/>
    <path d="M96.9566 70.8621L97.2149 69.3586L98.5159 70.1114L98.2576 71.6148L96.9566 70.8621Z" fill="#F1384C"/>
    <path d="M98.4773 45.3058L98.7356 43.8024L100.037 44.5551L99.7783 46.0575L98.4773 45.3058Z" fill="#F1384C"/>
    <path d="M97.9606 48.3105L98.2189 46.8081L99.5199 47.5608L99.2616 49.0633L97.9606 48.3105Z" fill="#F1384C"/>
    <path d="M97.4438 51.3164L97.7022 49.813L99.0032 50.5657L98.7448 52.0691L97.4438 51.3164Z" fill="#F1384C"/>
    <path d="M96.9271 54.3224L97.1854 52.819L98.4864 53.5727L98.2281 55.0751L96.9271 54.3224Z" fill="#F1384C"/>
    <path d="M96.4103 57.3271L96.6687 55.8247L97.9697 56.5774L97.7113 58.0799L96.4103 57.3271Z" fill="#F1384C"/>
    <path d="M95.8946 60.333L96.153 58.8306L97.453 59.5833L97.1946 61.0857L95.8946 60.333Z" fill="#F1384C"/>
    <path d="M95.3779 63.3387L95.6362 61.8363L96.9372 62.589L96.6789 64.0914L95.3779 63.3387Z" fill="#F1384C"/>
    <path d="M94.8611 66.3446L95.1185 64.8422L96.4205 65.5939L96.1621 67.0963L94.8611 66.3446Z" fill="#F1384C"/>
    <path d="M94.3444 69.3493L94.6028 67.8469L95.9037 68.5996L95.6454 70.1031L94.3444 69.3493Z" fill="#F1384C"/>
    <path d="M95.864 43.7932L96.1234 42.2908L97.4244 43.0435L97.1661 44.5469L95.864 43.7932Z" fill="#F1384C"/>
    <path d="M95.3484 46.7991L95.6057 45.2968L96.9077 46.0495L96.6493 47.5519L95.3484 46.7991Z" fill="#F1384C"/>
    <path opacity="0.4" d="M94.8316 49.804L95.09 48.3016L96.391 49.0544L96.1326 50.5578L94.8316 49.804Z" fill="#F1384C"/>
    <path d="M94.3148 52.8108L94.5732 51.3074L95.8742 52.0601L95.6159 53.5635L94.3148 52.8108Z" fill="#F1384C"/>
    <path opacity="0.1" d="M93.7981 55.8155L94.0565 54.3131L95.3575 55.0658L95.0991 56.5682L93.7981 55.8155Z" fill="#F1384C"/>
    <path d="M93.2814 58.8214L93.5397 57.319L94.8407 58.0707L94.5824 59.5741L93.2814 58.8214Z" fill="#F1384C"/>
    <path d="M92.7646 61.8273L93.023 60.3239L94.324 61.0766L94.0657 62.58L92.7646 61.8273Z" fill="#F1384C"/>
    <path d="M92.2479 64.832L92.5063 63.3296L93.8073 64.0823L93.5489 65.5857L92.2479 64.832Z" fill="#F1384C"/>
    <path d="M91.7312 67.8379L91.9896 66.3354L93.2906 67.0882L93.0322 68.5906L91.7312 67.8379Z" fill="#F1384C"/>
    <path d="M93.2519 42.2819L93.5102 40.7784L94.8112 41.5322L94.5529 43.0346L93.2519 42.2819Z" fill="#F1384C"/>
    <path d="M92.7352 45.2876L92.9935 43.7842L94.2945 44.5379L94.0362 46.0403L92.7352 45.2876Z" fill="#F1384C"/>
    <path opacity="0.4" d="M92.2184 48.2935L92.4768 46.79L93.7778 47.5428L93.5194 49.0452L92.2184 48.2935Z" fill="#F1384C"/>
    <path d="M91.7027 51.2982L91.96 49.7958L93.261 50.5485L93.0027 52.0509L91.7027 51.2982Z" fill="#F1384C"/>
    <path d="M91.1859 54.304L91.4443 52.8016L92.7443 53.5544L92.487 55.0568L91.1859 54.304Z" fill="#F1384C"/>
    <path opacity="0.1" d="M90.6682 57.3099L90.9266 55.8065L92.2286 56.5603L91.9702 58.0627L90.6682 57.3099Z" fill="#F1384C"/>
    <path opacity="0.4" d="M90.1525 60.3147L90.4109 58.8123L91.7119 59.565L91.4535 61.0684L90.1525 60.3147Z" fill="#F1384C"/>
    <path d="M89.6357 63.3216L89.8941 61.8181L91.1951 62.5708L90.9367 64.0733L89.6357 63.3216Z" fill="#F1384C"/>
    <path opacity="0.1" d="M89.119 66.3264L89.3774 64.824L90.6784 65.5767L90.42 67.0791L89.119 66.3264Z" fill="#F1384C"/>
    <path d="M90.6397 40.7702L90.8981 39.2667L92.1991 40.0195L91.9407 41.5229L90.6397 40.7702Z" fill="#F1384C"/>
    <path opacity="0.4" d="M90.123 43.776L90.3814 42.2726L91.6824 43.0253L91.424 44.5287L90.123 43.776Z" fill="#F1384C"/>
    <path d="M89.6062 46.7809L89.8646 45.2784L91.1656 46.0312L90.9072 47.5336L89.6062 46.7809Z" fill="#F1384C"/>
    <path d="M89.0895 49.7866L89.3479 48.2832L90.6489 49.037L90.3905 50.5394L89.0895 49.7866Z" fill="#F1384C"/>
    <path d="M88.5728 52.7924L88.8312 51.2889L90.1322 52.0427L89.8738 53.5451L88.5728 52.7924Z" fill="#F1384C"/>
    <path d="M88.0561 55.7982L88.3144 54.2958L89.6154 55.0475L89.3571 56.5509L88.0561 55.7982Z" fill="#F1384C"/>
    <path d="M87.5393 58.8031L87.7977 57.3007L89.0987 58.0534L88.8403 59.5558L87.5393 58.8031Z" fill="#F1384C"/>
    <path opacity="0.4" d="M87.0226 61.8089L87.2809 60.3065L88.5819 61.0593L88.3236 62.5616L87.0226 61.8089Z" fill="#F1384C"/>
    <path d="M86.5059 64.8148L86.7642 63.3124L88.0652 64.0651L87.8069 65.5675L86.5059 64.8148Z" fill="#F1384C"/>
    <path d="M88.0266 39.2575L88.2849 37.7551L89.5859 38.5079L89.3275 40.0113L88.0266 39.2575Z" fill="#F1384C"/>
    <path opacity="0.1" d="M87.5098 42.2634L87.7682 40.761L89.0692 41.5137L88.8108 43.0171L87.5098 42.2634Z" fill="#F1384C"/>
    <path d="M86.9941 45.2692L87.2524 43.7668L88.5524 44.5196L88.2941 46.022L86.9941 45.2692Z" fill="#F1384C"/>
    <path d="M86.4763 48.275L86.7347 46.7726L88.0367 47.5243L87.7784 49.0277L86.4763 48.275Z" fill="#F1384C"/>
    <path d="M85.9606 51.2808L86.218 49.7773L87.519 50.5301L87.2616 52.0335L85.9606 51.2808Z" fill="#F1384C"/>
    <path d="M85.4439 54.2867L85.7023 52.7833L87.0023 53.536L86.7449 55.0385L85.4439 54.2867Z" fill="#F1384C"/>
    <path opacity="0.4" d="M84.9272 57.2916L85.1855 55.7892L86.4865 56.5419L86.2282 58.0443L84.9272 57.2916Z" fill="#F1384C"/>
    <path d="M84.4104 60.2974L84.6688 58.7939L85.9698 59.5477L85.7114 61.0501L84.4104 60.2974Z" fill="#F1384C"/>
    <path d="M83.8937 63.3031L84.152 61.7997L85.453 62.5534L85.1947 64.0558L83.8937 63.3031Z" fill="#F1384C"/>
    <defs>
        <linearGradient id="paint0_linear_1_704" x1="129.802" y1="49.9087" x2="46.0147" y2="49.9087" gradientUnits="userSpaceOnUse">
            <stop stop-color="#868686"/>
            <stop offset="0.2938" stop-color="#949494"/>
            <stop offset="0.6399" stop-color="#8F8F8F"/>
            <stop offset="0.9999" stop-color="#E4E4E4"/>
            <stop offset="1" stop-color="#E9E9FD"/>
        </linearGradient>
        <linearGradient id="paint1_linear_1_704" x1="129.801" y1="71.3961" x2="115.414" y2="71.3961" gradientUnits="userSpaceOnUse">
            <stop stop-color="#616161"/>
            <stop offset="0.1779" stop-color="#797979"/>
            <stop offset="0.3876" stop-color="#474747"/>
            <stop offset="0.6134" stop-color="#313131"/>
            <stop offset="0.849" stop-color="#C5C5C5"/>
            <stop offset="1" stop-color="#434343"/>
        </linearGradient>
        <linearGradient id="paint2_linear_1_704" x1="118.576" y1="95.5506" x2="0.242188" y2="95.5506" gradientUnits="userSpaceOnUse">
            <stop stop-color="#EC97A0"/>
            <stop offset="0.6134" stop-color="#FEBAC1"/>
            <stop offset="1" stop-color="#FFA3AC"/>
        </linearGradient>
        <linearGradient id="paint3_linear_1_704" x1="78.8155" y1="91.605" x2="-39.5816" y2="91.605" gradientUnits="userSpaceOnUse">
            <stop stop-color="#DC2E3F"/>
            <stop offset="0.2938" stop-color="#EE7380"/>
            <stop offset="0.6399" stop-color="#D83A49"/>
            <stop offset="1" stop-color="#EF7681"/>
        </linearGradient>
        <linearGradient id="paint4_linear_1_704" x1="58.765" y1="98.326" x2="28.4591" y2="98.326" gradientUnits="userSpaceOnUse">
            <stop stop-color="#8C8C8C"/>
            <stop offset="0.2938" stop-color="#999999"/>
            <stop offset="0.6399" stop-color="#A7A7A7"/>
            <stop offset="1" stop-color="#B0B0B0"/>
        </linearGradient>
        <linearGradient id="paint5_linear_1_704" x1="124.05" y1="65.3625" x2="5.65303" y2="65.3625" gradientUnits="userSpaceOnUse">
            <stop stop-color="#C0BFF6"/>
            <stop offset="0.2938" stop-color="#C5C4F7"/>
            <stop offset="0.6399" stop-color="#D3D2F9"/>
            <stop offset="1" stop-color="#E9E9FD"/>
        </linearGradient>
        <linearGradient id="paint6_linear_1_704" x1="131.842" y1="56.6715" x2="101.536" y2="56.6715" gradientUnits="userSpaceOnUse">
            <stop stop-color="#C0BFF6"/>
            <stop offset="0.2938" stop-color="#C5C4F7"/>
            <stop offset="0.6399" stop-color="#D3D2F9"/>
            <stop offset="1" stop-color="#E9E9FD"/>
        </linearGradient>
    </defs>
</svg>
