<svg width="148" height="126" viewBox="0 0 148 126" fill="none" xmlns="http://www.w3.org/2000/svg">
    <path d="M101.387 43.9061C89.0701 36.9092 77.026 24.9743 66.9328 9.76687L66.7957 9.68757C56.7025 13.1932 44.6594 11.1666 32.3412 3.88303L31.8701 3.60498L32.5353 26.7133C34.8735 62.5332 47.0413 78.1238 66.6254 111.426L67.1022 111.703C86.6862 101.106 98.855 99.622 101.192 66.5128L101.856 44.1756L101.387 43.9061Z" fill="url(#paint0_linear_1_346)"/>
    <path d="M105.528 40.3021C93.2108 33.3051 81.1676 21.3702 71.0735 6.16284L70.9374 6.08354C60.8441 9.58919 48.8001 7.56262 36.4828 0.279007L36.0117 0L32.0024 3.68242L32.3412 3.88212C44.6584 11.1657 56.7026 13.1923 66.7958 9.68665L66.9328 9.76595C77.026 24.9734 89.0701 36.9092 101.387 43.9052L101.857 44.1727L101.194 66.5109C99.6677 88.121 93.9521 96.2569 84.722 102.249C96.2532 95.4113 103.619 87.197 105.335 62.9059L106 40.5687L105.528 40.3021Z" fill="url(#paint1_linear_1_346)"/>
    <path d="M106 40.5696L105.528 40.3021C93.2107 33.3051 81.1676 21.3702 71.0734 6.16279L70.9373 6.0835L66.7948 9.68757L66.9318 9.76686C77.0251 24.9743 89.0692 36.9101 101.386 43.9061L101.856 44.1737L106 40.5696Z" fill="url(#paint2_linear_1_346)"/>
    <path d="M101.857 44.1737L101.194 66.5118C99.6677 88.1219 93.9521 96.2578 84.722 102.25C96.2532 95.4122 103.619 87.1979 105.335 62.9068L106 40.5696L101.857 44.1737Z" fill="url(#paint3_linear_1_346)"/>
    <path d="M100.108 44.7995C88.0642 37.9583 76.2894 26.2881 66.4208 11.4189L66.2866 11.3415C56.418 14.7688 44.6432 12.7881 32.5991 5.66599L32.1394 5.39368L28.2186 8.99487L28.5498 9.19075C40.5939 16.3119 52.3687 18.2936 62.2373 14.8663L62.3715 14.9437C72.2411 29.8129 84.0159 41.4821 96.06 48.3243L96.5196 48.5852L95.8687 70.4255C94.3784 91.555 88.7894 99.5093 79.7648 105.369C91.04 98.6828 98.2421 90.6511 99.9189 66.9017L100.57 45.0614L100.108 44.7995Z" fill="url(#paint4_linear_1_346)"/>
    <path d="M100.569 45.0604L100.108 44.7986C88.0642 37.9573 76.2894 26.2871 66.4208 11.418L66.2866 11.3406L62.2373 14.8644L62.3715 14.9418C72.2411 29.8109 84.0159 41.4802 96.06 48.3224L96.5196 48.5833L100.569 45.0604Z" fill="url(#paint5_linear_1_346)"/>
    <path d="M96.5187 48.5842L95.8678 70.4246C94.3775 91.554 88.7884 99.5084 79.7639 105.368C91.0391 98.6819 98.2412 90.6502 99.918 66.9008L100.569 45.0604L96.5187 48.5842Z" fill="url(#paint6_linear_1_346)"/>
    <path d="M101.87 43.5603C89.5517 36.5633 77.5085 24.6274 67.4153 9.42004L67.2783 9.34074C57.185 12.8464 45.1419 10.8198 32.8237 3.53621L32.3527 3.2572L32.3859 4.41047C44.5909 11.5393 56.5132 13.5076 66.5188 10.0325L66.6549 10.1118C76.7491 25.3202 88.7932 37.2551 101.11 44.252L101.581 44.5196L100.916 66.8568C99.701 84.0822 95.8183 92.7417 89.6192 98.5835C96.2608 92.7331 100.411 84.0831 101.676 66.1631L102.34 43.8259L101.87 43.5603Z" fill="url(#paint7_radial_1_346)"/>
    <path opacity="0.4" d="M70.7642 126C89.3688 126 104.451 119.546 104.451 111.584C104.451 103.622 89.3688 97.1675 70.7642 97.1675C52.1596 97.1675 37.0776 103.622 37.0776 111.584C37.0776 119.546 52.1596 126 70.7642 126Z" fill="url(#paint8_radial_1_346)"/>
    <path d="M93.5172 51.0799C81.2 44.0829 69.1568 32.1471 59.0626 16.9397L58.9256 16.8604C48.8324 20.366 36.7892 18.3395 24.4711 11.0558L24 10.7769L24.6652 33.8851C27.0034 69.7051 39.1712 85.2966 58.7553 118.598L59.232 118.874C78.817 108.278 90.9849 106.794 93.3231 73.6837L93.9873 51.3465L93.5172 51.0799Z" fill="url(#paint9_linear_1_346)"/>
    <path d="M97.6598 47.4759C85.3416 40.4789 73.2985 28.5431 63.2053 13.3357L63.0682 13.2564C52.975 16.762 40.9319 14.7355 28.6137 7.45184L28.1426 7.17285L24.1333 10.8553L24.4721 11.055C36.7893 18.3386 48.8334 20.3652 58.9266 16.8595L59.0637 16.9388C69.1579 32.1462 81.2 44.0821 93.5182 51.079L93.9893 51.3456L93.325 73.6828C91.7986 95.2929 86.0839 103.43 76.8529 109.421C88.385 102.583 95.7508 94.3689 97.4657 70.0778L98.1309 47.7415L97.6598 47.4759Z" fill="url(#paint10_linear_1_346)"/>
    <path d="M98.1308 47.7434L97.6597 47.4759C85.3415 40.4789 73.2984 28.5431 63.2051 13.3357L63.0681 13.2563L58.9265 16.8604L59.0636 16.9397C69.1577 32.1471 81.1999 44.083 93.5181 51.0799L93.9892 51.3465L98.1308 47.7434Z" fill="url(#paint11_linear_1_346)"/>
    <path d="M93.9883 51.3465L93.324 73.6837C91.7976 95.2938 86.0829 103.431 76.8519 109.421C88.384 102.584 95.7498 94.3698 97.4646 70.0787L98.1299 47.7424L93.9883 51.3465Z" fill="url(#paint12_linear_1_346)"/>
    <path d="M56.5597 103.439C41.3562 78.119 33.7096 65.3806 31.8653 37.5914L31.4457 23.0032C41.2068 27.4337 50.5653 28.8469 58.996 27.1624C67.4238 38.6205 76.7814 48.0568 86.5435 54.942L86.1238 69.0429C84.2795 94.6976 76.632 98.5692 61.4265 106.265C60.6309 106.67 59.8211 107.079 58.996 107.5C58.1671 106.119 57.3553 104.764 56.5597 103.439Z" fill="url(#paint13_linear_1_346)"/>
    <path d="M58.996 27.1624C67.4238 38.6205 76.7814 48.0568 86.5434 54.942L86.1238 69.0429C84.2795 94.6975 76.632 98.5691 61.4265 106.265C60.6309 106.67 59.8211 107.079 58.996 107.5V27.1624Z" fill="url(#paint14_linear_1_346)"/>
    <path d="M94.0006 50.7331C81.6834 43.7362 69.6402 31.8003 59.546 16.5929L59.409 16.5136C49.3158 20.0192 37.2726 17.9927 24.9545 10.7091L24.4834 10.4301L24.5167 11.5833C36.7216 18.7121 48.6439 20.6804 58.6496 17.2063L58.7857 17.2856C68.8789 32.493 80.923 44.4289 93.2402 51.4249L93.7113 51.6924L93.0461 74.0287C91.8308 91.255 87.9481 99.9145 81.749 105.755C88.3906 99.905 92.5408 91.255 93.8065 73.3359L94.4707 50.9987L94.0006 50.7331Z" fill="url(#paint15_radial_1_346)"/>
    <path d="M56.5597 103.439C41.3562 78.119 33.7096 65.3806 31.8653 37.5914L31.4457 23.0032C41.2068 27.4337 50.5653 28.8469 58.996 27.1624C67.4238 38.6205 76.7814 48.0568 86.5435 54.942L86.1238 69.0429C84.2795 94.6976 76.632 98.5692 61.4265 106.265C60.6309 106.67 59.8211 107.079 58.996 107.5C58.1671 106.119 57.3553 104.764 56.5597 103.439Z" fill="url(#paint16_radial_1_346)"/>
    <path d="M58.996 27.1624C50.5653 28.8469 41.2068 27.4347 31.4457 23.0032L31.4714 23.8975C40.9983 28.0987 50.1304 29.4335 58.3746 27.7863C66.8033 39.2444 76.1609 48.6807 85.923 55.5659L85.5033 69.6669C84.4717 83.999 81.6291 91.5311 76.671 96.7299C82.0126 91.5082 85.0522 83.9608 86.1247 69.042L86.5444 54.941C76.7814 48.0568 67.4238 38.6205 58.996 27.1624Z" fill="url(#paint17_radial_1_346)"/>
    <path fill-rule="evenodd" clip-rule="evenodd" d="M59.1728 58.2702C60.8996 55.195 64.0881 53.3256 67.4377 53.7844C68.4841 53.9277 69.4539 54.2859 70.383 54.8549C69.2604 53.9856 67.9448 53.2416 66.4072 53.0309C63.5155 52.6348 60.7269 53.7376 58.6941 55.7952C58.4385 55.7091 58.1456 55.6466 57.8465 55.6057C54.1093 55.0937 50.6147 58.106 50.0403 62.3335C49.4685 66.5414 52.0044 70.366 55.711 70.9086C55.7294 70.9111 64.4845 72.1103 64.5029 72.1128L59.9117 66.3664L60.2183 69.3717C60.1935 69.3682 56.0027 68.7942 55.9768 68.7907C53.3128 68.3859 51.4974 65.622 51.9095 62.5895C52.3253 59.5289 54.8542 57.3501 57.5591 57.7206C58.1401 57.8002 58.6827 57.9915 59.1728 58.2702ZM61.7887 58.9882C62.0285 59.021 62.1929 59.2676 62.1561 59.5388C62.1192 59.8101 61.895 60.0034 61.6553 59.9705C61.4155 59.9377 61.2511 59.6911 61.2879 59.4199C61.3248 59.1487 61.549 58.9554 61.7887 58.9882ZM60.6044 61.4955C60.6086 61.4973 60.5549 61.2772 60.3524 60.8649C60.1501 60.4514 59.7151 60.3905 59.7151 60.3905L60.5875 59.823C60.5875 59.823 60.7462 58.9462 61.199 58.5117C61.6508 58.077 62.455 57.8486 62.5619 57.9205C62.6687 57.9924 62.8571 58.8881 62.719 59.5325C62.5797 60.1768 61.9512 60.7391 61.9512 60.7391L61.9003 61.8585C61.9003 61.8585 61.6498 61.4595 61.2264 61.4513C60.8018 61.4429 60.6004 61.4925 60.6044 61.4955ZM60.4012 61.8821C60.4012 61.8821 59.6873 62.8049 59.2472 62.701C59.0479 62.6538 58.8554 62.5329 58.7906 62.4431C58.5274 62.081 58.1837 62.3525 57.9982 62.6245C57.8112 62.9001 57.8458 63.2682 58.0565 63.434C58.3627 63.6738 58.7619 63.4796 58.9483 63.8324C59.0103 63.9505 59.0188 64.2603 58.9756 64.3925C58.8606 64.7364 59.1496 65.0461 59.411 65.1055C59.6106 65.1503 59.8076 65.069 59.8845 64.8991C60.0168 64.6135 60.2302 64.6378 60.3738 64.7956C60.5251 64.9607 60.8446 64.8763 61.0196 64.6488C61.1695 64.4516 61.2037 64.1352 61.0276 63.9019C60.6473 63.3981 60.1856 63.8327 60.2129 63.1382C60.2402 62.4438 60.4012 61.8821 60.4012 61.8821ZM59.1129 65.6646L58.4776 66.7375L56.2467 66.4319L54.5777 59.7814C54.5777 59.7814 56.0682 59.8213 56.3151 60.8296C56.563 61.838 57.4233 65.0585 57.4233 65.0585L57.7191 65.099L58.2087 64.224C58.2087 64.224 58.2766 64.8979 58.4778 65.2229C58.678 65.5465 59.1129 65.6646 59.1129 65.6646Z" fill="#DC2E3F"/>
    <path opacity="0.7" d="M128.619 69.7499C128.233 69.7499 127.863 69.6681 127.58 69.4996L119.633 64.7813C119.332 64.6024 119.165 64.3444 119.165 64.0561C119.165 63.723 119.393 63.3966 119.79 63.1606L127.424 58.6278C128.129 58.209 129.167 58.1672 129.784 58.5345L137.73 63.2529C138.032 63.4318 138.198 63.6897 138.198 63.978C138.199 64.3121 137.971 64.6376 137.574 64.8726L129.939 69.4064C129.556 69.6348 129.077 69.7499 128.619 69.7499ZM127.766 69.1713C128.262 69.4673 129.174 69.4254 129.754 69.0781L137.388 64.5452C137.664 64.3806 137.829 64.1684 137.829 63.978C137.829 63.7906 137.674 63.6602 137.545 63.5822L129.599 58.8638C129.103 58.5687 128.191 58.6125 127.61 58.958L119.976 63.4899C119.701 63.6545 119.536 63.8667 119.536 64.057C119.536 64.2445 119.691 64.3759 119.82 64.4529L127.766 69.1713Z" fill="#999999"/>
    <path opacity="0.7" d="M13.9164 107.014C13.3569 107.014 12.8202 106.891 12.4096 106.638L0.88768 99.5607C0.450258 99.2923 0.20874 98.9054 0.20874 98.4729C0.20874 97.9733 0.538824 97.4837 1.11445 97.1297L12.1842 90.3304C13.2066 89.7023 14.7108 89.6395 15.6058 90.1906L27.1277 97.2681C27.5651 97.5365 27.8066 97.9233 27.8066 98.3559C27.808 98.8569 27.4779 99.3451 26.9009 99.6977L15.8312 106.498C15.2757 106.841 14.5806 107.014 13.9164 107.014ZM12.6793 106.146C13.3998 106.59 14.7215 106.527 15.5628 106.006L26.6326 99.2067C27.0324 98.9597 27.2712 98.6414 27.2712 98.3559C27.2712 98.0746 27.0471 97.8791 26.8593 97.762L15.3374 90.6844C14.6182 90.2419 13.2965 90.3076 12.4539 90.8258L1.38414 97.6236C0.985624 97.8705 0.746798 98.1888 0.746798 98.4743C0.746798 98.7556 0.970865 98.9526 1.15872 99.0682L12.6793 106.146Z" fill="#999999"/>
    <path opacity="0.7" d="M129.035 116.568C128.282 116.568 127.561 116.412 127.008 116.089L111.513 107.045C110.925 106.702 110.6 106.208 110.6 105.655C110.6 105.017 111.044 104.391 111.818 103.939L126.705 95.2509C128.08 94.4484 130.103 94.3681 131.307 95.0722L146.802 104.116C147.39 104.459 147.715 104.953 147.715 105.506C147.716 106.146 147.273 106.77 146.497 107.22L131.61 115.91C130.863 116.348 129.928 116.568 129.035 116.568ZM127.371 115.459C128.34 116.027 130.117 115.946 131.249 115.281L146.136 106.593C146.674 106.277 146.995 105.87 146.995 105.506C146.995 105.146 146.693 104.896 146.441 104.747L130.946 95.7033C129.979 95.1378 128.201 95.2217 127.068 95.8839L112.181 104.57C111.645 104.886 111.324 105.292 111.324 105.657C111.324 106.016 111.625 106.268 111.878 106.416L127.371 115.459Z" fill="#999999"/>
    <defs>
        <linearGradient id="paint0_linear_1_346" x1="53.1815" y1="53.4965" x2="177.689" y2="185.696" gradientUnits="userSpaceOnUse">
            <stop stop-color="#C22838"/>
            <stop offset="0.6493" stop-color="#DC2E3F"/>
            <stop offset="0.8997" stop-color="#F4EDF8"/>
            <stop offset="1" stop-color="white"/>
        </linearGradient>
        <linearGradient id="paint1_linear_1_346" x1="1.60117" y1="40.7425" x2="74.9623" y2="53.558" gradientUnits="userSpaceOnUse">
            <stop stop-color="#918385"/>
            <stop offset="0.6493" stop-color="#F3AFB7"/>
            <stop offset="0.8997" stop-color="#F4EDF8"/>
            <stop offset="1" stop-color="white"/>
        </linearGradient>
        <linearGradient id="paint2_linear_1_346" x1="78.7331" y1="23.6636" x2="117.28" y2="88.73" gradientUnits="userSpaceOnUse">
            <stop stop-color="#B4989B"/>
            <stop offset="0.6493" stop-color="#FFACB4"/>
            <stop offset="0.8997" stop-color="#F4EDF8"/>
            <stop offset="1" stop-color="white"/>
        </linearGradient>
        <linearGradient id="paint3_linear_1_346" x1="91.2014" y1="69.0373" x2="152.205" y2="103.551" gradientUnits="userSpaceOnUse">
            <stop stop-color="#C22838"/>
            <stop offset="0.6493" stop-color="#DC2E3F"/>
            <stop offset="0.8997" stop-color="#F4EDF8"/>
            <stop offset="1" stop-color="white"/>
        </linearGradient>
        <linearGradient id="paint4_linear_1_346" x1="-1.50755" y1="45.2302" x2="70.2216" y2="57.7606" gradientUnits="userSpaceOnUse">
            <stop offset="0.096" stop-color="#666666"/>
            <stop offset="1" stop-color="#292929"/>
        </linearGradient>
        <linearGradient id="paint5_linear_1_346" x1="48.8565" y1="-1.56595" x2="117.176" y2="67.538" gradientUnits="userSpaceOnUse">
            <stop offset="0.096" stop-color="#6B6B6B"/>
            <stop offset="1" stop-color="#3D3D3D"/>
        </linearGradient>
        <linearGradient id="paint6_linear_1_346" x1="86.0997" y1="72.8957" x2="145.746" y2="106.641" gradientUnits="userSpaceOnUse">
            <stop offset="0.096" stop-color="#8F8F8F"/>
            <stop offset="1" stop-color="#4A4A4A"/>
        </linearGradient>
        <radialGradient id="paint7_radial_1_346" cx="0" cy="0" r="1" gradientUnits="userSpaceOnUse" gradientTransform="translate(67.3472 50.9214) scale(41.7024 41.8701)">
            <stop stop-color="white"/>
            <stop offset="1"/>
        </radialGradient>
        <radialGradient id="paint8_radial_1_346" cx="0" cy="0" r="1" gradientUnits="userSpaceOnUse" gradientTransform="translate(70.7635 111.583) scale(33.6857 14.4164)">
            <stop stop-color="#231F20"/>
            <stop offset="0.0613" stop-color="#353132"/>
            <stop offset="0.3206" stop-color="#7C7A7A"/>
            <stop offset="0.5533" stop-color="#B4B3B3"/>
            <stop offset="0.7513" stop-color="#DDDCDC"/>
            <stop offset="0.9065" stop-color="#F6F6F6"/>
            <stop offset="1" stop-color="white"/>
        </radialGradient>
        <linearGradient id="paint9_linear_1_346" x1="17.9799" y1="77.8476" x2="145.9" y2="8.8459" gradientUnits="userSpaceOnUse">
            <stop stop-color="#DC2E3F"/>
            <stop offset="0.6493" stop-color="#F58E99"/>
            <stop offset="0.8997" stop-color="#F4EDF8"/>
            <stop offset="1" stop-color="white"/>
        </linearGradient>
        <linearGradient id="paint10_linear_1_346" x1="-6.26798" y1="47.915" x2="67.0931" y2="60.7306" gradientUnits="userSpaceOnUse">
            <stop stop-color="#918385"/>
            <stop offset="0.6493" stop-color="#F3AFB7"/>
            <stop offset="0.8997" stop-color="#F4EDF8"/>
            <stop offset="1" stop-color="white"/>
        </linearGradient>
        <linearGradient id="paint11_linear_1_346" x1="70.8645" y1="30.8365" x2="109.412" y2="95.9021" gradientUnits="userSpaceOnUse">
            <stop stop-color="#B4989B"/>
            <stop offset="0.6493" stop-color="#FFACB4"/>
            <stop offset="0.8997" stop-color="#F4EDF8"/>
            <stop offset="1" stop-color="white"/>
        </linearGradient>
        <linearGradient id="paint12_linear_1_346" x1="83.3312" y1="76.2097" x2="144.335" y2="110.723" gradientUnits="userSpaceOnUse">
            <stop stop-color="#C22838"/>
            <stop offset="0.6493" stop-color="#DC2E3F"/>
            <stop offset="0.8997" stop-color="#F4EDF8"/>
            <stop offset="1" stop-color="white"/>
        </linearGradient>
        <linearGradient id="paint13_linear_1_346" x1="28.0638" y1="86.8042" x2="80.6043" y2="32.8175" gradientUnits="userSpaceOnUse">
            <stop offset="0.0303" stop-color="#7C1DC9"/>
            <stop offset="0.2138" stop-color="#6E41D2"/>
            <stop offset="0.6184" stop-color="#4C9BE8"/>
            <stop offset="1" stop-color="#2AF6FF"/>
        </linearGradient>
        <linearGradient id="paint14_linear_1_346" x1="106.037" y1="67.1497" x2="48.3805" y2="67.3714" gradientUnits="userSpaceOnUse">
            <stop offset="0.0303" stop-color="#7C1DC9"/>
            <stop offset="0.2138" stop-color="#6E41D2"/>
            <stop offset="0.6184" stop-color="#4C9BE8"/>
            <stop offset="1" stop-color="#2AF6FF"/>
        </linearGradient>
        <radialGradient id="paint15_radial_1_346" cx="0" cy="0" r="1" gradientUnits="userSpaceOnUse" gradientTransform="translate(59.4781 58.0939) scale(41.7021 41.8699)">
            <stop stop-color="white"/>
            <stop offset="1"/>
        </radialGradient>
        <radialGradient id="paint16_radial_1_346" cx="0" cy="0" r="1" gradientUnits="userSpaceOnUse" gradientTransform="translate(76.2138 18.0583) scale(66.3132 66.5799)">
            <stop offset="0.0202" stop-color="#FC2A40"/>
            <stop offset="0.108" stop-color="#F52339"/>
            <stop offset="0.3363" stop-color="#A23F4A"/>
            <stop offset="0.5477" stop-color="#333333"/>
            <stop offset="0.7355" stop-color="#1A1A1A"/>
            <stop offset="0.8926" stop-color="#171717"/>
            <stop offset="1" stop-color="#181818"/>
        </radialGradient>
        <radialGradient id="paint17_radial_1_346" cx="0" cy="0" r="1" gradientUnits="userSpaceOnUse" gradientTransform="translate(58.9942 59.8671) scale(32.4576 32.5882)">
            <stop stop-color="white"/>
            <stop offset="1"/>
        </radialGradient>
    </defs>
</svg>
