<svg width="29" height="17" viewBox="0 0 29 17" fill="none" xmlns="http://www.w3.org/2000/svg">
<path d="M27.7115 13.0369C27.0807 12.2769 26.368 11.5984 25.6787 10.9422C25.4365 10.7116 25.186 10.4731 24.9447 10.2363L24.9445 10.2361C24.6199 9.9179 24.4611 9.69204 24.4445 9.52522C24.4282 9.36124 24.5396 9.11795 24.796 8.75835C25.1794 8.21746 25.5881 7.67565 25.9835 7.15173C26.3349 6.68599 26.6982 6.20437 27.0464 5.72002L27.1246 5.61127C27.804 4.66602 28.5064 3.6886 28.8829 2.4975C28.9904 2.15599 29.102 1.65063 28.8327 1.20699C28.5633 0.763227 28.0639 0.631705 27.712 0.571467C27.5401 0.54186 27.3769 0.539411 27.2251 0.539411L22.8181 0.535483C22.0562 0.522729 21.5276 0.885753 21.2396 1.61476C21.009 2.19699 20.7368 2.87174 20.4213 3.51181C19.8178 4.74749 19.051 6.17072 17.9394 7.35653L17.89 7.40936C17.8144 7.49055 17.6907 7.62333 17.6272 7.65379C17.5068 7.57772 17.3679 7.14267 17.3742 6.91476C17.3744 6.90912 17.3744 6.90354 17.3744 6.89796L17.3705 1.77925C17.3705 1.75323 17.3687 1.72721 17.3653 1.70142C17.2664 0.971157 17.0737 0.239074 15.9239 0.0109887C15.8871 0.00364395 15.8496 0 15.8121 0H11.2278C10.3654 0 9.90917 0.397014 9.54344 0.82745C9.43758 0.952937 9.1563 1.28613 9.2996 1.69345C9.4446 2.10561 9.87666 2.18788 10.0185 2.21487C10.5181 2.31018 10.7764 2.594 10.8564 3.1366C11.0145 4.19089 11.0338 5.31873 10.9174 6.68423C10.885 7.05084 10.8246 7.32948 10.7272 7.56121C10.7002 7.62538 10.6765 7.66512 10.66 7.68852C10.6336 7.67782 10.5925 7.65732 10.5357 7.6182C10.1846 7.37674 9.92005 7.00136 9.6642 6.63845C8.64229 5.18812 7.7827 3.58628 7.03601 1.7407C6.7285 0.984423 6.15043 0.562015 5.40934 0.551083C3.99739 0.527455 2.69154 0.528024 1.41847 0.552905C0.818024 0.563381 0.396956 0.753377 0.166767 1.11771C-0.0637049 1.48273 -0.0552654 1.94812 0.191915 2.5012C1.95889 6.45085 3.5633 9.32406 5.39393 11.8175C6.68291 13.573 7.98044 14.7915 9.47729 15.6524C11.05 16.5568 12.8236 17.0001 14.8813 17C15.1153 17 15.3533 16.9942 15.5946 16.9827C16.8641 16.9246 17.3806 16.417 17.4369 15.1741C17.4685 14.5172 17.5413 13.9851 17.7936 13.5228C17.8642 13.3934 17.9438 13.3066 18.0066 13.2907C18.0733 13.274 18.1916 13.315 18.3232 13.401C18.5637 13.558 18.7709 13.7709 18.9412 13.9579C19.1138 14.1478 19.2883 14.3441 19.4571 14.5339C19.8164 14.9379 20.1879 15.3558 20.5771 15.7544C21.4575 16.6564 22.4724 17.0701 23.5949 16.9835L27.628 16.9854C27.6281 16.9854 27.6282 16.9854 27.6282 16.9854C27.641 16.9854 27.6538 16.985 27.6666 16.9841C28.1318 16.953 28.534 16.6941 28.7702 16.2737C29.0546 15.7674 29.0503 15.1261 28.7585 14.5576C28.454 13.9666 28.0589 13.4578 27.7115 13.0369ZM27.7642 15.7027C27.7086 15.8017 27.64 15.8197 27.6046 15.824L23.5723 15.8222C23.5722 15.8222 23.5721 15.8222 23.5719 15.8222C23.556 15.8222 23.5401 15.8228 23.5243 15.8242C22.7299 15.8907 22.0547 15.61 21.4017 14.941C21.0314 14.5617 20.669 14.1542 20.3185 13.7601C20.1478 13.568 19.9712 13.3694 19.7938 13.1742C19.5738 12.9327 19.3019 12.6551 18.9525 12.427C18.4293 12.0857 17.9958 12.096 17.7243 12.1648C17.4557 12.2328 17.0738 12.427 16.7807 12.9647C16.401 13.6604 16.3172 14.4109 16.2831 15.1199C16.2634 15.5535 16.1904 15.6681 16.16 15.6972C16.12 15.7353 15.9866 15.8024 15.5413 15.8228C13.4017 15.924 11.606 15.5388 10.0511 14.6445C8.69836 13.8665 7.51388 12.749 6.32358 11.128C4.54364 8.70375 2.97752 5.89635 1.24572 2.02527C1.18296 1.88504 1.16359 1.79753 1.15798 1.75067C1.20216 1.73609 1.28848 1.7169 1.43983 1.71411C2.69997 1.68958 3.99218 1.68889 5.39138 1.71235C5.58294 1.7152 5.80106 1.77299 5.96623 2.17922C6.7464 4.10759 7.64761 5.78578 8.72153 7.30984C9.00666 7.71437 9.36157 8.21791 9.88317 8.57666C10.3609 8.90553 10.7486 8.88981 10.9898 8.81876C11.2311 8.74764 11.566 8.55008 11.7915 8.01328C11.937 7.66728 12.025 7.27767 12.0686 6.7854C12.193 5.32482 12.1709 4.11049 11.9992 2.96511C11.8781 2.14449 11.4566 1.55168 10.7926 1.24895C10.9105 1.18723 11.0434 1.16149 11.2279 1.16149H15.7522C16.0068 1.21889 16.0572 1.2863 16.0745 1.30936C16.1478 1.40734 16.1897 1.63913 16.2153 1.82024L16.2191 6.89176C16.2089 7.37793 16.444 8.45619 17.2443 8.75186C17.2509 8.7543 17.2575 8.75658 17.2642 8.75874C17.9928 8.9981 18.4748 8.48107 18.7335 8.20328L18.7796 8.15397C19.9971 6.85498 20.817 5.33718 21.4576 4.02566C21.7914 3.3484 22.0742 2.64786 22.3132 2.044C22.4329 1.74116 22.5417 1.69128 22.8015 1.69681C22.8051 1.69692 22.8086 1.69692 22.8122 1.69692L27.2248 1.70085C27.3274 1.70085 27.4345 1.70204 27.5176 1.71634C27.7279 1.75232 27.8145 1.79616 27.843 1.81432C27.846 1.84797 27.8453 1.94476 27.7818 2.14677C27.4617 3.1596 26.8431 4.02014 26.1883 4.93122L26.1101 5.04014C25.7698 5.51339 25.4105 5.98955 25.0632 6.45011C24.6627 6.98081 24.2488 7.5295 23.8563 8.08326C23.0172 9.26007 23.091 10.041 24.1381 11.0677C24.3856 11.3105 24.6392 11.552 24.8846 11.7856C25.5802 12.4479 26.2373 13.0735 26.8237 13.7798C27.1307 14.1518 27.4787 14.5986 27.7323 15.091C27.8646 15.3487 27.8322 15.5816 27.7642 15.7027Z" fill="#9B9B9B"/>
</svg>
